<svg width="28" height="27" fill="none" xmlns="http://www.w3.org/2000/svg"><path d="M3.523 0h20.954c.843 0 1.546.305 2.109.914.61.563.914 1.266.914 2.11v20.953c0 .843-.305 1.57-.914 2.18-.563.562-1.266.843-2.11.843H3.524c-.843 0-1.57-.281-2.18-.844a3.103 3.103 0 01-.843-2.18V3.024c0-.843.281-1.546.844-2.109C1.954.304 2.68 0 3.524 0zM23 3.023h-3.727c-1.5 0-2.742.516-3.726 1.547-.985.985-1.5 2.203-1.547 3.657v3.796h-3.023v4.5H14V27h4.5V16.523H23v-4.5h-4.5V9c0-.422.14-.773.422-1.055a1.43 1.43 0 011.055-.422H23v-4.5z" fill="#000"/></svg>