<svg width="30" height="31" fill="none" xmlns="http://www.w3.org/2000/svg"><path d="M8.672.523h12.656c2.438.047 4.477.891 6.117 2.532 1.64 1.64 2.485 3.68 2.532 6.117v12.656c-.047 2.438-.891 4.477-2.532 6.117-1.64 1.64-3.68 2.485-6.117 2.532H8.672c-2.438-.047-4.477-.891-6.117-2.532-1.64-1.64-2.485-3.68-2.532-6.117V9.172C.07 6.734.914 4.695 2.555 3.055 4.195 1.415 6.235.57 8.672.523zM8.39 3.477c-1.547.046-2.836.586-3.868 1.617-.984.984-1.5 2.25-1.546 3.797v13.218c.046 1.547.562 2.836 1.546 3.868 1.032.984 2.32 1.5 3.868 1.546h13.218c1.547-.046 2.813-.562 3.797-1.546 1.032-1.032 1.57-2.32 1.617-3.868V8.891c-.046-1.547-.585-2.813-1.617-3.797-.984-1.032-2.25-1.57-3.797-1.617H8.391zm14.484 2.25a1.84 1.84 0 011.266.632c.375.329.562.75.562 1.266s-.187.96-.562 1.336c-.328.328-.75.492-1.266.492s-.96-.164-1.336-.492a1.962 1.962 0 01-.492-1.336c0-.516.164-.938.492-1.266.375-.375.82-.586 1.336-.632zM15 7.977c2.11.046 3.867.796 5.273 2.25 1.454 1.406 2.204 3.164 2.25 5.273-.046 2.11-.796 3.89-2.25 5.344-1.406 1.406-3.164 2.133-5.273 2.18-2.11-.047-3.89-.774-5.344-2.18-1.406-1.453-2.133-3.235-2.18-5.344.047-2.11.774-3.867 2.18-5.273C11.11 8.773 12.891 8.023 15 7.977zM15 11c-1.266.047-2.32.492-3.164 1.336-.844.844-1.266 1.898-1.266 3.164 0 1.266.422 2.32 1.266 3.164.844.844 1.898 1.266 3.164 1.266 1.266 0 2.32-.422 3.164-1.266.844-.844 1.266-1.898 1.266-3.164 0-1.266-.422-2.32-1.266-3.164-.844-.844-1.898-1.29-3.164-1.336z" fill="#000"/></svg>