<svg width="28" height="31" fill="none" xmlns="http://www.w3.org/2000/svg"><g clip-path="url(#clip0)"><path d="M28.028 7.762a8.201 8.201 0 01-4.857-1.577c-1.549-1.134-2.666-2.801-3.06-4.717A7.55 7.55 0 0119.955 0h-5.213v13.832l-.007 7.575c0 2.025-1.36 3.741-3.24 4.348a4.839 4.839 0 01-3.909-.418c-1.36-.79-2.279-2.22-2.304-3.864-.037-2.559 2.092-4.651 4.727-4.651a5.02 5.02 0 011.486.23v-5.13a10.245 10.245 0 00-1.505-.109c-2.884 0-5.582 1.164-7.511 3.262A9.409 9.409 0 00.019 20.8c-.175 2.784.874 5.434 2.91 7.386.3.285.611.552.942.8A10.197 10.197 0 009.996 31c.506 0 1.012-.036 1.505-.11a10.087 10.087 0 005.563-2.704c1.88-1.8 2.916-4.196 2.929-6.743l-.025-11.316a13.473 13.473 0 008.08 2.662V7.762h-.02z" fill="#000"/></g><defs><clipPath id="clip0"><path fill="#fff" d="M0 0h28v31H0z"/></clipPath></defs></svg>