<svg width="32" height="25" fill="none" xmlns="http://www.w3.org/2000/svg"><path d="M12.977 19.25V5.75l9 6.75-9 6.75zM28.023 1.11c-.562-.141-1.992-.282-4.289-.423C21.437.547 18.86.478 16 .478c-2.86 0-5.438.07-7.734.21-2.297.094-3.727.211-4.29.352-1.124.516-1.921 1.852-2.39 4.008C1.164 7.203.953 9.687.953 12.5c0 2.766.211 5.25.633 7.453.469 2.156 1.266 3.469 2.39 3.938.563.187 1.993.351 4.29.492 2.296.094 4.875.14 7.734.14 2.86 0 5.438-.046 7.734-.14 2.297-.14 3.727-.305 4.29-.492 1.124-.47 1.898-1.782 2.32-3.938.468-2.203.703-4.687.703-7.453 0-2.813-.235-5.297-.703-7.453-.422-2.156-1.196-3.469-2.32-3.938z" fill="#000"/></svg>