<svg width="194" height="80" fill="none" xmlns="http://www.w3.org/2000/svg"><path d="M131.368 78.64V9.96L189.57 24.3l2.419 54.34h-60.621z" fill="#FFBC16"/><path d="M132.731 11.471l55.633 13.736 2.419 52.075h-58.052v-65.81zm-2.57-3.17v71.547h63.192l-2.57-56.603L130.161 8.3z" fill="#000"/><path d="M69.688 78.64V7.848l27.06-6.49 26.91 6.64V78.64h-53.97z" fill="#FFBC16"/><path d="M96.752 2.566l25.7 6.49v68.378h-51.4V8.906l25.7-6.34zm0-2.566l-28.27 6.943V80h56.388V7.094L96.752 0z" fill="#000"/><path d="M1.206 78.64l2.57-54.34L61.828 9.96v68.68H1.206z" fill="#FFBC16"/><path d="M60.621 11.471v65.962H2.57l2.419-52.226L60.62 11.47zm2.57-3.17L2.721 23.245 0 79.848h63.191V8.301zm83.751 21.133v5.283h11.338v33.359h5.593V34.717h11.339v-5.283h-28.27z" fill="#000"/><path d="M32.049 63.246c-5.14 0-8.466-2.264-9.675-6.642l-.302-1.207-4.838 2.868.302.754c1.965 6.038 7.559 9.66 14.664 9.66 3.93 0 7.105-1.056 9.675-3.018 2.57-2.113 3.78-4.83 3.78-8.302 0-1.811-.605-3.774-1.36-5.132-.757-1.51-2.722-2.868-3.78-3.472-.605-.453-1.36-.755-2.721-1.207-1.21-.453-1.966-.755-2.57-.906l-2.873-1.057c-2.72-.905-4.837-1.811-6.047-2.717-1.058-.754-1.511-1.811-1.511-3.32 0-3.472 2.57-5.434 6.651-5.434 3.93 0 6.652 1.811 8.164 5.585l.453 1.056 4.838-2.717-.303-.755c-2.418-5.283-7.256-8.603-13-8.603-3.477 0-6.35 1.056-8.617 3.019-2.42 1.962-3.629 4.679-3.629 8.15 0 3.472 1.512 6.34 4.687 8.151 1.21.755 3.78 1.812 7.86 3.17 3.175 1.057 5.443 1.962 6.653 2.868 1.209.755 1.663 1.962 1.663 3.623-.303 3.471-3.175 5.585-8.164 5.585zm75.285-21.586c2.267-1.963 3.477-4.68 3.477-8 0-3.02-1.059-5.736-3.175-7.85-2.117-2.264-4.686-3.32-7.71-3.32H84.204v40.15h16.931c3.024 0 5.745-1.207 7.862-3.471 2.116-2.264 3.325-4.981 3.325-8.151 0-3.925-1.965-7.396-4.988-9.358zm-17.537 3.32h11.338c1.512 0 2.722.604 3.931 1.812 1.058 1.207 1.663 2.566 1.663 4.226 0 1.811-.605 3.17-1.663 4.377-1.058 1.208-2.268 1.66-3.931 1.66H89.797V44.98zm0-5.585v-11.32h10.129c1.361 0 2.57.453 3.628 1.66 1.058 1.208 1.512 2.415 1.512 4.075 0 1.66-.454 2.868-1.512 4.076-1.058 1.057-2.267 1.66-3.628 1.66H89.797v-.15z" fill="#000"/></svg>