<svg width="375" height="395" fill="none" xmlns="http://www.w3.org/2000/svg"><g clip-path="url(#clip0)" fill="#EEE"><path d="M2.19 4.386c1.233 0 2.191-.96 2.191-2.193A2.164 2.164 0 002.191 0C.958 0 0 .96 0 2.193s.958 2.193 2.19 2.193zm19.442 0c1.232 0 2.19-.96 2.19-2.193A2.164 2.164 0 0021.633 0c-1.232 0-2.19.96-2.19 2.193.136 1.233 1.095 2.193 2.19 2.193zm19.578 0c1.233 0 2.19-.96 2.19-2.193A2.164 2.164 0 0041.21 0c-1.232 0-2.19.96-2.19 2.193s.958 2.193 2.19 2.193zm19.442 0c1.232 0 2.19-.96 2.19-2.193A2.164 2.164 0 0060.652 0c-1.233 0-2.19.96-2.19 2.193.136 1.233 1.094 2.193 2.19 2.193zm19.578 0c1.232 0 2.19-.96 2.19-2.193A2.164 2.164 0 0080.23 0c-1.232 0-2.19.96-2.19 2.193s.958 2.193 2.19 2.193zm19.441 0c1.233 0 2.191-.96 2.191-2.193A2.163 2.163 0 0099.672 0c-1.233 0-2.191.96-2.191 2.193.137 1.233 1.095 2.193 2.19 2.193zm19.579 0c1.232 0 2.19-.96 2.19-2.193A2.163 2.163 0 00119.25 0c-1.232 0-2.191.96-2.191 2.193s.959 2.193 2.191 2.193zm19.441 0c1.232 0 2.191-.96 2.191-2.193A2.164 2.164 0 00138.691 0c-1.232 0-2.191.96-2.191 2.193.137 1.233 1.096 2.193 2.191 2.193zm19.578 0c1.233 0 2.191-.96 2.191-2.193A2.164 2.164 0 00158.269 0c-1.232 0-2.19.96-2.19 2.193s.958 2.193 2.19 2.193zm19.442 0c1.232 0 2.19-.96 2.19-2.193A2.163 2.163 0 00177.711 0c-1.232 0-2.191.96-2.191 2.193.137 1.233 1.096 2.193 2.191 2.193zm19.578 0c1.232 0 2.191-.96 2.191-2.193A2.164 2.164 0 00197.289 0c-1.232 0-2.19.96-2.19 2.193s.958 2.193 2.19 2.193zm19.442 0c1.232 0 2.19-.96 2.19-2.193A2.163 2.163 0 00216.731 0c-1.233 0-2.191.96-2.191 2.193.137 1.233 1.095 2.193 2.191 2.193zm19.578 0c1.232 0 2.19-.96 2.19-2.193A2.163 2.163 0 00236.309 0c-1.232 0-2.191.96-2.191 2.193s.959 2.193 2.191 2.193zm19.441 0c1.232 0 2.191-.96 2.191-2.193A2.164 2.164 0 00255.75 0c-1.232 0-2.19.96-2.19 2.193.137 1.233 1.095 2.193 2.19 2.193zm19.579 0c1.232 0 2.19-.96 2.19-2.193A2.163 2.163 0 00275.329 0c-1.233 0-2.191.96-2.191 2.193s.958 2.193 2.191 2.193zm19.441 0c1.232 0 2.191-.96 2.191-2.193A2.164 2.164 0 00294.77 0c-1.232 0-2.191.96-2.191 2.193.137 1.233 1.096 2.193 2.191 2.193zm19.578 0c1.233 0 2.191-.96 2.191-2.193A2.164 2.164 0 00314.348 0c-1.232 0-2.19.96-2.19 2.193s.958 2.193 2.19 2.193zm19.579 0c1.232 0 2.19-.96 2.19-2.193A2.163 2.163 0 00333.927 0c-1.233 0-2.191.96-2.191 2.193s.958 2.193 2.191 2.193zm19.441 0c1.232 0 2.191-.96 2.191-2.193A2.164 2.164 0 00353.368 0c-1.232 0-2.191.96-2.191 2.193s.959 2.193 2.191 2.193zm19.578 0c1.233 0 2.191-.96 2.191-2.193A2.164 2.164 0 00372.946 0c-1.232 0-2.19.96-2.19 2.193s.958 2.193 2.19 2.193zM2.19 43.447a2.163 2.163 0 002.191-2.193 2.164 2.164 0 00-2.19-2.192A2.163 2.163 0 000 41.254c0 1.234.958 2.193 2.19 2.193zm19.442 0c1.232 0 2.19-.959 2.19-2.193a2.164 2.164 0 00-2.19-2.192c-1.232 0-2.19.959-2.19 2.192.136 1.234 1.095 2.193 2.19 2.193zm19.578 0c1.233 0 2.19-.959 2.19-2.193a2.164 2.164 0 00-2.19-2.192c-1.232 0-2.19.959-2.19 2.192 0 1.234.958 2.193 2.19 2.193zm19.442 0c1.232 0 2.19-.959 2.19-2.193a2.164 2.164 0 00-2.19-2.192c-1.233 0-2.19.959-2.19 2.192.136 1.234 1.094 2.193 2.19 2.193zm19.578 0c1.232 0 2.19-.959 2.19-2.193a2.164 2.164 0 00-2.19-2.192c-1.232 0-2.19.959-2.19 2.192 0 1.234.958 2.193 2.19 2.193zm19.441 0a2.163 2.163 0 002.191-2.193 2.163 2.163 0 00-2.19-2.192 2.163 2.163 0 00-2.191 2.192c.137 1.234 1.095 2.193 2.19 2.193zm19.579 0c1.232 0 2.19-.959 2.19-2.193a2.163 2.163 0 00-2.19-2.192 2.164 2.164 0 00-2.191 2.192c0 1.234.959 2.193 2.191 2.193zm19.441 0a2.164 2.164 0 002.191-2.193 2.164 2.164 0 00-2.191-2.192 2.164 2.164 0 00-2.191 2.192c.137 1.234 1.096 2.193 2.191 2.193zm19.578 0a2.163 2.163 0 002.191-2.193 2.164 2.164 0 00-2.191-2.192c-1.232 0-2.19.959-2.19 2.192 0 1.234.958 2.193 2.19 2.193zm19.442 0c1.232 0 2.19-.959 2.19-2.193a2.163 2.163 0 00-2.19-2.192 2.164 2.164 0 00-2.191 2.192c.137 1.234 1.096 2.193 2.191 2.193zm19.578 0a2.164 2.164 0 002.191-2.193 2.164 2.164 0 00-2.191-2.192c-1.232 0-2.19.959-2.19 2.192 0 1.234.958 2.193 2.19 2.193zm19.442 0c1.232 0 2.19-.959 2.19-2.193a2.163 2.163 0 00-2.19-2.192 2.163 2.163 0 00-2.191 2.192c.137 1.234 1.095 2.193 2.191 2.193zm19.578 0c1.232 0 2.19-.959 2.19-2.193a2.163 2.163 0 00-2.19-2.192 2.164 2.164 0 00-2.191 2.192c0 1.234.959 2.193 2.191 2.193zm19.441 0a2.164 2.164 0 002.191-2.193 2.164 2.164 0 00-2.191-2.192c-1.232 0-2.19.959-2.19 2.192.137 1.234 1.095 2.193 2.19 2.193zm19.579 0c1.232 0 2.19-.959 2.19-2.193a2.163 2.163 0 00-2.19-2.192 2.163 2.163 0 00-2.191 2.192c0 1.234.958 2.193 2.191 2.193zm19.441 0a2.192 2.192 0 10-.002-4.384 2.192 2.192 0 00.002 4.384zm19.578 0a2.163 2.163 0 002.191-2.193 2.164 2.164 0 00-2.191-2.192c-1.232 0-2.19.959-2.19 2.192 0 1.234.958 2.193 2.19 2.193zm19.579 0c1.232 0 2.19-.959 2.19-2.193a2.163 2.163 0 00-2.19-2.192 2.163 2.163 0 00-2.191 2.192c0 1.234.958 2.193 2.191 2.193zm19.441 0a2.164 2.164 0 002.191-2.193 2.164 2.164 0 00-2.191-2.192 2.164 2.164 0 00-2.191 2.192c0 1.234.959 2.193 2.191 2.193zm19.578 0a2.163 2.163 0 002.191-2.193 2.164 2.164 0 00-2.191-2.192c-1.232 0-2.19.959-2.19 2.192 0 1.234.958 2.193 2.19 2.193zM2.19 82.509c1.233 0 2.191-.96 2.191-2.193a2.164 2.164 0 00-2.19-2.193c-1.233 0-2.191.96-2.191 2.193s.958 2.193 2.19 2.193zm19.442 0c1.232 0 2.19-.96 2.19-2.193a2.164 2.164 0 00-2.19-2.193c-1.232 0-2.19.96-2.19 2.193.136 1.233 1.095 2.193 2.19 2.193zm19.578 0c1.233 0 2.19-.96 2.19-2.193a2.164 2.164 0 00-2.19-2.193c-1.232 0-2.19.96-2.19 2.193s.958 2.193 2.19 2.193zm19.442 0c1.232 0 2.19-.96 2.19-2.193a2.164 2.164 0 00-2.19-2.193c-1.233 0-2.19.96-2.19 2.193.136 1.233 1.094 2.193 2.19 2.193zm19.578 0c1.232 0 2.19-.96 2.19-2.193a2.164 2.164 0 00-2.19-2.193c-1.232 0-2.19.96-2.19 2.193s.958 2.193 2.19 2.193zm19.441 0c1.233 0 2.191-.96 2.191-2.193a2.163 2.163 0 00-2.19-2.193c-1.233 0-2.191.96-2.191 2.193.137 1.233 1.095 2.193 2.19 2.193zm19.579 0c1.232 0 2.19-.96 2.19-2.193a2.163 2.163 0 00-2.19-2.193c-1.232 0-2.191.96-2.191 2.193s.959 2.193 2.191 2.193zm19.441 0c1.232 0 2.191-.96 2.191-2.193a2.164 2.164 0 00-2.191-2.193c-1.232 0-2.191.96-2.191 2.193.137 1.233 1.096 2.193 2.191 2.193zm19.578 0c1.233 0 2.191-.96 2.191-2.193a2.164 2.164 0 00-2.191-2.193c-1.232 0-2.19.96-2.19 2.193s.958 2.193 2.19 2.193zm19.442 0c1.232 0 2.19-.96 2.19-2.193a2.163 2.163 0 00-2.19-2.193c-1.232 0-2.191.96-2.191 2.193.137 1.233 1.096 2.193 2.191 2.193zm19.578 0c1.232 0 2.191-.96 2.191-2.193a2.164 2.164 0 00-2.191-2.193c-1.232 0-2.19.96-2.19 2.193s.958 2.193 2.19 2.193zm19.442 0c1.232 0 2.19-.96 2.19-2.193a2.163 2.163 0 00-2.19-2.193c-1.233 0-2.191.96-2.191 2.193.137 1.233 1.095 2.193 2.191 2.193zm19.578 0c1.232 0 2.19-.96 2.19-2.193a2.163 2.163 0 00-2.19-2.193c-1.232 0-2.191.96-2.191 2.193s.959 2.193 2.191 2.193zm19.441 0c1.232 0 2.191-.96 2.191-2.193a2.164 2.164 0 00-2.191-2.193c-1.232 0-2.19.96-2.19 2.193.137 1.233 1.095 2.193 2.19 2.193zm19.579 0c1.232 0 2.19-.96 2.19-2.193a2.163 2.163 0 00-2.19-2.193c-1.233 0-2.191.96-2.191 2.193s.958 2.193 2.191 2.193zm19.441 0c1.232 0 2.191-.96 2.191-2.193a2.164 2.164 0 00-2.191-2.193c-1.232 0-2.191.96-2.191 2.193.137 1.233 1.096 2.193 2.191 2.193zm19.578 0c1.233 0 2.191-.96 2.191-2.193a2.164 2.164 0 00-2.191-2.193c-1.232 0-2.19.96-2.19 2.193s.958 2.193 2.19 2.193zm19.579 0c1.232 0 2.19-.96 2.19-2.193a2.163 2.163 0 00-2.19-2.193c-1.233 0-2.191.96-2.191 2.193s.958 2.193 2.191 2.193zm19.441 0c1.232 0 2.191-.96 2.191-2.193a2.164 2.164 0 00-2.191-2.193c-1.232 0-2.191.96-2.191 2.193s.959 2.193 2.191 2.193zm19.578 0c1.233 0 2.191-.96 2.191-2.193a2.164 2.164 0 00-2.191-2.193c-1.232 0-2.19.96-2.19 2.193s.958 2.193 2.19 2.193zM2.19 121.57a2.163 2.163 0 002.191-2.193 2.164 2.164 0 00-2.19-2.193c-1.233 0-2.191.96-2.191 2.193 0 1.234.958 2.193 2.19 2.193zm19.442 0c1.232 0 2.19-.959 2.19-2.193a2.164 2.164 0 00-2.19-2.193c-1.232 0-2.19.96-2.19 2.193.136 1.234 1.095 2.193 2.19 2.193zm19.578 0c1.233 0 2.19-.959 2.19-2.193a2.164 2.164 0 00-2.19-2.193c-1.232 0-2.19.96-2.19 2.193 0 1.234.958 2.193 2.19 2.193zm19.442 0c1.232 0 2.19-.959 2.19-2.193a2.164 2.164 0 00-2.19-2.193c-1.233 0-2.19.96-2.19 2.193.136 1.234 1.094 2.193 2.19 2.193zm19.578 0c1.232 0 2.19-.959 2.19-2.193a2.164 2.164 0 00-2.19-2.193c-1.232 0-2.19.96-2.19 2.193 0 1.234.958 2.193 2.19 2.193zm19.441 0a2.163 2.163 0 002.191-2.193 2.164 2.164 0 00-2.19-2.193c-1.233 0-2.191.96-2.191 2.193.137 1.234 1.095 2.193 2.19 2.193zm19.579 0c1.232 0 2.19-.959 2.19-2.193a2.164 2.164 0 00-2.19-2.193c-1.232 0-2.191.96-2.191 2.193 0 1.234.959 2.193 2.191 2.193zm19.441 0a2.164 2.164 0 002.191-2.193 2.165 2.165 0 00-2.191-2.193c-1.232 0-2.191.96-2.191 2.193.137 1.234 1.096 2.193 2.191 2.193zm19.578 0a2.163 2.163 0 002.191-2.193 2.164 2.164 0 00-2.191-2.193c-1.232 0-2.19.96-2.19 2.193 0 1.234.958 2.193 2.19 2.193zm19.442 0c1.232 0 2.19-.959 2.19-2.193a2.164 2.164 0 00-2.19-2.193c-1.232 0-2.191.96-2.191 2.193.137 1.234 1.096 2.193 2.191 2.193zm19.578 0a2.164 2.164 0 002.191-2.193 2.165 2.165 0 00-2.191-2.193c-1.232 0-2.19.96-2.19 2.193 0 1.234.958 2.193 2.19 2.193zm19.442 0c1.232 0 2.19-.959 2.19-2.193a2.164 2.164 0 00-2.19-2.193c-1.233 0-2.191.96-2.191 2.193.137 1.234 1.095 2.193 2.191 2.193zm19.578 0c1.232 0 2.19-.959 2.19-2.193a2.164 2.164 0 00-2.19-2.193c-1.232 0-2.191.96-2.191 2.193 0 1.234.959 2.193 2.191 2.193zm19.441 0a2.164 2.164 0 002.191-2.193 2.165 2.165 0 00-2.191-2.193c-1.232 0-2.19.96-2.19 2.193.137 1.234 1.095 2.193 2.19 2.193zm19.579 0c1.232 0 2.19-.959 2.19-2.193a2.164 2.164 0 00-2.19-2.193c-1.233 0-2.191.96-2.191 2.193 0 1.234.958 2.193 2.191 2.193zm19.441 0a2.164 2.164 0 002.191-2.193 2.165 2.165 0 00-2.191-2.193c-1.232 0-2.191.96-2.191 2.193.137 1.234 1.096 2.193 2.191 2.193zm19.578 0a2.163 2.163 0 002.191-2.193 2.164 2.164 0 00-2.191-2.193c-1.232 0-2.19.96-2.19 2.193 0 1.234.958 2.193 2.19 2.193zm19.579 0c1.232 0 2.19-.959 2.19-2.193a2.164 2.164 0 00-2.19-2.193c-1.233 0-2.191.96-2.191 2.193 0 1.234.958 2.193 2.191 2.193zm19.441 0a2.164 2.164 0 002.191-2.193 2.165 2.165 0 00-2.191-2.193c-1.232 0-2.191.96-2.191 2.193 0 1.234.959 2.193 2.191 2.193zm19.578 0a2.163 2.163 0 002.191-2.193 2.164 2.164 0 00-2.191-2.193c-1.232 0-2.19.96-2.19 2.193 0 1.234.958 2.193 2.19 2.193zM2.19 160.631a2.163 2.163 0 002.191-2.192 2.163 2.163 0 00-2.19-2.193A2.163 2.163 0 000 158.439c0 1.233.958 2.192 2.19 2.192zm19.442 0c1.232 0 2.19-.959 2.19-2.192a2.164 2.164 0 00-2.19-2.193c-1.232 0-2.19.959-2.19 2.193.136 1.233 1.095 2.192 2.19 2.192zm19.578 0c1.233 0 2.19-.959 2.19-2.192a2.164 2.164 0 00-2.19-2.193c-1.232 0-2.19.959-2.19 2.193 0 1.233.958 2.192 2.19 2.192zm19.442 0c1.232 0 2.19-.959 2.19-2.192a2.164 2.164 0 00-2.19-2.193c-1.233 0-2.19.959-2.19 2.193.136 1.233 1.094 2.192 2.19 2.192zm19.578 0c1.232 0 2.19-.959 2.19-2.192a2.164 2.164 0 00-2.19-2.193c-1.232 0-2.19.959-2.19 2.193 0 1.233.958 2.192 2.19 2.192zm19.441 0a2.163 2.163 0 002.191-2.192 2.163 2.163 0 00-2.19-2.193 2.163 2.163 0 00-2.191 2.193c.137 1.233 1.095 2.192 2.19 2.192zm19.579 0c1.232 0 2.19-.959 2.19-2.192a2.163 2.163 0 00-2.19-2.193 2.164 2.164 0 00-2.191 2.193c0 1.233.959 2.192 2.191 2.192zm19.441 0a2.164 2.164 0 002.191-2.192 2.164 2.164 0 00-2.191-2.193 2.164 2.164 0 00-2.191 2.193c.137 1.233 1.096 2.192 2.191 2.192zm19.578 0a2.163 2.163 0 002.191-2.192 2.163 2.163 0 00-2.191-2.193c-1.232 0-2.19.959-2.19 2.193 0 1.233.958 2.192 2.19 2.192zm19.442 0c1.232 0 2.19-.959 2.19-2.192a2.163 2.163 0 00-2.19-2.193 2.164 2.164 0 00-2.191 2.193c.137 1.233 1.096 2.192 2.191 2.192zm19.578 0a2.164 2.164 0 002.191-2.192 2.164 2.164 0 00-2.191-2.193c-1.232 0-2.19.959-2.19 2.193 0 1.233.958 2.192 2.19 2.192zm19.442 0c1.232 0 2.19-.959 2.19-2.192a2.163 2.163 0 00-2.19-2.193 2.163 2.163 0 00-2.191 2.193c.137 1.233 1.095 2.192 2.191 2.192zm19.578 0c1.232 0 2.19-.959 2.19-2.192a2.163 2.163 0 00-2.19-2.193 2.164 2.164 0 00-2.191 2.193c0 1.233.959 2.192 2.191 2.192zm19.441 0a2.164 2.164 0 002.191-2.192 2.164 2.164 0 00-2.191-2.193c-1.232 0-2.19.959-2.19 2.193.137 1.233 1.095 2.192 2.19 2.192zm19.579 0c1.232 0 2.19-.959 2.19-2.192a2.163 2.163 0 00-2.19-2.193 2.163 2.163 0 00-2.191 2.193c0 1.233.958 2.192 2.191 2.192zm19.441 0c1.21 0 2.191-.981 2.191-2.192a2.191 2.191 0 10-2.191 2.192zm19.578 0a2.163 2.163 0 002.191-2.192 2.163 2.163 0 00-2.191-2.193c-1.232 0-2.19.959-2.19 2.193 0 1.233.958 2.192 2.19 2.192zm19.579 0c1.232 0 2.19-.959 2.19-2.192a2.163 2.163 0 00-2.19-2.193 2.163 2.163 0 00-2.191 2.193c0 1.233.958 2.192 2.191 2.192zm19.441 0a2.164 2.164 0 002.191-2.192 2.164 2.164 0 00-2.191-2.193 2.164 2.164 0 00-2.191 2.193c0 1.233.959 2.192 2.191 2.192zm19.578 0a2.163 2.163 0 002.191-2.192 2.163 2.163 0 00-2.191-2.193c-1.232 0-2.19.959-2.19 2.193 0 1.233.958 2.192 2.19 2.192zM2.19 199.693a2.163 2.163 0 002.191-2.193 2.164 2.164 0 00-2.19-2.193c-1.233 0-2.191.96-2.191 2.193 0 1.234.958 2.193 2.19 2.193zm19.442 0c1.232 0 2.19-.959 2.19-2.193a2.164 2.164 0 00-2.19-2.193c-1.232 0-2.19.96-2.19 2.193.136 1.234 1.095 2.193 2.19 2.193zm19.578 0c1.233 0 2.19-.959 2.19-2.193a2.164 2.164 0 00-2.19-2.193c-1.232 0-2.19.96-2.19 2.193 0 1.234.958 2.193 2.19 2.193zm19.442 0c1.232 0 2.19-.959 2.19-2.193a2.164 2.164 0 00-2.19-2.193c-1.233 0-2.19.96-2.19 2.193.136 1.234 1.094 2.193 2.19 2.193zm19.578 0c1.232 0 2.19-.959 2.19-2.193a2.164 2.164 0 00-2.19-2.193c-1.232 0-2.19.96-2.19 2.193 0 1.234.958 2.193 2.19 2.193zm19.441 0a2.163 2.163 0 002.191-2.193 2.164 2.164 0 00-2.19-2.193c-1.233 0-2.191.96-2.191 2.193.137 1.234 1.095 2.193 2.19 2.193zm19.579 0c1.232 0 2.19-.959 2.19-2.193a2.164 2.164 0 00-2.19-2.193c-1.232 0-2.191.96-2.191 2.193 0 1.234.959 2.193 2.191 2.193zm19.441 0a2.164 2.164 0 002.191-2.193 2.165 2.165 0 00-2.191-2.193c-1.232 0-2.191.96-2.191 2.193.137 1.234 1.096 2.193 2.191 2.193zm19.578 0a2.163 2.163 0 002.191-2.193 2.164 2.164 0 00-2.191-2.193c-1.232 0-2.19.96-2.19 2.193 0 1.234.958 2.193 2.19 2.193zm19.442 0c1.232 0 2.19-.959 2.19-2.193a2.164 2.164 0 00-2.19-2.193c-1.232 0-2.191.96-2.191 2.193.137 1.234 1.096 2.193 2.191 2.193zm19.578 0a2.164 2.164 0 002.191-2.193 2.165 2.165 0 00-2.191-2.193c-1.232 0-2.19.96-2.19 2.193 0 1.234.958 2.193 2.19 2.193zm19.442 0c1.232 0 2.19-.959 2.19-2.193a2.164 2.164 0 00-2.19-2.193c-1.233 0-2.191.96-2.191 2.193.137 1.234 1.095 2.193 2.191 2.193zm19.578 0c1.232 0 2.19-.959 2.19-2.193a2.164 2.164 0 00-2.19-2.193c-1.232 0-2.191.96-2.191 2.193 0 1.234.959 2.193 2.191 2.193zm19.441 0a2.164 2.164 0 002.191-2.193 2.165 2.165 0 00-2.191-2.193c-1.232 0-2.19.96-2.19 2.193.137 1.234 1.095 2.193 2.19 2.193zm19.579 0c1.232 0 2.19-.959 2.19-2.193a2.164 2.164 0 00-2.19-2.193c-1.233 0-2.191.96-2.191 2.193 0 1.234.958 2.193 2.191 2.193zm19.441 0a2.164 2.164 0 002.191-2.193 2.165 2.165 0 00-2.191-2.193c-1.232 0-2.191.96-2.191 2.193.137 1.234 1.096 2.193 2.191 2.193zm19.578 0a2.163 2.163 0 002.191-2.193 2.164 2.164 0 00-2.191-2.193c-1.232 0-2.19.96-2.19 2.193 0 1.234.958 2.193 2.19 2.193zm19.579 0c1.232 0 2.19-.959 2.19-2.193a2.164 2.164 0 00-2.19-2.193c-1.233 0-2.191.96-2.191 2.193 0 1.234.958 2.193 2.191 2.193zm19.441 0a2.164 2.164 0 002.191-2.193 2.165 2.165 0 00-2.191-2.193c-1.232 0-2.191.96-2.191 2.193 0 1.234.959 2.193 2.191 2.193zm19.578 0a2.163 2.163 0 002.191-2.193 2.164 2.164 0 00-2.191-2.193c-1.232 0-2.19.96-2.19 2.193 0 1.234.958 2.193 2.19 2.193zM2.19 238.754a2.163 2.163 0 002.191-2.193 2.164 2.164 0 00-2.19-2.193c-1.233 0-2.191.96-2.191 2.193 0 1.234.958 2.193 2.19 2.193zm19.442 0c1.232 0 2.19-.959 2.19-2.193a2.164 2.164 0 00-2.19-2.193c-1.232 0-2.19.96-2.19 2.193.136 1.234 1.095 2.193 2.19 2.193zm19.578 0c1.233 0 2.19-.959 2.19-2.193a2.164 2.164 0 00-2.19-2.193c-1.232 0-2.19.96-2.19 2.193 0 1.234.958 2.193 2.19 2.193zm19.442 0c1.232 0 2.19-.959 2.19-2.193a2.164 2.164 0 00-2.19-2.193c-1.233 0-2.19.96-2.19 2.193.136 1.234 1.094 2.193 2.19 2.193zm19.578 0c1.232 0 2.19-.959 2.19-2.193a2.164 2.164 0 00-2.19-2.193c-1.232 0-2.19.96-2.19 2.193 0 1.234.958 2.193 2.19 2.193zm19.441 0a2.163 2.163 0 002.191-2.193 2.164 2.164 0 00-2.19-2.193c-1.233 0-2.191.96-2.191 2.193.137 1.234 1.095 2.193 2.19 2.193zm19.579 0c1.232 0 2.19-.959 2.19-2.193a2.164 2.164 0 00-2.19-2.193c-1.232 0-2.191.96-2.191 2.193 0 1.234.959 2.193 2.191 2.193zm19.441 0a2.164 2.164 0 002.191-2.193 2.165 2.165 0 00-2.191-2.193c-1.232 0-2.191.96-2.191 2.193.137 1.234 1.096 2.193 2.191 2.193zm19.578 0a2.163 2.163 0 002.191-2.193 2.164 2.164 0 00-2.191-2.193c-1.232 0-2.19.96-2.19 2.193 0 1.234.958 2.193 2.19 2.193zm19.442 0c1.232 0 2.19-.959 2.19-2.193a2.164 2.164 0 00-2.19-2.193c-1.232 0-2.191.96-2.191 2.193.137 1.234 1.096 2.193 2.191 2.193zm19.578 0a2.164 2.164 0 002.191-2.193 2.165 2.165 0 00-2.191-2.193c-1.232 0-2.19.96-2.19 2.193 0 1.234.958 2.193 2.19 2.193zm19.442 0c1.232 0 2.19-.959 2.19-2.193a2.164 2.164 0 00-2.19-2.193c-1.233 0-2.191.96-2.191 2.193.137 1.234 1.095 2.193 2.191 2.193zm19.578 0c1.232 0 2.19-.959 2.19-2.193a2.164 2.164 0 00-2.19-2.193c-1.232 0-2.191.96-2.191 2.193 0 1.234.959 2.193 2.191 2.193zm19.441 0a2.164 2.164 0 002.191-2.193 2.165 2.165 0 00-2.191-2.193c-1.232 0-2.19.96-2.19 2.193.137 1.234 1.095 2.193 2.19 2.193zm19.579 0c1.232 0 2.19-.959 2.19-2.193a2.164 2.164 0 00-2.19-2.193c-1.233 0-2.191.96-2.191 2.193 0 1.234.958 2.193 2.191 2.193zm19.441 0a2.164 2.164 0 002.191-2.193 2.165 2.165 0 00-2.191-2.193c-1.232 0-2.191.96-2.191 2.193.137 1.234 1.096 2.193 2.191 2.193zm19.578 0a2.163 2.163 0 002.191-2.193 2.164 2.164 0 00-2.191-2.193c-1.232 0-2.19.96-2.19 2.193 0 1.234.958 2.193 2.19 2.193zm19.579 0c1.232 0 2.19-.959 2.19-2.193a2.164 2.164 0 00-2.19-2.193c-1.233 0-2.191.96-2.191 2.193 0 1.234.958 2.193 2.191 2.193zm19.441 0a2.164 2.164 0 002.191-2.193 2.165 2.165 0 00-2.191-2.193c-1.232 0-2.191.96-2.191 2.193 0 1.234.959 2.193 2.191 2.193zm19.578 0a2.163 2.163 0 002.191-2.193 2.164 2.164 0 00-2.191-2.193c-1.232 0-2.19.96-2.19 2.193 0 1.234.958 2.193 2.19 2.193zM2.19 277.816c1.233 0 2.191-.96 2.191-2.193a2.163 2.163 0 00-2.19-2.193A2.163 2.163 0 000 275.623c0 1.233.958 2.193 2.19 2.193zm19.442 0c1.232 0 2.19-.96 2.19-2.193a2.164 2.164 0 00-2.19-2.193c-1.232 0-2.19.959-2.19 2.193.136 1.233 1.095 2.193 2.19 2.193zm19.578 0c1.233 0 2.19-.96 2.19-2.193a2.164 2.164 0 00-2.19-2.193c-1.232 0-2.19.959-2.19 2.193 0 1.233.958 2.193 2.19 2.193zm19.442 0c1.232 0 2.19-.96 2.19-2.193a2.164 2.164 0 00-2.19-2.193c-1.233 0-2.19.959-2.19 2.193.136 1.233 1.094 2.193 2.19 2.193zm19.578 0c1.232 0 2.19-.96 2.19-2.193a2.164 2.164 0 00-2.19-2.193c-1.232 0-2.19.959-2.19 2.193 0 1.233.958 2.193 2.19 2.193zm19.441 0c1.233 0 2.191-.96 2.191-2.193a2.163 2.163 0 00-2.19-2.193 2.163 2.163 0 00-2.191 2.193c.137 1.233 1.095 2.193 2.19 2.193zm19.579 0c1.232 0 2.19-.96 2.19-2.193a2.163 2.163 0 00-2.19-2.193 2.164 2.164 0 00-2.191 2.193c0 1.233.959 2.193 2.191 2.193zm19.441 0c1.232 0 2.191-.96 2.191-2.193a2.164 2.164 0 00-2.191-2.193 2.164 2.164 0 00-2.191 2.193c.137 1.233 1.096 2.193 2.191 2.193zm19.578 0c1.233 0 2.191-.96 2.191-2.193a2.163 2.163 0 00-2.191-2.193c-1.232 0-2.19.959-2.19 2.193 0 1.233.958 2.193 2.19 2.193zm19.442 0c1.232 0 2.19-.96 2.19-2.193a2.163 2.163 0 00-2.19-2.193 2.164 2.164 0 00-2.191 2.193c.137 1.233 1.096 2.193 2.191 2.193zm19.578 0c1.232 0 2.191-.96 2.191-2.193a2.164 2.164 0 00-2.191-2.193c-1.232 0-2.19.959-2.19 2.193 0 1.233.958 2.193 2.19 2.193zm19.442 0c1.232 0 2.19-.96 2.19-2.193a2.163 2.163 0 00-2.19-2.193 2.163 2.163 0 00-2.191 2.193c.137 1.233 1.095 2.193 2.191 2.193zm19.578 0c1.232 0 2.19-.96 2.19-2.193a2.163 2.163 0 00-2.19-2.193 2.164 2.164 0 00-2.191 2.193c0 1.233.959 2.193 2.191 2.193zm19.441 0c1.232 0 2.191-.96 2.191-2.193a2.164 2.164 0 00-2.191-2.193c-1.232 0-2.19.959-2.19 2.193.137 1.233 1.095 2.193 2.19 2.193zm19.579 0c1.232 0 2.19-.96 2.19-2.193a2.163 2.163 0 00-2.19-2.193 2.163 2.163 0 00-2.191 2.193c0 1.233.958 2.193 2.191 2.193zm19.441 0c1.232 0 2.191-.96 2.191-2.193a2.164 2.164 0 00-2.191-2.193 2.164 2.164 0 00-2.191 2.193c.137 1.233 1.096 2.193 2.191 2.193zm19.578 0c1.233 0 2.191-.96 2.191-2.193a2.163 2.163 0 00-2.191-2.193c-1.232 0-2.19.959-2.19 2.193 0 1.233.958 2.193 2.19 2.193zm19.579 0c1.232 0 2.19-.96 2.19-2.193a2.163 2.163 0 00-2.19-2.193 2.163 2.163 0 00-2.191 2.193c0 1.233.958 2.193 2.191 2.193zm19.441 0c1.232 0 2.191-.96 2.191-2.193a2.164 2.164 0 00-2.191-2.193 2.164 2.164 0 00-2.191 2.193c0 1.233.959 2.193 2.191 2.193zm19.578 0c1.233 0 2.191-.96 2.191-2.193a2.163 2.163 0 00-2.191-2.193c-1.232 0-2.19.959-2.19 2.193 0 1.233.958 2.193 2.19 2.193zM2.19 316.877a2.163 2.163 0 002.191-2.193 2.164 2.164 0 00-2.19-2.193c-1.233 0-2.191.96-2.191 2.193 0 1.234.958 2.193 2.19 2.193zm19.442 0c1.232 0 2.19-.959 2.19-2.193a2.164 2.164 0 00-2.19-2.193c-1.232 0-2.19.96-2.19 2.193.136 1.234 1.095 2.193 2.19 2.193zm19.578 0c1.233 0 2.19-.959 2.19-2.193a2.164 2.164 0 00-2.19-2.193c-1.232 0-2.19.96-2.19 2.193 0 1.234.958 2.193 2.19 2.193zm19.442 0c1.232 0 2.19-.959 2.19-2.193a2.164 2.164 0 00-2.19-2.193c-1.233 0-2.19.96-2.19 2.193.136 1.234 1.094 2.193 2.19 2.193zm19.578 0c1.232 0 2.19-.959 2.19-2.193a2.164 2.164 0 00-2.19-2.193c-1.232 0-2.19.96-2.19 2.193 0 1.234.958 2.193 2.19 2.193zm19.441 0a2.163 2.163 0 002.191-2.193 2.164 2.164 0 00-2.19-2.193c-1.233 0-2.191.96-2.191 2.193.137 1.234 1.095 2.193 2.19 2.193zm19.579 0c1.232 0 2.19-.959 2.19-2.193a2.164 2.164 0 00-2.19-2.193c-1.232 0-2.191.96-2.191 2.193 0 1.234.959 2.193 2.191 2.193zm19.441 0a2.164 2.164 0 002.191-2.193 2.165 2.165 0 00-2.191-2.193c-1.232 0-2.191.96-2.191 2.193.137 1.234 1.096 2.193 2.191 2.193zm19.578 0a2.163 2.163 0 002.191-2.193 2.164 2.164 0 00-2.191-2.193c-1.232 0-2.19.96-2.19 2.193 0 1.234.958 2.193 2.19 2.193zm19.442 0c1.232 0 2.19-.959 2.19-2.193a2.164 2.164 0 00-2.19-2.193c-1.232 0-2.191.96-2.191 2.193.137 1.234 1.096 2.193 2.191 2.193zm19.578 0a2.164 2.164 0 002.191-2.193 2.165 2.165 0 00-2.191-2.193c-1.232 0-2.19.96-2.19 2.193 0 1.234.958 2.193 2.19 2.193zm19.442 0c1.232 0 2.19-.959 2.19-2.193a2.164 2.164 0 00-2.19-2.193c-1.233 0-2.191.96-2.191 2.193.137 1.234 1.095 2.193 2.191 2.193zm19.578 0c1.232 0 2.19-.959 2.19-2.193a2.164 2.164 0 00-2.19-2.193c-1.232 0-2.191.96-2.191 2.193 0 1.234.959 2.193 2.191 2.193zm19.441 0a2.164 2.164 0 002.191-2.193 2.165 2.165 0 00-2.191-2.193c-1.232 0-2.19.96-2.19 2.193.137 1.234 1.095 2.193 2.19 2.193zm19.579 0c1.232 0 2.19-.959 2.19-2.193a2.164 2.164 0 00-2.19-2.193c-1.233 0-2.191.96-2.191 2.193 0 1.234.958 2.193 2.191 2.193zm19.441 0a2.164 2.164 0 002.191-2.193 2.165 2.165 0 00-2.191-2.193c-1.232 0-2.191.96-2.191 2.193.137 1.234 1.096 2.193 2.191 2.193zm19.578 0a2.163 2.163 0 002.191-2.193 2.164 2.164 0 00-2.191-2.193c-1.232 0-2.19.96-2.19 2.193 0 1.234.958 2.193 2.19 2.193zm19.579 0c1.232 0 2.19-.959 2.19-2.193a2.164 2.164 0 00-2.19-2.193c-1.233 0-2.191.96-2.191 2.193 0 1.234.958 2.193 2.191 2.193zm19.441 0a2.164 2.164 0 002.191-2.193 2.165 2.165 0 00-2.191-2.193c-1.232 0-2.191.96-2.191 2.193 0 1.234.959 2.193 2.191 2.193zm19.578 0a2.163 2.163 0 002.191-2.193 2.164 2.164 0 00-2.191-2.193c-1.232 0-2.19.96-2.19 2.193 0 1.234.958 2.193 2.19 2.193zM2.19 355.939c1.233 0 2.191-.96 2.191-2.193a2.163 2.163 0 00-2.19-2.193A2.163 2.163 0 000 353.746c0 1.233.958 2.193 2.19 2.193zm19.442 0c1.232 0 2.19-.96 2.19-2.193a2.164 2.164 0 00-2.19-2.193c-1.232 0-2.19.959-2.19 2.193.136 1.233 1.095 2.193 2.19 2.193zm19.578 0c1.233 0 2.19-.96 2.19-2.193a2.164 2.164 0 00-2.19-2.193c-1.232 0-2.19.959-2.19 2.193 0 1.233.958 2.193 2.19 2.193zm19.442 0c1.232 0 2.19-.96 2.19-2.193a2.164 2.164 0 00-2.19-2.193c-1.233 0-2.19.959-2.19 2.193.136 1.233 1.094 2.193 2.19 2.193zm19.578 0c1.232 0 2.19-.96 2.19-2.193a2.164 2.164 0 00-2.19-2.193c-1.232 0-2.19.959-2.19 2.193 0 1.233.958 2.193 2.19 2.193zm19.441 0c1.233 0 2.191-.96 2.191-2.193a2.163 2.163 0 00-2.19-2.193 2.163 2.163 0 00-2.191 2.193c.137 1.233 1.095 2.193 2.19 2.193zm19.579 0c1.232 0 2.19-.96 2.19-2.193a2.163 2.163 0 00-2.19-2.193 2.164 2.164 0 00-2.191 2.193c0 1.233.959 2.193 2.191 2.193zm19.441 0c1.232 0 2.191-.96 2.191-2.193a2.164 2.164 0 00-2.191-2.193 2.164 2.164 0 00-2.191 2.193c.137 1.233 1.096 2.193 2.191 2.193zm19.578 0c1.233 0 2.191-.96 2.191-2.193a2.163 2.163 0 00-2.191-2.193c-1.232 0-2.19.959-2.19 2.193 0 1.233.958 2.193 2.19 2.193zm19.442 0c1.232 0 2.19-.96 2.19-2.193a2.163 2.163 0 00-2.19-2.193 2.164 2.164 0 00-2.191 2.193c.137 1.233 1.096 2.193 2.191 2.193zm19.578 0c1.232 0 2.191-.96 2.191-2.193a2.164 2.164 0 00-2.191-2.193c-1.232 0-2.19.959-2.19 2.193 0 1.233.958 2.193 2.19 2.193zm19.442 0c1.232 0 2.19-.96 2.19-2.193a2.163 2.163 0 00-2.19-2.193 2.163 2.163 0 00-2.191 2.193c.137 1.233 1.095 2.193 2.191 2.193zm19.578 0c1.232 0 2.19-.96 2.19-2.193a2.163 2.163 0 00-2.19-2.193 2.164 2.164 0 00-2.191 2.193c0 1.233.959 2.193 2.191 2.193zm19.441 0c1.232 0 2.191-.96 2.191-2.193a2.164 2.164 0 00-2.191-2.193c-1.232 0-2.19.959-2.19 2.193.137 1.233 1.095 2.193 2.19 2.193zm19.579 0c1.232 0 2.19-.96 2.19-2.193a2.163 2.163 0 00-2.19-2.193 2.163 2.163 0 00-2.191 2.193c0 1.233.958 2.193 2.191 2.193zm19.441 0a2.192 2.192 0 10-.002-4.384 2.192 2.192 0 00.002 4.384zm19.578 0c1.233 0 2.191-.96 2.191-2.193a2.163 2.163 0 00-2.191-2.193c-1.232 0-2.19.959-2.19 2.193 0 1.233.958 2.193 2.19 2.193zm19.579 0c1.232 0 2.19-.96 2.19-2.193a2.163 2.163 0 00-2.19-2.193 2.163 2.163 0 00-2.191 2.193c0 1.233.958 2.193 2.191 2.193zm19.441 0c1.232 0 2.191-.96 2.191-2.193a2.164 2.164 0 00-2.191-2.193 2.164 2.164 0 00-2.191 2.193c0 1.233.959 2.193 2.191 2.193zm19.578 0c1.233 0 2.191-.96 2.191-2.193a2.163 2.163 0 00-2.191-2.193c-1.232 0-2.19.959-2.19 2.193 0 1.233.958 2.193 2.19 2.193zM2.19 23.848c1.233 0 2.191-.96 2.191-2.193a2.164 2.164 0 00-2.19-2.193C.958 19.6 0 20.56 0 21.655c0 1.234.958 2.193 2.19 2.193zm19.442 0c1.232 0 2.19-.96 2.19-2.193a2.164 2.164 0 00-2.19-2.193c-1.232 0-2.19.96-2.19 2.193.136 1.234 1.095 2.193 2.19 2.193zm19.578 0c1.233 0 2.19-.96 2.19-2.193a2.164 2.164 0 00-2.19-2.193c-1.232 0-2.19.96-2.19 2.193 0 1.234.958 2.193 2.19 2.193zm19.442 0c1.232 0 2.19-.96 2.19-2.193a2.164 2.164 0 00-2.19-2.193c-1.233 0-2.19.96-2.19 2.193.136 1.234 1.094 2.193 2.19 2.193zm19.578 0c1.232 0 2.19-.96 2.19-2.193a2.164 2.164 0 00-2.19-2.193c-1.232 0-2.19.96-2.19 2.193 0 1.234.958 2.193 2.19 2.193zm19.441 0c1.233 0 2.191-.96 2.191-2.193a2.163 2.163 0 00-2.19-2.193c-1.233 0-2.191.96-2.191 2.193.137 1.234 1.095 2.193 2.19 2.193zm19.579 0c1.232 0 2.19-.96 2.19-2.193a2.163 2.163 0 00-2.19-2.193c-1.232 0-2.191.96-2.191 2.193 0 1.234.959 2.193 2.191 2.193zm19.441 0c1.232 0 2.191-.96 2.191-2.193a2.164 2.164 0 00-2.191-2.193c-1.232 0-2.191.96-2.191 2.193.137 1.234 1.096 2.193 2.191 2.193zm19.578 0c1.233 0 2.191-.96 2.191-2.193a2.164 2.164 0 00-2.191-2.193c-1.232 0-2.19.96-2.19 2.193 0 1.234.958 2.193 2.19 2.193zm19.442 0c1.232 0 2.19-.96 2.19-2.193a2.163 2.163 0 00-2.19-2.193c-1.232 0-2.191.96-2.191 2.193.137 1.234 1.096 2.193 2.191 2.193zm19.578 0c1.232 0 2.191-.96 2.191-2.193a2.164 2.164 0 00-2.191-2.193c-1.232 0-2.19.96-2.19 2.193 0 1.234.958 2.193 2.19 2.193zm19.442 0c1.232 0 2.19-.96 2.19-2.193a2.163 2.163 0 00-2.19-2.193c-1.233 0-2.191.96-2.191 2.193.137 1.234 1.095 2.193 2.191 2.193zm19.578 0c1.232 0 2.19-.96 2.19-2.193a2.163 2.163 0 00-2.19-2.193c-1.232 0-2.191.96-2.191 2.193 0 1.234.959 2.193 2.191 2.193zm19.441 0c1.232 0 2.191-.96 2.191-2.193a2.164 2.164 0 00-2.191-2.193c-1.232 0-2.19.96-2.19 2.193.137 1.234 1.095 2.193 2.19 2.193zm19.579 0c1.232 0 2.19-.96 2.19-2.193a2.163 2.163 0 00-2.19-2.193c-1.233 0-2.191.96-2.191 2.193 0 1.234.958 2.193 2.191 2.193zm19.441 0c1.232 0 2.191-.96 2.191-2.193a2.164 2.164 0 00-2.191-2.193c-1.232 0-2.191.96-2.191 2.193.137 1.234 1.096 2.193 2.191 2.193zm19.578 0c1.233 0 2.191-.96 2.191-2.193a2.164 2.164 0 00-2.191-2.193c-1.232 0-2.19 1.097-2.19 2.193 0 1.234.958 2.193 2.19 2.193zm19.579 0c1.232 0 2.19-.96 2.19-2.193a2.163 2.163 0 00-2.19-2.193c-1.233 0-2.191.96-2.191 2.193 0 1.234.958 2.193 2.191 2.193zm19.441 0c1.232 0 2.191-.96 2.191-2.193a2.164 2.164 0 00-2.191-2.193c-1.232 0-2.191.96-2.191 2.193 0 1.234.959 2.193 2.191 2.193zm19.578 0c1.233 0 2.191-.96 2.191-2.193a2.164 2.164 0 00-2.191-2.193c-1.232 0-2.19.96-2.19 2.193 0 1.234.958 2.193 2.19 2.193zM2.19 62.91c1.233 0 2.191-.96 2.191-2.193a2.164 2.164 0 00-2.19-2.193c-1.233 0-2.191.96-2.191 2.193s.958 2.193 2.19 2.193zm19.442 0c1.232 0 2.19-.96 2.19-2.193a2.164 2.164 0 00-2.19-2.193c-1.232 0-2.19.96-2.19 2.193.136 1.233 1.095 2.193 2.19 2.193zm19.578 0c1.233 0 2.19-.96 2.19-2.193a2.164 2.164 0 00-2.19-2.193c-1.232 0-2.19.96-2.19 2.193s.958 2.193 2.19 2.193zm19.442 0c1.232 0 2.19-.96 2.19-2.193a2.164 2.164 0 00-2.19-2.193c-1.233 0-2.19.96-2.19 2.193.136 1.233 1.094 2.193 2.19 2.193zm19.578 0c1.232 0 2.19-.96 2.19-2.193a2.164 2.164 0 00-2.19-2.193c-1.232 0-2.19.96-2.19 2.193s.958 2.193 2.19 2.193zm19.441 0c1.233 0 2.191-.96 2.191-2.193a2.163 2.163 0 00-2.19-2.193c-1.233 0-2.191.96-2.191 2.193.137 1.233 1.095 2.193 2.19 2.193zm19.579 0c1.232 0 2.19-.96 2.19-2.193a2.163 2.163 0 00-2.19-2.193c-1.232 0-2.191.96-2.191 2.193s.959 2.193 2.191 2.193zm19.441 0c1.232 0 2.191-.96 2.191-2.193a2.164 2.164 0 00-2.191-2.193c-1.232 0-2.191.96-2.191 2.193.137 1.233 1.096 2.193 2.191 2.193zm19.578 0c1.233 0 2.191-.96 2.191-2.193a2.164 2.164 0 00-2.191-2.193c-1.232 0-2.19.96-2.19 2.193s.958 2.193 2.19 2.193zm19.442 0c1.232 0 2.19-.96 2.19-2.193a2.163 2.163 0 00-2.19-2.193c-1.232 0-2.191.96-2.191 2.193.137 1.233 1.096 2.193 2.191 2.193zm19.578 0c1.232 0 2.191-.96 2.191-2.193a2.164 2.164 0 00-2.191-2.193c-1.232 0-2.19.96-2.19 2.193s.958 2.193 2.19 2.193zm19.442 0c1.232 0 2.19-.96 2.19-2.193a2.163 2.163 0 00-2.19-2.193c-1.233 0-2.191.96-2.191 2.193.137 1.233 1.095 2.193 2.191 2.193zm19.578 0c1.232 0 2.19-.96 2.19-2.193a2.163 2.163 0 00-2.19-2.193c-1.232 0-2.191.96-2.191 2.193s.959 2.193 2.191 2.193zm19.441 0c1.232 0 2.191-.96 2.191-2.193a2.164 2.164 0 00-2.191-2.193c-1.232 0-2.19.96-2.19 2.193.137 1.233 1.095 2.193 2.19 2.193zm19.579 0c1.232 0 2.19-.96 2.19-2.193a2.163 2.163 0 00-2.19-2.193c-1.233 0-2.191.96-2.191 2.193s.958 2.193 2.191 2.193zm19.441 0c1.232 0 2.191-.96 2.191-2.193a2.164 2.164 0 00-2.191-2.193c-1.232 0-2.191.96-2.191 2.193.137 1.233 1.096 2.193 2.191 2.193zm19.578 0c1.233 0 2.191-.96 2.191-2.193a2.164 2.164 0 00-2.191-2.193c-1.232 0-2.19.96-2.19 2.193s.958 2.193 2.19 2.193zm19.579 0c1.232 0 2.19-.96 2.19-2.193a2.163 2.163 0 00-2.19-2.193c-1.233 0-2.191.96-2.191 2.193s.958 2.193 2.191 2.193zm19.441 0c1.232 0 2.191-.96 2.191-2.193a2.164 2.164 0 00-2.191-2.193c-1.232 0-2.191.96-2.191 2.193s.959 2.193 2.191 2.193zm19.578 0c1.233 0 2.191-.96 2.191-2.193a2.164 2.164 0 00-2.191-2.193c-1.232 0-2.19.96-2.19 2.193s.958 2.193 2.19 2.193zM2.19 101.971c1.233 0 2.191-.96 2.191-2.193a2.164 2.164 0 00-2.19-2.193C.958 97.722 0 98.681 0 99.778c0 1.233.958 2.193 2.19 2.193zm19.442 0c1.232 0 2.19-.96 2.19-2.193a2.164 2.164 0 00-2.19-2.193c-1.232 0-2.19.96-2.19 2.193.136 1.233 1.095 2.193 2.19 2.193zm19.578 0c1.233 0 2.19-.96 2.19-2.193a2.164 2.164 0 00-2.19-2.193c-1.232 0-2.19.96-2.19 2.193s.958 2.193 2.19 2.193zm19.442 0c1.232 0 2.19-.96 2.19-2.193a2.164 2.164 0 00-2.19-2.193c-1.233 0-2.19.96-2.19 2.193.136 1.233 1.094 2.193 2.19 2.193zm19.578 0c1.232 0 2.19-.96 2.19-2.193a2.164 2.164 0 00-2.19-2.193c-1.232 0-2.19.96-2.19 2.193s.958 2.193 2.19 2.193zm19.441 0c1.233 0 2.191-.96 2.191-2.193a2.163 2.163 0 00-2.19-2.193c-1.233 0-2.191.96-2.191 2.193.137 1.233 1.095 2.193 2.19 2.193zm19.579 0c1.232 0 2.19-.96 2.19-2.193a2.163 2.163 0 00-2.19-2.193c-1.232 0-2.191.96-2.191 2.193s.959 2.193 2.191 2.193zm19.441 0c1.232 0 2.191-.96 2.191-2.193a2.164 2.164 0 00-2.191-2.193c-1.232 0-2.191.96-2.191 2.193.137 1.233 1.096 2.193 2.191 2.193zm19.578 0c1.233 0 2.191-.96 2.191-2.193a2.164 2.164 0 00-2.191-2.193c-1.232 0-2.19.96-2.19 2.193s.958 2.193 2.19 2.193zm19.442 0c1.232 0 2.19-.96 2.19-2.193a2.163 2.163 0 00-2.19-2.193c-1.232 0-2.191.96-2.191 2.193.137 1.233 1.096 2.193 2.191 2.193zm19.578 0c1.232 0 2.191-.96 2.191-2.193a2.164 2.164 0 00-2.191-2.193c-1.232 0-2.19.96-2.19 2.193s.958 2.193 2.19 2.193zm19.442 0c1.232 0 2.19-.96 2.19-2.193a2.163 2.163 0 00-2.19-2.193c-1.233 0-2.191.96-2.191 2.193.137 1.233 1.095 2.193 2.191 2.193zm19.578 0c1.232 0 2.19-.96 2.19-2.193a2.163 2.163 0 00-2.19-2.193c-1.232 0-2.191.96-2.191 2.193s.959 2.193 2.191 2.193zm21.646-2.074a2.192 2.192 0 10-4.38-.012 2.192 2.192 0 004.38.012zm17.374 2.074c1.232 0 2.19-.96 2.19-2.193a2.163 2.163 0 00-2.19-2.193c-1.233 0-2.191.96-2.191 2.193s.958 2.193 2.191 2.193zm19.441 0c1.232 0 2.191-.96 2.191-2.193a2.164 2.164 0 00-2.191-2.193c-1.232 0-2.191.96-2.191 2.193.137 1.233 1.096 2.193 2.191 2.193zm19.578 0c1.233 0 2.191-.96 2.191-2.193a2.164 2.164 0 00-2.191-2.193c-1.232 0-2.19 1.096-2.19 2.193 0 1.233.958 2.193 2.19 2.193zm19.579 0c1.232 0 2.19-.96 2.19-2.193a2.163 2.163 0 00-2.19-2.193c-1.233 0-2.191.96-2.191 2.193s.958 2.193 2.191 2.193zm19.441 0c1.232 0 2.191-.96 2.191-2.193a2.164 2.164 0 00-2.191-2.193c-1.232 0-2.191.96-2.191 2.193s.959 2.193 2.191 2.193zm19.578 0c1.233 0 2.191-.96 2.191-2.193a2.164 2.164 0 00-2.191-2.193c-1.232 0-2.19.96-2.19 2.193s.958 2.193 2.19 2.193zM2.19 141.032a2.163 2.163 0 002.191-2.193 2.164 2.164 0 00-2.19-2.193c-1.233 0-2.191.96-2.191 2.193 0 1.234.958 2.193 2.19 2.193zm19.442 0c1.232 0 2.19-.959 2.19-2.193a2.164 2.164 0 00-2.19-2.193c-1.232 0-2.19.96-2.19 2.193.136 1.234 1.095 2.193 2.19 2.193zm19.578 0c1.233 0 2.19-.959 2.19-2.193a2.164 2.164 0 00-2.19-2.193c-1.232 0-2.19.96-2.19 2.193 0 1.234.958 2.193 2.19 2.193zm19.442 0c1.232 0 2.19-.959 2.19-2.193a2.164 2.164 0 00-2.19-2.193c-1.233 0-2.19.96-2.19 2.193.136 1.234 1.094 2.193 2.19 2.193zm19.578 0c1.232 0 2.19-.959 2.19-2.193a2.164 2.164 0 00-2.19-2.193c-1.232 0-2.19.96-2.19 2.193 0 1.234.958 2.193 2.19 2.193zm19.441 0a2.163 2.163 0 002.191-2.193 2.164 2.164 0 00-2.19-2.193c-1.233 0-2.191.96-2.191 2.193.137 1.234 1.095 2.193 2.19 2.193zm19.579 0c1.232 0 2.19-.959 2.19-2.193a2.164 2.164 0 00-2.19-2.193c-1.232 0-2.191.96-2.191 2.193 0 1.234.959 2.193 2.191 2.193zm19.441 0a2.164 2.164 0 002.191-2.193 2.165 2.165 0 00-2.191-2.193c-1.232 0-2.191.96-2.191 2.193.137 1.234 1.096 2.193 2.191 2.193zm19.578 0a2.163 2.163 0 002.191-2.193 2.164 2.164 0 00-2.191-2.193c-1.232 0-2.19.96-2.19 2.193 0 1.234.958 2.193 2.19 2.193zm19.442 0c1.232 0 2.19-.959 2.19-2.193a2.164 2.164 0 00-2.19-2.193c-1.232 0-2.191.96-2.191 2.193.137 1.234 1.096 2.193 2.191 2.193zm19.578 0a2.164 2.164 0 002.191-2.193 2.165 2.165 0 00-2.191-2.193c-1.232 0-2.19.96-2.19 2.193 0 1.234.958 2.193 2.19 2.193zm19.442 0c1.232 0 2.19-.959 2.19-2.193a2.164 2.164 0 00-2.19-2.193c-1.233 0-2.191.96-2.191 2.193.137 1.234 1.095 2.193 2.191 2.193zm19.578 0c1.232 0 2.19-.959 2.19-2.193a2.164 2.164 0 00-2.19-2.193c-1.232 0-2.191.96-2.191 2.193 0 1.234.959 2.193 2.191 2.193zm19.441 0a2.164 2.164 0 002.191-2.193 2.165 2.165 0 00-2.191-2.193c-1.232 0-2.19.96-2.19 2.193.137 1.234 1.095 2.193 2.19 2.193zm19.579 0c1.232 0 2.19-.959 2.19-2.193a2.164 2.164 0 00-2.19-2.193c-1.233 0-2.191.96-2.191 2.193 0 1.234.958 2.193 2.191 2.193zm19.441 0a2.164 2.164 0 002.191-2.193 2.165 2.165 0 00-2.191-2.193c-1.232 0-2.191.96-2.191 2.193.137 1.234 1.096 2.193 2.191 2.193zm19.578 0a2.163 2.163 0 002.191-2.193 2.164 2.164 0 00-2.191-2.193c-1.232 0-2.19.96-2.19 2.193 0 1.234.958 2.193 2.19 2.193zm19.579 0c1.232 0 2.19-.959 2.19-2.193a2.164 2.164 0 00-2.19-2.193c-1.233 0-2.191.96-2.191 2.193 0 1.234.958 2.193 2.191 2.193zm19.441 0a2.164 2.164 0 002.191-2.193 2.165 2.165 0 00-2.191-2.193c-1.232 0-2.191.96-2.191 2.193 0 1.234.959 2.193 2.191 2.193zm19.578 0a2.163 2.163 0 002.191-2.193 2.164 2.164 0 00-2.191-2.193c-1.232 0-2.19.96-2.19 2.193 0 1.234.958 2.193 2.19 2.193zM2.19 180.094c1.233 0 2.191-.96 2.191-2.193a2.163 2.163 0 00-2.19-2.193A2.163 2.163 0 000 177.901c0 1.233.958 2.193 2.19 2.193zm19.442 0c1.232 0 2.19-.96 2.19-2.193a2.164 2.164 0 00-2.19-2.193c-1.232 0-2.19.959-2.19 2.193.136 1.233 1.095 2.193 2.19 2.193zm19.578 0c1.233 0 2.19-.96 2.19-2.193a2.164 2.164 0 00-2.19-2.193c-1.232 0-2.19.959-2.19 2.193 0 1.233.958 2.193 2.19 2.193zm19.442 0c1.232 0 2.19-.96 2.19-2.193a2.164 2.164 0 00-2.19-2.193c-1.233 0-2.19.959-2.19 2.193.136 1.233 1.094 2.193 2.19 2.193zm19.578 0c1.232 0 2.19-.96 2.19-2.193a2.164 2.164 0 00-2.19-2.193c-1.232 0-2.19.959-2.19 2.193 0 1.233.958 2.193 2.19 2.193zm19.441 0c1.233 0 2.191-.96 2.191-2.193a2.163 2.163 0 00-2.19-2.193 2.163 2.163 0 00-2.191 2.193c.137 1.233 1.095 2.193 2.19 2.193zm19.579 0c1.232 0 2.19-.96 2.19-2.193a2.163 2.163 0 00-2.19-2.193 2.164 2.164 0 00-2.191 2.193c0 1.233.959 2.193 2.191 2.193zm19.441 0c1.232 0 2.191-.96 2.191-2.193a2.164 2.164 0 00-2.191-2.193 2.164 2.164 0 00-2.191 2.193c.137 1.233 1.096 2.193 2.191 2.193zm19.578 0c1.233 0 2.191-.96 2.191-2.193a2.163 2.163 0 00-2.191-2.193c-1.232 0-2.19.959-2.19 2.193 0 1.233.958 2.193 2.19 2.193zm19.442 0c1.232 0 2.19-.96 2.19-2.193a2.163 2.163 0 00-2.19-2.193 2.164 2.164 0 00-2.191 2.193c.137 1.233 1.096 2.193 2.191 2.193zm19.578 0c1.232 0 2.191-.96 2.191-2.193a2.164 2.164 0 00-2.191-2.193c-1.232 0-2.19.959-2.19 2.193 0 1.233.958 2.193 2.19 2.193zm19.442 0c1.232 0 2.19-.96 2.19-2.193a2.163 2.163 0 00-2.19-2.193 2.163 2.163 0 00-2.191 2.193c.137 1.233 1.095 2.193 2.191 2.193zm19.578 0c1.232 0 2.19-.96 2.19-2.193a2.163 2.163 0 00-2.19-2.193 2.164 2.164 0 00-2.191 2.193c0 1.233.959 2.193 2.191 2.193zm19.441 0c1.232 0 2.191-.96 2.191-2.193a2.164 2.164 0 00-2.191-2.193c-1.232 0-2.19.959-2.19 2.193.137 1.233 1.095 2.193 2.19 2.193zm19.579 0c1.232 0 2.19-.96 2.19-2.193a2.163 2.163 0 00-2.19-2.193 2.163 2.163 0 00-2.191 2.193c0 1.233.958 2.193 2.191 2.193zm19.441 0c1.232 0 2.191-.96 2.191-2.193a2.164 2.164 0 00-2.191-2.193 2.164 2.164 0 00-2.191 2.193c.137 1.233 1.096 2.193 2.191 2.193zm19.578 0c1.233 0 2.191-.96 2.191-2.193a2.163 2.163 0 00-2.191-2.193c-1.232 0-2.19.959-2.19 2.193 0 1.233.958 2.193 2.19 2.193zm19.579 0c1.232 0 2.19-.96 2.19-2.193a2.163 2.163 0 00-2.19-2.193 2.163 2.163 0 00-2.191 2.193c0 1.233.958 2.193 2.191 2.193zm19.441 0c1.232 0 2.191-.96 2.191-2.193a2.164 2.164 0 00-2.191-2.193 2.164 2.164 0 00-2.191 2.193c0 1.233.959 2.193 2.191 2.193zm19.578 0c1.233 0 2.191-.96 2.191-2.193a2.163 2.163 0 00-2.191-2.193c-1.232 0-2.19.959-2.19 2.193 0 1.233.958 2.193 2.19 2.193zM2.19 219.155a2.163 2.163 0 002.191-2.193 2.164 2.164 0 00-2.19-2.193c-1.233 0-2.191.96-2.191 2.193 0 1.234.958 2.193 2.19 2.193zm19.442 0c1.232 0 2.19-.959 2.19-2.193a2.164 2.164 0 00-2.19-2.193c-1.232 0-2.19.96-2.19 2.193.136 1.234 1.095 2.193 2.19 2.193zm19.578 0c1.233 0 2.19-.959 2.19-2.193a2.164 2.164 0 00-2.19-2.193c-1.232 0-2.19.96-2.19 2.193 0 1.234.958 2.193 2.19 2.193zm19.442 0c1.232 0 2.19-.959 2.19-2.193a2.164 2.164 0 00-2.19-2.193c-1.233 0-2.19.96-2.19 2.193.136 1.234 1.094 2.193 2.19 2.193zm19.578 0c1.232 0 2.19-.959 2.19-2.193a2.164 2.164 0 00-2.19-2.193c-1.232 0-2.19.96-2.19 2.193 0 1.234.958 2.193 2.19 2.193zm19.441 0a2.163 2.163 0 002.191-2.193 2.164 2.164 0 00-2.19-2.193c-1.233 0-2.191.96-2.191 2.193.137 1.234 1.095 2.193 2.19 2.193zm19.579 0c1.232 0 2.19-.959 2.19-2.193a2.164 2.164 0 00-2.19-2.193c-1.232 0-2.191.96-2.191 2.193 0 1.234.959 2.193 2.191 2.193zm19.441 0a2.164 2.164 0 002.191-2.193 2.165 2.165 0 00-2.191-2.193c-1.232 0-2.191.96-2.191 2.193.137 1.234 1.096 2.193 2.191 2.193zm19.578 0a2.163 2.163 0 002.191-2.193 2.164 2.164 0 00-2.191-2.193c-1.232 0-2.19.96-2.19 2.193 0 1.234.958 2.193 2.19 2.193zm19.442 0c1.232 0 2.19-.959 2.19-2.193a2.164 2.164 0 00-2.19-2.193c-1.232 0-2.191.96-2.191 2.193.137 1.234 1.096 2.193 2.191 2.193zm19.578 0a2.164 2.164 0 002.191-2.193 2.165 2.165 0 00-2.191-2.193c-1.232 0-2.19.96-2.19 2.193 0 1.234.958 2.193 2.19 2.193zm19.442 0c1.232 0 2.19-.959 2.19-2.193a2.164 2.164 0 00-2.19-2.193c-1.233 0-2.191.96-2.191 2.193.137 1.234 1.095 2.193 2.191 2.193zm19.578 0c1.232 0 2.19-.959 2.19-2.193a2.164 2.164 0 00-2.19-2.193c-1.232 0-2.191.96-2.191 2.193 0 1.234.959 2.193 2.191 2.193zm21.636-2.064a2.191 2.191 0 10-4.381-.011 2.192 2.192 0 002.185 2.199 2.192 2.192 0 002.196-2.188zm17.384 2.064c1.232 0 2.19-.959 2.19-2.193a2.164 2.164 0 00-2.19-2.193c-1.233 0-2.191.96-2.191 2.193 0 1.234.958 2.193 2.191 2.193zm19.441 0a2.164 2.164 0 002.191-2.193 2.165 2.165 0 00-2.191-2.193c-1.232 0-2.191.96-2.191 2.193.137 1.234 1.096 2.193 2.191 2.193zm19.578 0a2.163 2.163 0 002.191-2.193 2.164 2.164 0 00-2.191-2.193c-1.232 0-2.19.96-2.19 2.193 0 1.234.958 2.193 2.19 2.193zm19.579 0c1.232 0 2.19-.959 2.19-2.193a2.164 2.164 0 00-2.19-2.193c-1.233 0-2.191.96-2.191 2.193 0 1.234.958 2.193 2.191 2.193zm19.441 0a2.164 2.164 0 002.191-2.193 2.165 2.165 0 00-2.191-2.193c-1.232 0-2.191.96-2.191 2.193 0 1.234.959 2.193 2.191 2.193zm19.578 0a2.163 2.163 0 002.191-2.193 2.164 2.164 0 00-2.191-2.193c-1.232 0-2.19.96-2.19 2.193 0 1.234.958 2.193 2.19 2.193zM2.19 258.216a2.163 2.163 0 002.191-2.192 2.163 2.163 0 00-2.19-2.193A2.163 2.163 0 000 256.024c0 1.233.958 2.192 2.19 2.192zm19.442 0c1.232 0 2.19-.959 2.19-2.192a2.164 2.164 0 00-2.19-2.193c-1.232 0-2.19.959-2.19 2.193.136 1.233 1.095 2.192 2.19 2.192zm19.578 0c1.233 0 2.19-.959 2.19-2.192a2.164 2.164 0 00-2.19-2.193c-1.232 0-2.19.959-2.19 2.193 0 1.233.958 2.192 2.19 2.192zm19.442 0c1.232 0 2.19-.959 2.19-2.192a2.164 2.164 0 00-2.19-2.193c-1.233 0-2.19.959-2.19 2.193.136 1.233 1.094 2.192 2.19 2.192zm19.578 0c1.232 0 2.19-.959 2.19-2.192a2.164 2.164 0 00-2.19-2.193c-1.232 0-2.19.959-2.19 2.193 0 1.233.958 2.192 2.19 2.192zm19.441 0a2.163 2.163 0 002.191-2.192 2.163 2.163 0 00-2.19-2.193 2.163 2.163 0 00-2.191 2.193c.137 1.233 1.095 2.192 2.19 2.192zm19.579 0c1.232 0 2.19-.959 2.19-2.192a2.163 2.163 0 00-2.19-2.193 2.164 2.164 0 00-2.191 2.193c0 1.233.959 2.192 2.191 2.192zm19.441 0a2.164 2.164 0 002.191-2.192 2.164 2.164 0 00-2.191-2.193 2.164 2.164 0 00-2.191 2.193c.137 1.233 1.096 2.192 2.191 2.192zm19.578 0a2.163 2.163 0 002.191-2.192 2.163 2.163 0 00-2.191-2.193c-1.232 0-2.19.959-2.19 2.193 0 1.233.958 2.192 2.19 2.192zm19.442 0c1.232 0 2.19-.959 2.19-2.192a2.163 2.163 0 00-2.19-2.193 2.164 2.164 0 00-2.191 2.193c.137 1.233 1.096 2.192 2.191 2.192zm19.578 0a2.164 2.164 0 002.191-2.192 2.164 2.164 0 00-2.191-2.193c-1.232 0-2.19.959-2.19 2.193 0 1.233.958 2.192 2.19 2.192zm19.442 0c1.232 0 2.19-.959 2.19-2.192a2.163 2.163 0 00-2.19-2.193 2.163 2.163 0 00-2.191 2.193c.137 1.233 1.095 2.192 2.191 2.192zm19.578 0c1.232 0 2.19-.959 2.19-2.192a2.163 2.163 0 00-2.19-2.193 2.164 2.164 0 00-2.191 2.193c0 1.233.959 2.192 2.191 2.192zm19.441 0a2.164 2.164 0 002.191-2.192 2.164 2.164 0 00-2.191-2.193c-1.232 0-2.19.959-2.19 2.193.137 1.233 1.095 2.192 2.19 2.192zm19.579 0c1.232 0 2.19-.959 2.19-2.192a2.163 2.163 0 00-2.19-2.193 2.163 2.163 0 00-2.191 2.193c0 1.233.958 2.192 2.191 2.192zm19.441 0a2.164 2.164 0 002.191-2.192 2.164 2.164 0 00-2.191-2.193 2.164 2.164 0 00-2.191 2.193c.137 1.233 1.096 2.192 2.191 2.192zm19.578 0a2.163 2.163 0 002.191-2.192 2.163 2.163 0 00-2.191-2.193c-1.232 0-2.19.959-2.19 2.193 0 1.233.958 2.192 2.19 2.192zm19.579 0c1.232 0 2.19-.959 2.19-2.192a2.163 2.163 0 00-2.19-2.193 2.163 2.163 0 00-2.191 2.193c0 1.233.958 2.192 2.191 2.192zm19.441 0a2.164 2.164 0 002.191-2.192 2.164 2.164 0 00-2.191-2.193 2.164 2.164 0 00-2.191 2.193c0 1.233.959 2.192 2.191 2.192zm19.578 0a2.163 2.163 0 002.191-2.192 2.163 2.163 0 00-2.191-2.193c-1.232 0-2.19.959-2.19 2.193 0 1.233.958 2.192 2.19 2.192zM2.19 297.278a2.163 2.163 0 002.191-2.193 2.164 2.164 0 00-2.19-2.193c-1.233 0-2.191.96-2.191 2.193 0 1.234.958 2.193 2.19 2.193zm19.442 0c1.232 0 2.19-.959 2.19-2.193a2.164 2.164 0 00-2.19-2.193c-1.232 0-2.19.96-2.19 2.193.136 1.234 1.095 2.193 2.19 2.193zm19.578 0c1.233 0 2.19-.959 2.19-2.193a2.164 2.164 0 00-2.19-2.193c-1.232 0-2.19.96-2.19 2.193 0 1.234.958 2.193 2.19 2.193zm19.442 0c1.232 0 2.19-.959 2.19-2.193a2.164 2.164 0 00-2.19-2.193c-1.233 0-2.19.96-2.19 2.193.136 1.234 1.094 2.193 2.19 2.193zm19.578 0c1.232 0 2.19-.959 2.19-2.193a2.164 2.164 0 00-2.19-2.193c-1.232 0-2.19.96-2.19 2.193 0 1.234.958 2.193 2.19 2.193zm19.441 0a2.163 2.163 0 002.191-2.193 2.164 2.164 0 00-2.19-2.193c-1.233 0-2.191.96-2.191 2.193.137 1.234 1.095 2.193 2.19 2.193zm19.579 0c1.232 0 2.19-.959 2.19-2.193a2.164 2.164 0 00-2.19-2.193c-1.232 0-2.191.96-2.191 2.193 0 1.234.959 2.193 2.191 2.193zm19.441 0a2.164 2.164 0 002.191-2.193 2.165 2.165 0 00-2.191-2.193c-1.232 0-2.191.96-2.191 2.193.137 1.234 1.096 2.193 2.191 2.193zm19.578 0a2.163 2.163 0 002.191-2.193 2.164 2.164 0 00-2.191-2.193c-1.232 0-2.19.96-2.19 2.193 0 1.234.958 2.193 2.19 2.193zm19.442 0c1.232 0 2.19-.959 2.19-2.193a2.164 2.164 0 00-2.19-2.193c-1.232 0-2.191.96-2.191 2.193.137 1.234 1.096 2.193 2.191 2.193zm19.578 0a2.164 2.164 0 002.191-2.193 2.165 2.165 0 00-2.191-2.193c-1.232 0-2.19.96-2.19 2.193 0 1.234.958 2.193 2.19 2.193zm19.442 0c1.232 0 2.19-.959 2.19-2.193a2.164 2.164 0 00-2.19-2.193c-1.233 0-2.191.96-2.191 2.193.137 1.234 1.095 2.193 2.191 2.193zm19.578 0c1.232 0 2.19-.959 2.19-2.193a2.164 2.164 0 00-2.19-2.193c-1.232 0-2.191.96-2.191 2.193 0 1.234.959 2.193 2.191 2.193zm19.441 0a2.164 2.164 0 002.191-2.193 2.165 2.165 0 00-2.191-2.193c-1.232 0-2.19.96-2.19 2.193.137 1.234 1.095 2.193 2.19 2.193zm19.579 0c1.232 0 2.19-.959 2.19-2.193a2.164 2.164 0 00-2.19-2.193c-1.233 0-2.191.96-2.191 2.193 0 1.234.958 2.193 2.191 2.193zm19.441 0a2.164 2.164 0 002.191-2.193 2.165 2.165 0 00-2.191-2.193c-1.232 0-2.191.96-2.191 2.193.137 1.234 1.096 2.193 2.191 2.193zm19.578 0a2.163 2.163 0 002.191-2.193 2.164 2.164 0 00-2.191-2.193c-1.232 0-2.19.96-2.19 2.193 0 1.234.958 2.193 2.19 2.193zm19.579 0c1.232 0 2.19-.959 2.19-2.193a2.164 2.164 0 00-2.19-2.193c-1.233 0-2.191.96-2.191 2.193 0 1.234.958 2.193 2.191 2.193zm19.441 0a2.164 2.164 0 002.191-2.193 2.165 2.165 0 00-2.191-2.193c-1.232 0-2.191.96-2.191 2.193 0 1.234.959 2.193 2.191 2.193zm19.578 0a2.163 2.163 0 002.191-2.193 2.164 2.164 0 00-2.191-2.193c-1.232 0-2.19.96-2.19 2.193 0 1.234.958 2.193 2.19 2.193zM2.19 336.339a2.163 2.163 0 002.191-2.193 2.164 2.164 0 00-2.19-2.193c-1.233 0-2.191.96-2.191 2.193 0 1.234.958 2.193 2.19 2.193zm19.442 0c1.232 0 2.19-.959 2.19-2.193a2.164 2.164 0 00-2.19-2.193c-1.232 0-2.19.96-2.19 2.193.136 1.234 1.095 2.193 2.19 2.193zm19.578 0c1.233 0 2.19-.959 2.19-2.193a2.164 2.164 0 00-2.19-2.193c-1.232 0-2.19.96-2.19 2.193 0 1.234.958 2.193 2.19 2.193zm19.442 0c1.232 0 2.19-.959 2.19-2.193a2.164 2.164 0 00-2.19-2.193c-1.233 0-2.19.96-2.19 2.193.136 1.234 1.094 2.193 2.19 2.193zm19.578 0c1.232 0 2.19-.959 2.19-2.193a2.164 2.164 0 00-2.19-2.193c-1.232 0-2.19.96-2.19 2.193 0 1.234.958 2.193 2.19 2.193zm19.441 0a2.163 2.163 0 002.191-2.193 2.164 2.164 0 00-2.19-2.193c-1.233 0-2.191.96-2.191 2.193.137 1.234 1.095 2.193 2.19 2.193zm19.579 0c1.232 0 2.19-.959 2.19-2.193a2.164 2.164 0 00-2.19-2.193c-1.232 0-2.191.96-2.191 2.193 0 1.234.959 2.193 2.191 2.193zm19.441 0a2.164 2.164 0 002.191-2.193 2.165 2.165 0 00-2.191-2.193c-1.232 0-2.191.96-2.191 2.193.137 1.234 1.096 2.193 2.191 2.193zm19.578 0a2.163 2.163 0 002.191-2.193 2.164 2.164 0 00-2.191-2.193c-1.232 0-2.19.96-2.19 2.193 0 1.234.958 2.193 2.19 2.193zm19.442 0c1.232 0 2.19-.959 2.19-2.193a2.164 2.164 0 00-2.19-2.193c-1.232 0-2.191.96-2.191 2.193.137 1.234 1.096 2.193 2.191 2.193zm19.578 0a2.164 2.164 0 002.191-2.193 2.165 2.165 0 00-2.191-2.193c-1.232 0-2.19.96-2.19 2.193 0 1.234.958 2.193 2.19 2.193zm19.442 0c1.232 0 2.19-.959 2.19-2.193a2.164 2.164 0 00-2.19-2.193c-1.233 0-2.191.96-2.191 2.193.137 1.234 1.095 2.193 2.191 2.193zm19.578 0c1.232 0 2.19-.959 2.19-2.193a2.164 2.164 0 00-2.19-2.193c-1.232 0-2.191.96-2.191 2.193 0 1.234.959 2.193 2.191 2.193zm19.441 0a2.164 2.164 0 002.191-2.193 2.165 2.165 0 00-2.191-2.193c-1.232 0-2.19.96-2.19 2.193.137 1.234 1.095 2.193 2.19 2.193zm19.579 0c1.232 0 2.19-.959 2.19-2.193a2.164 2.164 0 00-2.19-2.193c-1.233 0-2.191.96-2.191 2.193 0 1.234.958 2.193 2.191 2.193zm19.441 0a2.164 2.164 0 002.191-2.193 2.165 2.165 0 00-2.191-2.193c-1.232 0-2.191.96-2.191 2.193.137 1.234 1.096 2.193 2.191 2.193zm19.578 0a2.163 2.163 0 002.191-2.193 2.164 2.164 0 00-2.191-2.193c-1.232 0-2.19.96-2.19 2.193 0 1.234.958 2.193 2.19 2.193zm19.579 0c1.232 0 2.19-.959 2.19-2.193a2.164 2.164 0 00-2.19-2.193c-1.233 0-2.191.96-2.191 2.193 0 1.234.958 2.193 2.191 2.193zm19.441 0a2.164 2.164 0 002.191-2.193 2.165 2.165 0 00-2.191-2.193c-1.232 0-2.191.96-2.191 2.193 0 1.234.959 2.193 2.191 2.193zm19.578 0a2.163 2.163 0 002.191-2.193 2.164 2.164 0 00-2.191-2.193c-1.232 0-2.19.96-2.19 2.193 0 1.234.958 2.193 2.19 2.193zM2.19 375.401c1.233 0 2.191-.96 2.191-2.193a2.163 2.163 0 00-2.19-2.193A2.163 2.163 0 000 373.208c0 1.233.958 2.193 2.19 2.193zm19.442 0c1.232 0 2.19-.96 2.19-2.193a2.164 2.164 0 00-2.19-2.193c-1.232 0-2.19.959-2.19 2.193.136 1.233 1.095 2.193 2.19 2.193zm19.578 0c1.233 0 2.19-.96 2.19-2.193a2.164 2.164 0 00-2.19-2.193c-1.232 0-2.19.959-2.19 2.193 0 1.233.958 2.193 2.19 2.193zm19.442 0c1.232 0 2.19-.96 2.19-2.193a2.164 2.164 0 00-2.19-2.193c-1.233 0-2.19.959-2.19 2.193.136 1.233 1.094 2.193 2.19 2.193zm19.578 0c1.232 0 2.19-.96 2.19-2.193a2.164 2.164 0 00-2.19-2.193c-1.232 0-2.19.959-2.19 2.193 0 1.233.958 2.193 2.19 2.193zm19.441 0c1.233 0 2.191-.96 2.191-2.193a2.163 2.163 0 00-2.19-2.193 2.163 2.163 0 00-2.191 2.193c.137 1.233 1.095 2.193 2.19 2.193zm19.579 0c1.232 0 2.19-.96 2.19-2.193a2.163 2.163 0 00-2.19-2.193 2.164 2.164 0 00-2.191 2.193c0 1.233.959 2.193 2.191 2.193zm19.441 0c1.232 0 2.191-.96 2.191-2.193a2.164 2.164 0 00-2.191-2.193 2.164 2.164 0 00-2.191 2.193c.137 1.233 1.096 2.193 2.191 2.193zm19.578 0c1.233 0 2.191-.96 2.191-2.193a2.163 2.163 0 00-2.191-2.193c-1.232 0-2.19.959-2.19 2.193 0 1.233.958 2.193 2.19 2.193zm19.442 0c1.232 0 2.19-.96 2.19-2.193a2.163 2.163 0 00-2.19-2.193 2.164 2.164 0 00-2.191 2.193c.137 1.233 1.096 2.193 2.191 2.193zm19.578 0c1.232 0 2.191-.96 2.191-2.193a2.164 2.164 0 00-2.191-2.193c-1.232 0-2.19.959-2.19 2.193 0 1.233.958 2.193 2.19 2.193zm19.442 0c1.232 0 2.19-.96 2.19-2.193a2.163 2.163 0 00-2.19-2.193 2.163 2.163 0 00-2.191 2.193c.137 1.233 1.095 2.193 2.191 2.193zm19.578 0c1.232 0 2.19-.96 2.19-2.193a2.163 2.163 0 00-2.19-2.193 2.164 2.164 0 00-2.191 2.193c0 1.233.959 2.193 2.191 2.193zm19.441 0c1.232 0 2.191-.96 2.191-2.193a2.164 2.164 0 00-2.191-2.193c-1.232 0-2.19.959-2.19 2.193.137 1.233 1.095 2.193 2.19 2.193zm19.579 0c1.232 0 2.19-.96 2.19-2.193a2.163 2.163 0 00-2.19-2.193 2.163 2.163 0 00-2.191 2.193c0 1.233.958 2.193 2.191 2.193zm19.441 0c1.232 0 2.191-.96 2.191-2.193a2.164 2.164 0 00-2.191-2.193 2.164 2.164 0 00-2.191 2.193c.137 1.233 1.096 2.193 2.191 2.193zm19.578 0c1.233 0 2.191-.96 2.191-2.193a2.163 2.163 0 00-2.191-2.193c-1.232 0-2.19.959-2.19 2.193 0 1.233.958 2.193 2.19 2.193zm19.579 0c1.232 0 2.19-.96 2.19-2.193a2.163 2.163 0 00-2.19-2.193 2.163 2.163 0 00-2.191 2.193c0 1.233.958 2.193 2.191 2.193zm19.441 0c1.232 0 2.191-.96 2.191-2.193a2.164 2.164 0 00-2.191-2.193 2.164 2.164 0 00-2.191 2.193c0 1.233.959 2.193 2.191 2.193zm19.578 0c1.233 0 2.191-.96 2.191-2.193a2.163 2.163 0 00-2.191-2.193c-1.232 0-2.19.959-2.19 2.193 0 1.233.958 2.193 2.19 2.193zM2.19 395a2.163 2.163 0 002.191-2.193 2.164 2.164 0 00-2.19-2.193c-1.233 0-2.191.96-2.191 2.193C0 394.041.958 395 2.19 395zm19.442 0c1.232 0 2.19-.959 2.19-2.193a2.164 2.164 0 00-2.19-2.193c-1.232 0-2.19.96-2.19 2.193.136 1.234 1.095 2.193 2.19 2.193zm19.578 0c1.233 0 2.19-.959 2.19-2.193a2.164 2.164 0 00-2.19-2.193c-1.232 0-2.19.96-2.19 2.193 0 1.234.958 2.193 2.19 2.193zm19.442 0c1.232 0 2.19-.959 2.19-2.193a2.164 2.164 0 00-2.19-2.193c-1.233 0-2.19.96-2.19 2.193.136 1.234 1.094 2.193 2.19 2.193zm19.578 0c1.232 0 2.19-.959 2.19-2.193a2.164 2.164 0 00-2.19-2.193c-1.232 0-2.19.96-2.19 2.193 0 1.234.958 2.193 2.19 2.193zm19.441 0a2.163 2.163 0 002.191-2.193 2.164 2.164 0 00-2.19-2.193c-1.233 0-2.191.96-2.191 2.193.137 1.234 1.095 2.193 2.19 2.193zm19.579 0c1.232 0 2.19-.959 2.19-2.193a2.164 2.164 0 00-2.19-2.193c-1.232 0-2.191.96-2.191 2.193 0 1.234.959 2.193 2.191 2.193zm19.441 0a2.164 2.164 0 002.191-2.193 2.165 2.165 0 00-2.191-2.193c-1.232 0-2.191.96-2.191 2.193.137 1.234 1.096 2.193 2.191 2.193zm19.578 0a2.163 2.163 0 002.191-2.193 2.164 2.164 0 00-2.191-2.193c-1.232 0-2.19.96-2.19 2.193 0 1.234.958 2.193 2.19 2.193zm19.442 0c1.232 0 2.19-.959 2.19-2.193a2.164 2.164 0 00-2.19-2.193c-1.232 0-2.191.96-2.191 2.193.137 1.234 1.096 2.193 2.191 2.193zm19.578 0a2.164 2.164 0 002.191-2.193 2.165 2.165 0 00-2.191-2.193c-1.232 0-2.19.96-2.19 2.193 0 1.234.958 2.193 2.19 2.193zm19.442 0c1.232 0 2.19-.959 2.19-2.193a2.164 2.164 0 00-2.19-2.193c-1.233 0-2.191.96-2.191 2.193.137 1.234 1.095 2.193 2.191 2.193zm19.578 0c1.232 0 2.19-.959 2.19-2.193a2.164 2.164 0 00-2.19-2.193c-1.232 0-2.191.96-2.191 2.193 0 1.234.959 2.193 2.191 2.193zm19.441 0a2.164 2.164 0 002.191-2.193 2.165 2.165 0 00-2.191-2.193c-1.232 0-2.19.96-2.19 2.193.137 1.234 1.095 2.193 2.19 2.193zm19.579 0c1.232 0 2.19-.959 2.19-2.193a2.164 2.164 0 00-2.19-2.193c-1.233 0-2.191.96-2.191 2.193 0 1.234.958 2.193 2.191 2.193zm19.441 0a2.164 2.164 0 002.191-2.193 2.165 2.165 0 00-2.191-2.193c-1.232 0-2.191.96-2.191 2.193.137 1.234 1.096 2.193 2.191 2.193zm19.578 0a2.163 2.163 0 002.191-2.193 2.164 2.164 0 00-2.191-2.193c-1.232 0-2.19.96-2.19 2.193 0 1.234.958 2.193 2.19 2.193zm19.579 0c1.232 0 2.19-.959 2.19-2.193a2.164 2.164 0 00-2.19-2.193c-1.233 0-2.191.96-2.191 2.193 0 1.234.958 2.193 2.191 2.193zm19.441 0a2.164 2.164 0 002.191-2.193 2.165 2.165 0 00-2.191-2.193c-1.232 0-2.191.96-2.191 2.193 0 1.234.959 2.193 2.191 2.193zm19.578 0a2.163 2.163 0 002.191-2.193 2.164 2.164 0 00-2.191-2.193c-1.232 0-2.19.96-2.19 2.193 0 1.234.958 2.193 2.19 2.193z"/></g><defs><clipPath id="clip0"><path fill="#fff" d="M0 0h375v395H0z"/></clipPath></defs></svg>