<svg width="122" height="122" fill="none" xmlns="http://www.w3.org/2000/svg"><path d="M2.2 4.401a2.171 2.171 0 002.201-2.2A2.171 2.171 0 002.201 0 2.173 2.173 0 000 2.2c0 1.24.963 2.202 2.2 2.202zm19.532 0c1.238 0 2.2-.962 2.2-2.2A2.172 2.172 0 0021.732 0a2.173 2.173 0 00-2.201 2.2c.138 1.239 1.1 2.201 2.2 2.201zm19.668 0c1.238 0 2.2-.962 2.2-2.2A2.171 2.171 0 0041.4 0c-1.238 0-2.2.963-2.2 2.2 0 1.239.962 2.201 2.2 2.201zm19.531 0a2.172 2.172 0 002.201-2.2A2.173 2.173 0 0060.932 0a2.172 2.172 0 00-2.201 2.2c.137 1.239 1.1 2.201 2.2 2.201zm19.669 0c1.238 0 2.2-.962 2.2-2.2A2.172 2.172 0 0080.6 0c-1.238 0-2.2.963-2.2 2.2 0 1.239.962 2.201 2.2 2.201zm19.531 0a2.173 2.173 0 002.201-2.2c0-1.238-.963-2.201-2.201-2.201s-2.2.963-2.2 2.2c.137 1.239 1.1 2.201 2.2 2.201zm19.668 0a2.173 2.173 0 002.201-2.2C122 .963 121.037 0 119.799 0s-2.2.963-2.2 2.2c0 1.239.962 2.201 2.2 2.201zM2.2 43.6a2.171 2.171 0 002.201-2.2c0-1.238-.962-2.2-2.2-2.2A2.172 2.172 0 000 41.4c0 1.238.963 2.2 2.2 2.2zm19.532 0c1.238 0 2.2-.962 2.2-2.2 0-1.238-.962-2.2-2.2-2.2a2.172 2.172 0 00-2.201 2.2c.138 1.238 1.1 2.2 2.2 2.2zm19.668 0c1.238 0 2.2-.962 2.2-2.2 0-1.238-.962-2.2-2.2-2.2-1.238 0-2.2.962-2.2 2.2 0 1.238.962 2.2 2.2 2.2zm19.531 0a2.172 2.172 0 002.201-2.2c0-1.238-.963-2.2-2.2-2.2a2.171 2.171 0 00-2.201 2.2c.137 1.238 1.1 2.2 2.2 2.2zm19.669 0c1.238 0 2.2-.962 2.2-2.2 0-1.238-.962-2.2-2.2-2.2-1.238 0-2.2.962-2.2 2.2 0 1.238.962 2.2 2.2 2.2zm19.531 0a2.173 2.173 0 002.201-2.2c0-1.238-.963-2.2-2.201-2.2s-2.2.962-2.2 2.2c.137 1.238 1.1 2.2 2.2 2.2zm19.668 0A2.173 2.173 0 00122 41.4c0-1.238-.963-2.2-2.201-2.2s-2.2.962-2.2 2.2c0 1.238.962 2.2 2.2 2.2zM2.2 82.8a2.171 2.171 0 002.201-2.2 2.172 2.172 0 00-2.2-2.201A2.173 2.173 0 000 80.599c0 1.24.963 2.201 2.2 2.201zm19.532 0c1.238 0 2.2-.962 2.2-2.2a2.172 2.172 0 00-2.2-2.201 2.173 2.173 0 00-2.201 2.2c.138 1.239 1.1 2.201 2.2 2.201zm19.668 0c1.238 0 2.2-.962 2.2-2.2a2.172 2.172 0 00-2.2-2.201c-1.238 0-2.2.963-2.2 2.2 0 1.239.962 2.201 2.2 2.201zm19.531 0a2.172 2.172 0 002.201-2.2 2.173 2.173 0 00-2.2-2.201 2.172 2.172 0 00-2.201 2.2c.137 1.239 1.1 2.201 2.2 2.201zm19.669 0c1.238 0 2.2-.962 2.2-2.2a2.172 2.172 0 00-2.2-2.201c-1.238 0-2.2.963-2.2 2.2 0 1.239.962 2.201 2.2 2.201zm19.531 0a2.173 2.173 0 002.201-2.2c0-1.238-.963-2.201-2.201-2.201s-2.2.963-2.2 2.2c.137 1.239 1.1 2.201 2.2 2.201zm19.668 0A2.173 2.173 0 00122 80.6c0-1.238-.963-2.201-2.201-2.201s-2.2.963-2.2 2.2c0 1.239.962 2.201 2.2 2.201zM2.2 23.932a2.171 2.171 0 002.201-2.2 2.172 2.172 0 00-2.2-2.201A2.173 2.173 0 000 21.731c0 1.239.963 2.201 2.2 2.201zm19.532 0c1.238 0 2.2-.962 2.2-2.2a2.172 2.172 0 00-2.2-2.201 2.173 2.173 0 00-2.201 2.2c.138 1.239 1.1 2.201 2.2 2.201zm19.668 0c1.238 0 2.2-.962 2.2-2.2a2.172 2.172 0 00-2.2-2.201c-1.238 0-2.2.963-2.2 2.2 0 1.239.962 2.201 2.2 2.201zm19.531 0a2.172 2.172 0 002.201-2.2 2.173 2.173 0 00-2.2-2.201 2.172 2.172 0 00-2.201 2.2c.137 1.239 1.1 2.201 2.2 2.201zm19.669 0c1.238 0 2.2-.962 2.2-2.2a2.172 2.172 0 00-2.2-2.201c-1.238 0-2.2.963-2.2 2.2 0 1.239.962 2.201 2.2 2.201zm19.531 0a2.173 2.173 0 002.201-2.2c0-1.238-.963-2.201-2.201-2.201s-2.2.963-2.2 2.2c.137 1.239 1.1 2.201 2.2 2.201zm19.668 0a2.173 2.173 0 002.201-2.2c0-1.238-.963-2.201-2.201-2.201s-2.2.963-2.2 2.2c0 1.239.962 2.201 2.2 2.201zM2.2 63.132a2.172 2.172 0 002.201-2.2 2.172 2.172 0 00-2.2-2.202C.963 58.73 0 59.694 0 60.931s.963 2.2 2.2 2.2zm19.532 0c1.238 0 2.2-.963 2.2-2.2a2.172 2.172 0 00-2.2-2.202 2.173 2.173 0 00-2.201 2.201c.138 1.238 1.1 2.2 2.2 2.2zm19.668 0c1.238 0 2.2-.963 2.2-2.2a2.172 2.172 0 00-2.2-2.202c-1.238 0-2.2.963-2.2 2.201s.962 2.2 2.2 2.2zm19.531 0a2.173 2.173 0 002.201-2.2 2.173 2.173 0 00-2.2-2.202 2.172 2.172 0 00-2.201 2.201c.137 1.238 1.1 2.2 2.2 2.2zm19.669 0c1.238 0 2.2-.963 2.2-2.2a2.172 2.172 0 00-2.2-2.202c-1.238 0-2.2.963-2.2 2.201s.962 2.2 2.2 2.2zm19.531 0a2.173 2.173 0 002.201-2.2c0-1.239-.963-2.202-2.201-2.202s-2.2.963-2.2 2.201c.137 1.238 1.1 2.2 2.2 2.2zm19.668 0a2.173 2.173 0 002.201-2.2c0-1.239-.963-2.202-2.201-2.202s-2.2.963-2.2 2.201.962 2.2 2.2 2.2zM2.2 102.331a2.171 2.171 0 002.201-2.2c0-1.238-.962-2.2-2.2-2.2a2.172 2.172 0 00-2.201 2.2c0 1.238.963 2.2 2.2 2.2zm19.532 0c1.238 0 2.2-.962 2.2-2.2 0-1.238-.962-2.2-2.2-2.2a2.172 2.172 0 00-2.201 2.2c.138 1.238 1.1 2.2 2.2 2.2zm19.668 0c1.238 0 2.2-.962 2.2-2.2 0-1.238-.962-2.2-2.2-2.2-1.238 0-2.2.962-2.2 2.2 0 1.238.962 2.2 2.2 2.2zm19.531 0a2.172 2.172 0 002.201-2.2c0-1.238-.963-2.2-2.2-2.2a2.171 2.171 0 00-2.201 2.2c.137 1.238 1.1 2.2 2.2 2.2zm19.669 0c1.238 0 2.2-.962 2.2-2.2 0-1.238-.962-2.2-2.2-2.2-1.238 0-2.2.962-2.2 2.2 0 1.238.962 2.2 2.2 2.2zm19.531 0a2.172 2.172 0 002.201-2.2c0-1.238-.963-2.2-2.201-2.2s-2.2.962-2.2 2.2c.137 1.238 1.1 2.2 2.2 2.2zm19.668 0a2.172 2.172 0 002.201-2.2c0-1.238-.963-2.2-2.201-2.2s-2.2.962-2.2 2.2c0 1.238.962 2.2 2.2 2.2zM2.2 122c1.239 0 2.201-.963 2.201-2.201s-.962-2.2-2.2-2.2a2.172 2.172 0 00-2.201 2.2C0 121.037.963 122 2.2 122zm19.532 0c1.238 0 2.2-.963 2.2-2.201s-.962-2.2-2.2-2.2a2.172 2.172 0 00-2.201 2.2c.138 1.238 1.1 2.201 2.2 2.201zm19.668 0c1.238 0 2.2-.963 2.2-2.201s-.962-2.2-2.2-2.2c-1.238 0-2.2.962-2.2 2.2 0 1.238.962 2.201 2.2 2.201zm19.531 0c1.238 0 2.201-.963 2.201-2.201s-.963-2.2-2.2-2.2a2.171 2.171 0 00-2.201 2.2c.137 1.238 1.1 2.201 2.2 2.201zm19.669 0c1.238 0 2.2-.963 2.2-2.201s-.962-2.2-2.2-2.2c-1.238 0-2.2.962-2.2 2.2 0 1.238.962 2.201 2.2 2.201zm19.531 0a2.173 2.173 0 002.201-2.201c0-1.238-.963-2.2-2.201-2.2s-2.2.962-2.2 2.2c.137 1.238 1.1 2.201 2.2 2.201zm19.668 0a2.173 2.173 0 002.201-2.201c0-1.238-.963-2.2-2.201-2.2s-2.2.962-2.2 2.2c0 1.238.962 2.201 2.2 2.201z" fill="#fff"/></svg>