<svg width="375" height="82" fill="none" xmlns="http://www.w3.org/2000/svg"><path d="M2.19 4.359c1.232 0 2.19-.954 2.19-2.18C4.38.953 3.422 0 2.19 0S0 .953 0 2.18c0 1.225.958 2.179 2.19 2.179zm19.434 0c1.232 0 2.19-.954 2.19-2.18C23.814.953 22.856 0 21.624 0s-2.19.953-2.19 2.18c.137 1.225 1.095 2.179 2.19 2.179zm19.571 0c1.232 0 2.19-.954 2.19-2.18C43.385.953 42.427 0 41.195 0c-1.231 0-2.19.953-2.19 2.18 0 1.225.959 2.179 2.19 2.179zm19.435 0c1.231 0 2.19-.954 2.19-2.18C62.82.953 61.86 0 60.63 0c-1.232 0-2.19.953-2.19 2.18.137 1.225 1.095 2.179 2.19 2.179zm19.57 0c1.233 0 2.19-.954 2.19-2.18C82.39.953 81.434 0 80.2 0c-1.231 0-2.19.953-2.19 2.18 0 1.225.959 2.179 2.19 2.179zm19.435 0c1.232 0 2.19-.954 2.19-2.18 0-1.226-.958-2.179-2.19-2.179s-2.19.953-2.19 2.18c.137 1.225 1.095 2.179 2.19 2.179zm19.571 0c1.232 0 2.19-.954 2.19-2.18 0-1.226-.958-2.179-2.19-2.179s-2.19.953-2.19 2.18c0 1.225.958 2.179 2.19 2.179zm19.435 0c1.231 0 2.189-.954 2.189-2.18 0-1.226-.958-2.179-2.189-2.179-1.232 0-2.19.953-2.19 2.18.137 1.225 1.095 2.179 2.19 2.179zm19.571 0c1.231 0 2.189-.954 2.189-2.18 0-1.226-.958-2.179-2.189-2.179-1.232 0-2.19.953-2.19 2.18 0 1.225.958 2.179 2.19 2.179zm19.434 0c1.232 0 2.19-.954 2.19-2.18 0-1.226-.958-2.179-2.19-2.179s-2.19.953-2.19 2.18c.137 1.225 1.095 2.179 2.19 2.179zm19.571 0c1.232 0 2.19-.954 2.19-2.18 0-1.226-.958-2.179-2.19-2.179s-2.19.953-2.19 2.18c0 1.225.958 2.179 2.19 2.179zm19.434 0c1.232 0 2.19-.954 2.19-2.18 0-1.226-.958-2.179-2.19-2.179-1.231 0-2.189.953-2.189 2.18.137 1.225 1.095 2.179 2.189 2.179zm19.572 0c1.231 0 2.189-.954 2.189-2.18 0-1.226-.958-2.179-2.189-2.179-1.232 0-2.19.953-2.19 2.18 0 1.225.958 2.179 2.19 2.179zm19.434 0c1.232 0 2.19-.954 2.19-2.18 0-1.226-.958-2.179-2.19-2.179s-2.19.953-2.19 2.18c.137 1.225 1.095 2.179 2.19 2.179zm19.571 0c1.232 0 2.19-.954 2.19-2.18 0-1.226-.958-2.179-2.19-2.179s-2.19.953-2.19 2.18c0 1.225.958 2.179 2.19 2.179zm19.434 0c1.232 0 2.19-.954 2.19-2.18 0-1.226-.958-2.179-2.19-2.179-1.231 0-2.189.953-2.189 2.18.136 1.225 1.094 2.179 2.189 2.179zm19.572 0c1.231 0 2.189-.954 2.189-2.18 0-1.226-.958-2.179-2.189-2.179-1.232 0-2.19.953-2.19 2.18 0 1.225.958 2.179 2.19 2.179zm19.571 0c1.231 0 2.189-.954 2.189-2.18 0-1.226-.958-2.179-2.189-2.179-1.232 0-2.19.953-2.19 2.18 0 1.225.958 2.179 2.19 2.179zm19.434 0c1.232 0 2.19-.954 2.19-2.18 0-1.226-.958-2.179-2.19-2.179s-2.19.953-2.19 2.18c0 1.225.958 2.179 2.19 2.179zm19.571 0c1.232 0 2.19-.954 2.19-2.18C375 .953 374.042 0 372.81 0s-2.19.953-2.19 2.18c0 1.225.958 2.179 2.19 2.179zM2.19 43.18c1.232 0 2.19-.954 2.19-2.18 0-1.226-.958-2.18-2.19-2.18S0 39.775 0 41c0 1.226.958 2.18 2.19 2.18zm19.434 0c1.232 0 2.19-.954 2.19-2.18 0-1.226-.958-2.18-2.19-2.18s-2.19.954-2.19 2.18c.137 1.226 1.095 2.18 2.19 2.18zm19.571 0c1.232 0 2.19-.954 2.19-2.18 0-1.226-.958-2.18-2.19-2.18-1.231 0-2.19.954-2.19 2.18 0 1.226.959 2.18 2.19 2.18zm19.435 0c1.231 0 2.19-.954 2.19-2.18 0-1.226-.959-2.18-2.19-2.18-1.232 0-2.19.954-2.19 2.18.137 1.226 1.095 2.18 2.19 2.18zm19.57 0c1.233 0 2.19-.954 2.19-2.18 0-1.226-.957-2.18-2.19-2.18-1.231 0-2.19.954-2.19 2.18 0 1.226.959 2.18 2.19 2.18zm19.435 0c1.232 0 2.19-.954 2.19-2.18 0-1.226-.958-2.18-2.19-2.18s-2.19.954-2.19 2.18c.137 1.226 1.095 2.18 2.19 2.18zm19.571 0c1.232 0 2.19-.954 2.19-2.18 0-1.226-.958-2.18-2.19-2.18s-2.19.954-2.19 2.18c0 1.226.958 2.18 2.19 2.18zm19.435 0c1.231 0 2.189-.954 2.189-2.18 0-1.226-.958-2.18-2.189-2.18-1.232 0-2.19.954-2.19 2.18.137 1.226 1.095 2.18 2.19 2.18zm19.571 0c1.231 0 2.189-.954 2.189-2.18 0-1.226-.958-2.18-2.189-2.18-1.232 0-2.19.954-2.19 2.18 0 1.226.958 2.18 2.19 2.18zm19.434 0c1.232 0 2.19-.954 2.19-2.18 0-1.226-.958-2.18-2.19-2.18s-2.19.954-2.19 2.18c.137 1.226 1.095 2.18 2.19 2.18zm19.571 0c1.232 0 2.19-.954 2.19-2.18 0-1.226-.958-2.18-2.19-2.18s-2.19.954-2.19 2.18c0 1.226.958 2.18 2.19 2.18zm19.434 0c1.232 0 2.19-.954 2.19-2.18 0-1.226-.958-2.18-2.19-2.18-1.231 0-2.189.954-2.189 2.18.137 1.226 1.095 2.18 2.189 2.18zm19.572 0c1.231 0 2.189-.954 2.189-2.18 0-1.226-.958-2.18-2.189-2.18-1.232 0-2.19.954-2.19 2.18 0 1.226.958 2.18 2.19 2.18zm19.434 0c1.232 0 2.19-.954 2.19-2.18 0-1.226-.958-2.18-2.19-2.18s-2.19.954-2.19 2.18c.137 1.226 1.095 2.18 2.19 2.18zm19.571 0c1.232 0 2.19-.954 2.19-2.18 0-1.226-.958-2.18-2.19-2.18s-2.19.954-2.19 2.18c0 1.226.958 2.18 2.19 2.18zm19.434 0c1.21 0 2.19-.976 2.19-2.18 0-1.204-.98-2.18-2.19-2.18a2.184 2.184 0 00-2.189 2.18c0 1.204.98 2.18 2.189 2.18zm19.572 0c1.231 0 2.189-.954 2.189-2.18 0-1.226-.958-2.18-2.189-2.18-1.232 0-2.19.954-2.19 2.18 0 1.226.958 2.18 2.19 2.18zm19.571 0c1.231 0 2.189-.954 2.189-2.18 0-1.226-.958-2.18-2.189-2.18-1.232 0-2.19.954-2.19 2.18 0 1.226.958 2.18 2.19 2.18zm19.434 0c1.232 0 2.19-.954 2.19-2.18 0-1.226-.958-2.18-2.19-2.18s-2.19.954-2.19 2.18c0 1.226.958 2.18 2.19 2.18zm19.571 0c1.232 0 2.19-.954 2.19-2.18 0-1.226-.958-2.18-2.19-2.18s-2.19.954-2.19 2.18c0 1.226.958 2.18 2.19 2.18zM2.19 82c1.232 0 2.19-.954 2.19-2.18 0-1.225-.958-2.179-2.19-2.179S0 78.595 0 79.821C0 81.045.958 82 2.19 82zm19.434 0c1.232 0 2.19-.954 2.19-2.18 0-1.225-.958-2.179-2.19-2.179s-2.19.954-2.19 2.18C19.571 81.045 20.53 82 21.624 82zm19.571 0c1.232 0 2.19-.954 2.19-2.18 0-1.225-.958-2.179-2.19-2.179-1.231 0-2.19.954-2.19 2.18 0 1.225.959 2.179 2.19 2.179zm19.435 0c1.231 0 2.19-.954 2.19-2.18 0-1.225-.959-2.179-2.19-2.179-1.232 0-2.19.954-2.19 2.18.137 1.225 1.095 2.179 2.19 2.179zm19.57 0c1.233 0 2.19-.954 2.19-2.18 0-1.225-.957-2.179-2.19-2.179-1.231 0-2.19.954-2.19 2.18 0 1.225.959 2.179 2.19 2.179zm19.435 0c1.232 0 2.19-.954 2.19-2.18 0-1.225-.958-2.179-2.19-2.179s-2.19.954-2.19 2.18C97.582 81.045 98.54 82 99.635 82zm19.571 0c1.232 0 2.19-.954 2.19-2.18 0-1.225-.958-2.179-2.19-2.179s-2.19.954-2.19 2.18c0 1.225.958 2.179 2.19 2.179zm19.435 0c1.231 0 2.189-.954 2.189-2.18 0-1.225-.958-2.179-2.189-2.179-1.232 0-2.19.954-2.19 2.18.137 1.225 1.095 2.179 2.19 2.179zm19.571 0c1.231 0 2.189-.954 2.189-2.18 0-1.225-.958-2.179-2.189-2.179-1.232 0-2.19.954-2.19 2.18 0 1.225.958 2.179 2.19 2.179zm19.434 0c1.232 0 2.19-.954 2.19-2.18 0-1.225-.958-2.179-2.19-2.179s-2.19.954-2.19 2.18c.137 1.225 1.095 2.179 2.19 2.179zm19.571 0c1.232 0 2.19-.954 2.19-2.18 0-1.225-.958-2.179-2.19-2.179s-2.19.954-2.19 2.18c0 1.225.958 2.179 2.19 2.179zm19.434 0c1.232 0 2.19-.954 2.19-2.18 0-1.225-.958-2.179-2.19-2.179-1.231 0-2.189.954-2.189 2.18.137 1.225 1.095 2.179 2.189 2.179zm19.572 0c1.231 0 2.189-.954 2.189-2.18 0-1.225-.958-2.179-2.189-2.179-1.232 0-2.19.954-2.19 2.18 0 1.225.958 2.179 2.19 2.179zm19.434 0c1.232 0 2.19-.954 2.19-2.18 0-1.225-.958-2.179-2.19-2.179s-2.19.954-2.19 2.18c.137 1.225 1.095 2.179 2.19 2.179zm19.571 0c1.232 0 2.19-.954 2.19-2.18 0-1.225-.958-2.179-2.19-2.179s-2.19.954-2.19 2.18c0 1.225.958 2.179 2.19 2.179zm19.434 0c1.232 0 2.19-.954 2.19-2.18 0-1.225-.958-2.179-2.19-2.179-1.231 0-2.189.954-2.189 2.18.136 1.225 1.094 2.179 2.189 2.179zm19.572 0c1.231 0 2.189-.954 2.189-2.18 0-1.225-.958-2.179-2.189-2.179-1.232 0-2.19.954-2.19 2.18 0 1.225.958 2.179 2.19 2.179zm19.571 0c1.231 0 2.189-.954 2.189-2.18 0-1.225-.958-2.179-2.189-2.179-1.232 0-2.19.954-2.19 2.18 0 1.225.958 2.179 2.19 2.179zm19.434 0c1.232 0 2.19-.954 2.19-2.18 0-1.225-.958-2.179-2.19-2.179s-2.19.954-2.19 2.18c0 1.225.958 2.179 2.19 2.179zm19.571 0c1.232 0 2.19-.954 2.19-2.18 0-1.225-.958-2.179-2.19-2.179s-2.19.954-2.19 2.18c0 1.225.958 2.179 2.19 2.179zM2.19 23.701c1.232 0 2.19-.954 2.19-2.18 0-1.225-.958-2.179-2.19-2.179-1.232.136-2.19 1.09-2.19 2.18C0 22.748.958 23.7 2.19 23.7zm19.434 0c1.232 0 2.19-.954 2.19-2.18 0-1.225-.958-2.179-2.19-2.179s-2.19.954-2.19 2.18c.137 1.226 1.095 2.179 2.19 2.179zm19.571 0c1.232 0 2.19-.954 2.19-2.18 0-1.225-.958-2.179-2.19-2.179-1.231 0-2.19.954-2.19 2.18 0 1.226.959 2.179 2.19 2.179zm19.435 0c1.231 0 2.19-.954 2.19-2.18 0-1.225-.959-2.179-2.19-2.179-1.232 0-2.19.954-2.19 2.18.137 1.226 1.095 2.179 2.19 2.179zm19.57 0c1.233 0 2.19-.954 2.19-2.18 0-1.225-.957-2.179-2.19-2.179-1.231 0-2.19.954-2.19 2.18 0 1.226.959 2.179 2.19 2.179zm19.435 0c1.232 0 2.19-.954 2.19-2.18 0-1.225-.958-2.179-2.19-2.179s-2.19.954-2.19 2.18c.137 1.226 1.095 2.179 2.19 2.179zm19.571 0c1.232 0 2.19-.954 2.19-2.18 0-1.225-.958-2.179-2.19-2.179s-2.19.954-2.19 2.18c0 1.226.958 2.179 2.19 2.179zm19.435 0c1.231 0 2.189-.954 2.189-2.18 0-1.225-.958-2.179-2.189-2.179-1.232 0-2.19.954-2.19 2.18.137 1.226 1.095 2.179 2.19 2.179zm19.571 0c1.231 0 2.189-.954 2.189-2.18 0-1.225-.958-2.179-2.189-2.179-1.232 0-2.19.954-2.19 2.18 0 1.226.958 2.179 2.19 2.179zm19.434 0c1.232 0 2.19-.954 2.19-2.18 0-1.225-.958-2.179-2.19-2.179s-2.19.954-2.19 2.18c.137 1.226 1.095 2.179 2.19 2.179zm19.571 0c1.232 0 2.19-.954 2.19-2.18 0-1.225-.958-2.179-2.19-2.179s-2.19.954-2.19 2.18c0 1.226.958 2.179 2.19 2.179zm19.434 0c1.232 0 2.19-.954 2.19-2.18 0-1.225-.958-2.179-2.19-2.179-1.231 0-2.189.954-2.189 2.18.137 1.226 1.095 2.179 2.189 2.179zm19.572 0c1.231 0 2.189-.954 2.189-2.18 0-1.225-.958-2.179-2.189-2.179-1.232 0-2.19.954-2.19 2.18 0 1.226.958 2.179 2.19 2.179zm19.434 0c1.232 0 2.19-.954 2.19-2.18 0-1.225-.958-2.179-2.19-2.179s-2.19.954-2.19 2.18c.137 1.226 1.095 2.179 2.19 2.179zm19.571 0c1.232 0 2.19-.954 2.19-2.18 0-1.225-.958-2.179-2.19-2.179s-2.19.954-2.19 2.18c0 1.226.958 2.179 2.19 2.179zm19.434 0c1.232 0 2.19-.954 2.19-2.18 0-1.225-.958-2.179-2.19-2.179-1.231 0-2.189.954-2.189 2.18.136 1.226 1.094 2.179 2.189 2.179zm19.572 0c1.231 0 2.189-.954 2.189-2.18 0-1.225-.958-2.179-2.189-2.179-1.232 0-2.19 1.09-2.19 2.18 0 1.226.958 2.179 2.19 2.179zm19.571 0c1.231 0 2.189-.954 2.189-2.18 0-1.225-.958-2.179-2.189-2.179-1.232 0-2.19.954-2.19 2.18 0 1.226.958 2.179 2.19 2.179zm19.434 0c1.232 0 2.19-.954 2.19-2.18 0-1.225-.958-2.179-2.19-2.179s-2.19.954-2.19 2.18c0 1.226.958 2.179 2.19 2.179zm19.571 0c1.232 0 2.19-.954 2.19-2.18 0-1.225-.958-2.179-2.19-2.179s-2.19.954-2.19 2.18c0 1.226.958 2.179 2.19 2.179zM2.19 62.522c1.232 0 2.19-.954 2.19-2.18 0-1.226-.958-2.18-2.19-2.18S0 59.117 0 60.343s.958 2.18 2.19 2.18zm19.434 0c1.232 0 2.19-.954 2.19-2.18 0-1.226-.958-2.18-2.19-2.18s-2.19.954-2.19 2.18c.137 1.226 1.095 2.18 2.19 2.18zm19.571 0c1.232 0 2.19-.954 2.19-2.18 0-1.226-.958-2.18-2.19-2.18-1.231 0-2.19.954-2.19 2.18 0 1.226.959 2.18 2.19 2.18zm19.435 0c1.231 0 2.19-.954 2.19-2.18 0-1.226-.959-2.18-2.19-2.18-1.232 0-2.19.954-2.19 2.18.137 1.226 1.095 2.18 2.19 2.18zm19.57 0c1.233 0 2.19-.954 2.19-2.18 0-1.226-.957-2.18-2.19-2.18-1.231 0-2.19.954-2.19 2.18 0 1.226.959 2.18 2.19 2.18zm19.435 0c1.232 0 2.19-.954 2.19-2.18 0-1.226-.958-2.18-2.19-2.18s-2.19.954-2.19 2.18c.137 1.226 1.095 2.18 2.19 2.18zm19.571 0c1.232 0 2.19-.954 2.19-2.18 0-1.226-.958-2.18-2.19-2.18s-2.19.954-2.19 2.18c0 1.226.958 2.18 2.19 2.18zm19.435 0c1.231 0 2.189-.954 2.189-2.18 0-1.226-.958-2.18-2.189-2.18-1.232 0-2.19.954-2.19 2.18.137 1.226 1.095 2.18 2.19 2.18zm19.571 0c1.231 0 2.189-.954 2.189-2.18 0-1.226-.958-2.18-2.189-2.18-1.232 0-2.19.954-2.19 2.18 0 1.226.958 2.18 2.19 2.18zm19.434 0c1.232 0 2.19-.954 2.19-2.18 0-1.226-.958-2.18-2.19-2.18s-2.19.954-2.19 2.18c.137 1.226 1.095 2.18 2.19 2.18zm19.571 0c1.232 0 2.19-.954 2.19-2.18 0-1.226-.958-2.18-2.19-2.18s-2.19.954-2.19 2.18c0 1.226.958 2.18 2.19 2.18zm19.434 0c1.232 0 2.19-.954 2.19-2.18 0-1.226-.958-2.18-2.19-2.18-1.231 0-2.189.954-2.189 2.18.137 1.226 1.095 2.18 2.189 2.18zm19.572 0c1.231 0 2.189-.954 2.189-2.18 0-1.226-.958-2.18-2.189-2.18-1.232 0-2.19.954-2.19 2.18 0 1.226.958 2.18 2.19 2.18zm19.434 0c1.232 0 2.19-.954 2.19-2.18 0-1.226-.958-2.18-2.19-2.18s-2.19.954-2.19 2.18c.137 1.226 1.095 2.18 2.19 2.18zm19.571 0c1.232 0 2.19-.954 2.19-2.18 0-1.226-.958-2.18-2.19-2.18s-2.19.954-2.19 2.18c0 1.226.958 2.18 2.19 2.18zm19.434 0c1.232 0 2.19-.954 2.19-2.18 0-1.226-.958-2.18-2.19-2.18-1.231 0-2.189.954-2.189 2.18.136 1.226 1.094 2.18 2.189 2.18zm19.572 0c1.231 0 2.189-.954 2.189-2.18 0-1.226-.958-2.18-2.189-2.18-1.232 0-2.19.954-2.19 2.18 0 1.226.958 2.18 2.19 2.18zm19.571 0c1.231 0 2.189-.954 2.189-2.18 0-1.226-.958-2.18-2.189-2.18-1.232 0-2.19.954-2.19 2.18 0 1.226.958 2.18 2.19 2.18zm19.434 0c1.232 0 2.19-.954 2.19-2.18 0-1.226-.958-2.18-2.19-2.18s-2.19.954-2.19 2.18c0 1.226.958 2.18 2.19 2.18zm19.571 0c1.232 0 2.19-.954 2.19-2.18 0-1.226-.958-2.18-2.19-2.18s-2.19.954-2.19 2.18c0 1.226.958 2.18 2.19 2.18z" fill="#fff"/></svg>