<svg width="14" height="13" fill="none" xmlns="http://www.w3.org/2000/svg"><path d="M11.074.926L8.176 3.55v6.398l2.898-2.625V.926zm-7.273 1.75a6.097 6.097 0 00-1.723.191 3.908 3.908 0 00-1.504.684v8.531a.3.3 0 00.082.219.363.363 0 00.219.082l.137-.027a6.301 6.301 0 011.367-.465c.51-.128.984-.192 1.422-.192.565 0 1.13.073 1.695.219A4.154 4.154 0 017 12.574c.42-.255.93-.456 1.531-.601.602-.164 1.149-.246 1.64-.246a5.639 5.639 0 011.477.136c.474.091.921.246 1.34.465.037.018.082.018.137 0a.262.262 0 00.191-.082.405.405 0 00.11-.191V3.55a4.212 4.212 0 00-1.176-.602v7.875a6.41 6.41 0 00-2.05-.273 6.37 6.37 0 00-1.669.246c-.601.164-1.112.374-1.531.629V3.55a3.908 3.908 0 00-1.504-.684 5.981 5.981 0 00-1.695-.191z" fill="#FFBC16"/></svg>