<svg width="10" height="13" fill="none" xmlns="http://www.w3.org/2000/svg"><path d="M2.074.926h5.852c.328 0 .601.11.82.328.219.219.328.492.328.82v9.352c0 .328-.11.601-.328.82a1.113 1.113 0 01-.82.328H2.074c-.328 0-.601-.11-.82-.328a1.113 1.113 0 01-.328-.82V2.074c0-.328.11-.601.328-.82.219-.219.492-.328.82-.328zm0 1.148v2.352h5.852V2.074H2.074zm0 3.5V6.75H3.25V5.574H2.074zm2.352 0V6.75h1.148V5.574H4.426zm2.324 0V6.75h1.176V5.574H6.75zM2.074 7.926v1.148H3.25V7.926H2.074zm2.352 0v1.148h1.148V7.926H4.426zm2.324 0v1.148h1.176V7.926H6.75zM2.074 10.25v1.176H3.25V10.25H2.074zm2.352 0v1.176h1.148V10.25H4.426zm2.324 0v1.176h1.176V10.25H6.75z" fill="#000"/></svg>