<svg width="141" height="50" fill="none" xmlns="http://www.w3.org/2000/svg"><path d="M97.105 38.282v2.168h-3.133v9.341h-2.255v-9.34h-3.09v-2.17h8.478zm8.227 11.509l-2.339-4.003h-1.712v4.004h-2.255v-11.51h4.594c1.086 0 1.963.375 2.715 1.126.751.75 1.127 1.626 1.127 2.71 0 1.418-.877 2.753-2.213 3.337l2.548 4.337h-2.465zm-4.051-9.382v3.42h2.339c.877 0 1.545-.793 1.545-1.71 0-.918-.71-1.71-1.545-1.71h-2.339zm15.913 9.382l-.71-2.085h-4.594l-.71 2.085h-2.465l4.052-11.51h2.798l4.051 11.51h-2.422zm-4.553-4.17h3.174l-1.587-4.712-1.587 4.712zm13.407-7.339c1.587 0 2.882.542 3.968 1.668 1.086 1.084 1.587 2.46 1.587 4.087 0 1.626-.543 3.002-1.587 4.086-1.044 1.085-2.381 1.669-3.968 1.669h-4.594v-11.51h4.594zm0 9.341c1.002 0 1.796-.334 2.422-1 .627-.668.919-1.544.919-2.586 0-1.085-.334-1.919-.919-2.586-.626-.667-1.42-1-2.422-1h-2.297v7.172h2.297zm10.107 0H141v2.169h-7.142v-11.51h7.058v2.168h-4.761v2.46h4.386v2.128h-4.386v2.585zM35.417 26.647c.376 0 .668.167.835.5l.042.084.46-.292-.042-.083a1.476 1.476 0 00-1.295-.75c-.46 0-.835.166-1.128.458a1.54 1.54 0 00-.459 1.126c0 .458.167.834.46 1.126.292.292.668.458 1.127.458.292 0 .543-.083.752-.208.25-.125.418-.334.543-.542l.041-.084-.459-.25-.042.084a.95.95 0 01-.835.5c-.292 0-.543-.083-.752-.292-.209-.208-.292-.459-.292-.75 0-.293.083-.543.292-.751.21-.209.46-.334.752-.334zm4.135-.5c-.418 0-.794.167-1.086.459-.293.291-.46.667-.46 1.125 0 .417.167.793.46 1.126.292.292.668.46 1.086.46.417 0 .793-.168 1.086-.46.292-.291.46-.667.46-1.126 0-.458-.168-.834-.46-1.126a1.518 1.518 0 00-1.086-.458zm1.002 1.584c0 .292-.083.543-.292.751a.917.917 0 01-.71.292c-.293 0-.543-.083-.752-.292-.209-.208-.292-.459-.292-.75 0-.293.083-.543.292-.751.209-.209.418-.292.752-.292.292 0 .543.083.71.292.209.208.292.458.292.75zm3.759.459l-1.337-2.002h-.417v3.045h.501V27.23l1.378 2.002h.417v-3.044h-.542v2.001zm4.092-.5c-.125-.084-.167-.084-.292-.125-.042-.042-.083-.042-.125-.042l-.209-.084c-.25-.083-.376-.166-.46-.208-.083-.042-.124-.125-.124-.25 0-.209.167-.376.459-.376.292 0 .46.126.584.418l.042.083.46-.25-.042-.042c-.167-.417-.585-.667-1.044-.667-.25 0-.501.083-.668.25-.209.167-.292.375-.292.667 0 .209.083.375.208.542a.641.641 0 00.25.167l.251.125.293.084c.25.083.417.166.5.208.084.042.126.125.126.25 0 .25-.209.376-.543.376-.376 0-.584-.167-.71-.459l-.041-.083-.46.25v.041c.167.46.585.751 1.17.751.292 0 .542-.083.75-.25.21-.167.293-.375.293-.667 0-.209-.042-.376-.167-.5-.042-.084-.125-.126-.209-.21zm1.505-1.001h.835v2.544h.5v-2.544h.836v-.5H49.91v.5zm5.554 1.042a.916.916 0 00.167-.542c0-.25-.084-.5-.292-.667-.167-.208-.418-.292-.669-.292h-1.21v3.044h.542v-1.126h.543l.627 1.126h.584l-.71-1.209c.167-.083.293-.209.418-.334zm-.334-.542c0 .125-.042.25-.126.334a.38.38 0 01-.292.125h-.668v-.96h.668a.38.38 0 01.292.126.582.582 0 01.126.375zm3.675 1.001c0 .375-.209.584-.626.584-.418 0-.627-.209-.627-.584v-2.002h-.542v2.002c0 .334.125.626.334.793.209.208.5.291.835.291.334 0 .626-.083.835-.291a1.07 1.07 0 00.334-.793v-2.002h-.543v2.002zm3.509-1.543c.376 0 .668.167.835.5l.042.084.46-.292-.042-.083a1.475 1.475 0 00-1.295-.75c-.46 0-.835.166-1.128.458a1.54 1.54 0 00-.46 1.126c0 .458.168.834.46 1.126.293.292.669.458 1.128.458.292 0 .543-.083.752-.208.25-.125.417-.334.543-.542l.041-.084-.459-.25-.042.084a.95.95 0 01-.835.5c-.292 0-.543-.083-.752-.292-.209-.208-.292-.459-.292-.75 0-.293.083-.543.292-.751.21-.209.418-.334.752-.334zm2.464.042h.835v2.544h.501v-2.544h.877v-.5h-2.213v.5zm4.092-.5h-.542v3.044h.542v-3.044zm3.008-.042a1.52 1.52 0 00-1.086.459c-.292.291-.46.667-.46 1.125 0 .417.168.793.46 1.126.293.292.669.46 1.086.46.418 0 .794-.168 1.086-.46.293-.291.46-.667.46-1.126 0-.458-.168-.834-.46-1.126a1.518 1.518 0 00-1.086-.458zm1.003 1.584c0 .292-.084.543-.293.751a.917.917 0 01-.71.292c-.292 0-.543-.083-.752-.292-.208-.208-.292-.459-.292-.75 0-.293.084-.543.292-.751.21-.209.418-.292.752-.292.293 0 .543.083.71.292.209.208.293.458.293.75zm3.758.459l-1.336-2.002h-.418v3.045h.501V27.23l1.378 2.002h.418v-3.044h-.543v2.001zm5.722-1.543c.376 0 .669.167.836.5l.041.084.46-.292-.042-.083a1.475 1.475 0 00-1.295-.75c-.459 0-.835.166-1.127.458-.293.292-.46.667-.46 1.126 0 .458.167.834.46 1.126.292.292.668.458 1.127.458.293 0 .543-.083.752-.208.25-.125.418-.334.543-.542l.042-.084-.46-.25-.041.084a.95.95 0 01-.836.5c-.292 0-.543-.083-.751-.292-.21-.208-.293-.459-.293-.75 0-.293.084-.543.293-.751.167-.209.417-.334.751-.334zm4.093-.5c-.417 0-.793.167-1.085.459-.293.291-.46.667-.46 1.125 0 .417.167.793.46 1.126.292.292.668.46 1.085.46.418 0 .794-.168 1.086-.46.293-.291.46-.667.46-1.126 0-.458-.167-.834-.46-1.126-.25-.291-.626-.458-1.086-.458zM87.5 27.73c0 .292-.084.543-.293.751a.917.917 0 01-.71.292c-.292 0-.543-.083-.752-.292-.209-.208-.292-.459-.292-.75 0-.293.084-.543.292-.751.21-.209.418-.292.752-.292.293 0 .543.083.71.292.167.208.293.458.293.75zm3.382-.082l-.878-1.46h-.543v3.045h.543v-2.044l.794 1.377h.167l.793-1.377v2.044h.544v-3.044h-.544l-.876 1.46zm4.134-1.459h-1.127v3.044h.542V28.19h.585a.916.916 0 00.71-.292.914.914 0 00.292-.709c0-.292-.084-.542-.292-.709a.979.979 0 00-.71-.291zm.46 1c0 .125-.043.25-.126.376a.474.474 0 01-.334.125h-.585v-1.001h.585c.25 0 .46.208.46.5zm2.464-1l-1.128 3.044h.543l.25-.668h1.17l.25.668h.544l-1.128-3.044h-.501zm.668 1.918h-.794l.418-1.126.376 1.126zm4.051.083l-1.336-2.002h-.418v3.045h.543V27.23l1.336 2.002h.417v-3.044h-.542v2.001zm3.885-2.001l-.752 1.292-.71-1.293h-.585l1.044 1.835v1.21h.543v-1.21l1.044-1.834h-.584z" fill="#000"/><path d="M80.105 21.726V2.752l16.08 3.962.668 15.012H80.105z" fill="#FFBC16"/><path d="M80.482 3.17l15.37 3.794.668 14.387H80.482V3.17zm-.71-.876V22.06H97.23l-.71-15.638-16.748-4.128z" fill="#000"/><path d="M63.065 21.726V2.168L70.541.375l7.434 1.835v19.516h-14.91z" fill="#FFBC16"/><path d="M70.542.709l7.1 1.793v18.89h-14.2V2.46l7.1-1.751zm0-.709l-7.81 1.918v20.184H78.31V1.96L70.542 0z" fill="#000"/><path d="M44.145 21.726l.71-15.012 16.038-3.962v18.974H44.145z" fill="#FFBC16"/><path d="M60.56 3.17v18.223H44.522l.668-14.429L60.56 3.17zm.71-.876L44.564 6.422l-.752 15.638H61.27V2.294zm23.138 5.838v1.46h3.132v9.215h1.546V9.591h3.132v-1.46h-7.81z" fill="#000"/><path d="M52.666 17.473c-1.42 0-2.339-.626-2.673-1.835l-.083-.334-1.337.793.084.208c.543 1.668 2.088 2.67 4.05 2.67 1.087 0 1.964-.293 2.674-.835.71-.584 1.044-1.334 1.044-2.293 0-.5-.167-1.043-.376-1.418-.209-.417-.752-.793-1.044-.96-.167-.124-.376-.208-.752-.333-.334-.125-.543-.209-.71-.25l-.793-.292c-.752-.25-1.337-.5-1.671-.75-.292-.21-.418-.501-.418-.918 0-.96.71-1.501 1.838-1.501 1.086 0 1.838.5 2.255 1.542l.126.292 1.336-.75-.083-.209c-.669-1.46-2.005-2.377-3.592-2.377-.96 0-1.754.292-2.38.834-.669.542-1.003 1.293-1.003 2.252 0 .96.417 1.752 1.295 2.252.334.209 1.044.5 2.171.876.877.292 1.504.542 1.838.792.334.209.46.542.46 1-.084.96-.878 1.544-2.256 1.544zm20.799-5.963c.627-.543.96-1.293.96-2.21 0-.835-.291-1.585-.876-2.17-.585-.625-1.295-.917-2.13-.917h-4.344v11.093h4.678c.835 0 1.587-.334 2.172-.96.584-.625.919-1.375.919-2.25a3.069 3.069 0 00-1.379-2.586zm-4.844.917h3.132c.418 0 .752.167 1.086.5.292.334.46.71.46 1.168 0 .5-.168.876-.46 1.21-.293.333-.627.458-1.086.458H68.62v-3.336zm0-1.543V7.756h2.798c.376 0 .71.126 1.002.46.292.333.418.666.418 1.125 0 .459-.126.792-.418 1.126-.292.292-.626.459-1.002.459H68.62v-.042z" fill="#000"/><path d="M0 47.206l1.963-1.126c.46 1.168 1.336 1.752 2.673 1.752 1.253 0 1.838-.5 1.838-1.21 0-.417-.167-.709-.543-.917-.376-.25-1.003-.459-1.963-.75-1.044-.293-1.67-.543-2.38-1.085C.877 43.328.5 42.535.5 41.493c0-1.043.376-1.877 1.086-2.502.752-.626 1.629-.918 2.673-.918 1.88 0 3.341.96 4.135 2.586l-1.921 1.084c-.46-1-1.212-1.46-2.214-1.46-.919 0-1.503.46-1.503 1.168 0 .376.167.667.459.876.292.208.877.459 1.754.709l.794.25c.167.042.417.167.751.292.293.125.543.25.71.334.335.208.877.625 1.086 1 .25.376.418.96.418 1.627 0 1.084-.376 1.918-1.17 2.544-.793.625-1.795.917-3.007.917C2.255 50.042.626 48.958 0 47.206zm15.077-8.924c1.086 0 2.047.375 2.799 1.126.751.75 1.127 1.668 1.127 2.752 0 1.084-.376 2.002-1.127 2.752-.752.751-1.713 1.126-2.799 1.126h-2.046v3.795h-2.256v-11.51h4.302v-.041zm0 5.63c.961 0 1.671-.751 1.671-1.752 0-1-.71-1.751-1.67-1.751H13.03v3.503h2.046zm8.353 3.711h4.845v2.169h-7.142v-11.51h7.059v2.168H23.43v2.46h4.386v2.128H23.43v2.585zm14.744-9.341v2.168H35.04v9.341h-2.255v-9.34h-3.09v-2.17h8.478zm1.002 8.924l1.963-1.126c.46 1.168 1.336 1.752 2.673 1.752 1.253 0 1.838-.5 1.838-1.21 0-.417-.167-.709-.543-.917-.376-.25-1.003-.459-1.963-.75-1.044-.293-1.671-.543-2.381-1.085-.71-.542-1.086-1.335-1.086-2.377 0-1.043.376-1.877 1.086-2.502.752-.626 1.629-.918 2.673-.918 1.88 0 3.341.96 4.135 2.586l-1.921 1.084c-.46-1-1.212-1.46-2.214-1.46-.919 0-1.504.46-1.504 1.168 0 .376.167.667.46.876.292.208.877.459 1.754.709l.794.25c.167.042.417.167.751.292.293.125.543.25.71.334.334.208.877.625 1.086 1 .25.376.418.96.418 1.627 0 1.084-.376 1.918-1.17 2.544-.793.625-1.795.917-3.007.917-2.297.042-3.884-1.042-4.552-2.794zm19.254-.751c0 .96-.334 1.794-1.044 2.419-.71.626-1.546.917-2.548.917h-4.887v-11.51h4.553c1.002 0 1.796.293 2.506.918.668.626 1.002 1.377 1.002 2.336 0 .959-.376 1.71-1.086 2.293 1.003.584 1.504 1.46 1.504 2.627zm-6.181-6.046v2.543h2.255a1.23 1.23 0 001.253-1.25c0-.71-.501-1.252-1.253-1.252h-2.255v-.041zm2.589 7.297c.794 0 1.337-.583 1.337-1.376 0-.792-.543-1.334-1.337-1.334h-2.631v2.71h2.631zm6.808 1.252c-.836-.71-1.253-1.71-1.253-2.92v-7.756h2.255v7.59c0 1.209.668 1.96 2.13 1.96 1.462 0 2.13-.751 2.13-1.96v-7.548h2.256v7.756c0 1.21-.418 2.169-1.253 2.92-.836.708-1.88 1.083-3.175 1.083-1.21-.041-2.255-.417-3.09-1.125zm14.868-10.676c1.587 0 2.882.542 3.968 1.668 1.086 1.084 1.587 2.46 1.587 4.087 0 1.626-.543 3.002-1.587 4.086-1.044 1.085-2.38 1.669-3.968 1.669H71.92v-11.51h4.594zm0 9.341c1.003 0 1.796-.334 2.423-1 .626-.668.918-1.544.918-2.586 0-1.085-.334-1.919-.918-2.586-.627-.667-1.42-1-2.423-1h-2.297v7.172h2.297z" fill="#FFBC16"/></svg>