<svg width="114" height="40" fill="none" xmlns="http://www.w3.org/2000/svg"><path d="M78.51 30.625v1.735h-2.532v7.473h-1.824V32.36h-2.499v-1.735h6.855zm6.652 9.208l-1.89-3.203h-1.385v3.203h-1.823v-9.207h3.714c.878 0 1.587.3 2.195.9.608.6.912 1.301.912 2.169 0 1.134-.71 2.202-1.79 2.669l2.06 3.47h-1.993zm-3.275-7.506v2.736h1.89c.71 0 1.25-.634 1.25-1.368 0-.734-.574-1.368-1.25-1.368h-1.89zm12.865 7.506l-.574-1.668h-3.714l-.574 1.668h-1.992l3.275-9.207h2.263l3.275 9.207h-1.959zm-3.68-3.336h2.566l-1.283-3.77-1.283 3.77zm10.839-5.872c1.283 0 2.33.434 3.208 1.335.878.867 1.283 1.968 1.283 3.27 0 1.3-.439 2.401-1.283 3.269-.844.867-1.925 1.334-3.208 1.334h-3.714v-9.207h3.714zm0 7.473c.811 0 1.452-.267 1.959-.8.506-.534.743-1.235.743-2.069 0-.867-.27-1.534-.743-2.068-.507-.534-1.148-.8-1.959-.8h-1.857v5.737h1.857zm8.172 0H114v1.735h-5.774v-9.207h5.706v1.734h-3.849v1.969h3.546v1.701h-3.546v2.068zm-81.448-16.78c.304 0 .54.133.675.4l.034.067.372-.234-.034-.066a1.195 1.195 0 00-1.047-.6c-.371 0-.675.132-.912.366a1.224 1.224 0 00-.371.9c0 .368.135.668.371.902.237.233.54.366.912.366.236 0 .44-.066.608-.166.203-.1.338-.267.439-.434l.034-.067-.372-.2-.034.067a.77.77 0 01-.675.4.819.819 0 01-.608-.233.799.799 0 01-.236-.6c0-.234.067-.434.236-.601a.85.85 0 01.608-.267zm3.343-.4c-.338 0-.641.133-.878.367a1.224 1.224 0 00-.371.9c0 .334.135.634.371.9a1.233 1.233 0 001.756 0c.236-.233.372-.533.372-.9s-.136-.667-.372-.9a1.233 1.233 0 00-.878-.367zm.81 1.267a.799.799 0 01-.236.6.745.745 0 01-.574.234.82.82 0 01-.608-.233.799.799 0 01-.236-.6c0-.234.067-.434.236-.601.17-.167.338-.234.608-.234.236 0 .44.067.574.234a.799.799 0 01.237.6zm3.039.367l-1.08-1.601h-.338v2.435h.406v-1.601l1.113 1.601h.338v-2.435h-.439v1.601zm3.309-.4c-.1-.067-.135-.067-.236-.1-.034-.034-.067-.034-.101-.034l-.169-.066c-.203-.067-.304-.134-.371-.167-.068-.034-.102-.1-.102-.2 0-.167.136-.3.372-.3s.371.1.472.333l.034.067.371-.2-.033-.034c-.135-.333-.473-.534-.844-.534a.772.772 0 00-.54.2c-.17.134-.237.3-.237.534 0 .167.068.3.17.434.033.034.1.1.202.134l.202.1.236.066c.203.067.338.134.406.167.067.034.1.1.1.2 0 .2-.168.3-.438.3-.304 0-.473-.133-.574-.366l-.034-.067-.37.2v.033c.134.367.472.6.944.6a.95.95 0 00.608-.2c.169-.133.236-.3.236-.533 0-.167-.034-.3-.135-.4-.034-.067-.101-.1-.169-.167zm1.216-.801h.676v2.035h.405v-2.035h.675v-.4h-1.755v.4zm4.491.834a.728.728 0 00.135-.433c0-.2-.067-.4-.236-.534a.675.675 0 00-.54-.234h-.98v2.436h.44v-.901h.438l.507.9h.472l-.574-.967c.136-.067.237-.167.338-.267zm-.27-.433c0 .1-.034.2-.101.266a.308.308 0 01-.236.1h-.54v-.767h.54c.1 0 .168.034.236.1.067.1.101.167.101.3zm2.971.8c0 .3-.168.467-.506.467-.337 0-.506-.167-.506-.467v-1.601h-.439v1.601c0 .267.101.5.27.634.169.167.405.233.675.233s.507-.066.675-.233a.85.85 0 00.27-.634v-1.601h-.438v1.601zm2.838-1.234c.303 0 .54.133.675.4l.034.067.371-.234-.034-.066a1.195 1.195 0 00-1.046-.6c-.372 0-.676.132-.912.366a1.224 1.224 0 00-.372.9c0 .368.136.668.372.902.236.233.54.366.912.366.236 0 .439-.066.607-.166.203-.1.338-.267.44-.434l.033-.067-.371-.2-.034.067a.77.77 0 01-.675.4.82.82 0 01-.608-.233.799.799 0 01-.237-.6.8.8 0 01.237-.601c.169-.167.337-.267.608-.267zm1.992.033h.675v2.035h.405v-2.035h.709v-.4h-1.79v.4zm3.308-.401h-.438v2.436h.438v-2.435zm2.432-.032c-.337 0-.641.133-.878.367a1.224 1.224 0 00-.371.9c0 .334.135.634.371.9a1.233 1.233 0 001.756 0c.237-.233.372-.533.372-.9s-.135-.667-.372-.9a1.233 1.233 0 00-.878-.367zm.81 1.267a.799.799 0 01-.236.6.745.745 0 01-.574.234.819.819 0 01-.607-.233.799.799 0 01-.237-.6.8.8 0 01.237-.601c.168-.167.337-.234.607-.234.237 0 .44.067.574.234a.799.799 0 01.237.6zm3.039.367l-1.08-1.601h-.337v2.435h.405v-1.601l1.114 1.601h.337v-2.435h-.439v1.601zm4.627-1.234c.304 0 .54.133.675.4l.034.067.372-.234-.034-.066a1.195 1.195 0 00-1.047-.6c-.371 0-.675.132-.912.366a1.224 1.224 0 00-.371.9c0 .368.135.668.371.902.237.233.54.366.912.366.236 0 .44-.066.608-.166.203-.1.338-.267.439-.434l.034-.067-.372-.2-.034.067a.77.77 0 01-.675.4.82.82 0 01-.608-.233.799.799 0 01-.236-.6c0-.234.067-.434.236-.601.135-.167.338-.267.608-.267zm3.31-.4c-.338 0-.642.133-.879.367a1.224 1.224 0 00-.371.9c0 .334.135.634.371.9a1.233 1.233 0 001.756 0c.237-.233.372-.533.372-.9s-.135-.667-.372-.9c-.202-.234-.506-.367-.878-.367zm.843 1.267a.799.799 0 01-.236.6.745.745 0 01-.574.234.819.819 0 01-.608-.233.799.799 0 01-.236-.6c0-.234.067-.434.236-.601.17-.167.338-.234.608-.234.236 0 .44.067.574.234a.953.953 0 01.236.6zm2.736-.067l-.71-1.167h-.438v2.435h.439v-1.634l.641 1.1h.135l.642-1.1v1.634h.439v-2.435h-.44l-.708 1.167zm3.342-1.168h-.911v2.436h.439v-.834h.472a.745.745 0 00.574-.233.727.727 0 00.237-.567c0-.234-.068-.434-.237-.568a.795.795 0 00-.574-.233zm.372.802c0 .1-.034.2-.102.3a.386.386 0 01-.27.1h-.472v-.8h.472c.203 0 .372.166.372.4zm1.992-.802l-.911 2.436h.439l.202-.534h.946l.202.534h.44l-.912-2.435h-.406zm.54 1.535h-.64l.337-.9.304.9zm3.275.067l-1.08-1.601h-.337v2.435h.439v-1.601l1.08 1.601h.338v-2.435H83v1.601zm3.142-1.602l-.608 1.035-.574-1.034h-.473l.844 1.468v.967h.44v-.967l.843-1.468h-.472z" fill="#000"/><path d="M64.766 17.38V2.202l13 3.17.54 12.01h-13.54z" fill="#FFBC16"/><path d="M65.07 2.535l12.427 3.036.54 11.51H65.07V2.535zm-.573-.7v15.813H78.61l-.574-12.51-13.54-3.303z" fill="#000"/><path d="M50.989 17.38V1.736L57.033.3l6.01 1.468V17.38H50.99z" fill="#FFBC16"/><path d="M57.034.567l5.74 1.435v15.112h-11.48V1.968l5.74-1.4zm0-.567l-6.315 1.535V17.68h12.596V1.568L57.034 0z" fill="#000"/><path d="M35.692 17.38l.574-12.01 12.967-3.169v15.18H35.692z" fill="#FFBC16"/><path d="M48.963 2.535v14.58H35.996l.54-11.544 12.427-3.036zm.574-.7L36.03 5.138l-.608 12.51h14.115V1.835zm18.708 4.67v1.168h2.532v7.373h1.25V7.673h2.532V6.505h-6.314z" fill="#000"/><path d="M42.581 13.978c-1.148 0-1.89-.5-2.16-1.468l-.069-.267-1.08.634.068.167c.438 1.335 1.688 2.135 3.275 2.135.878 0 1.587-.233 2.161-.667.574-.467.844-1.068.844-1.835 0-.4-.135-.834-.304-1.134-.168-.334-.607-.634-.844-.767-.135-.1-.304-.167-.608-.267-.27-.1-.439-.167-.574-.2l-.641-.234c-.608-.2-1.08-.4-1.351-.6-.236-.167-.338-.4-.338-.734 0-.768.574-1.201 1.486-1.201.878 0 1.486.4 1.824 1.234l.1.234 1.082-.601-.068-.167c-.54-1.167-1.62-1.901-2.904-1.901-.777 0-1.418.233-1.925.667-.54.434-.81 1.034-.81 1.801 0 .768.337 1.402 1.047 1.802.27.167.844.4 1.755.7.71.234 1.216.434 1.486.634.27.167.372.434.372.801-.068.767-.71 1.234-1.824 1.234zm16.817-4.77c.506-.434.776-1.035.776-1.768 0-.668-.236-1.268-.709-1.735-.473-.5-1.047-.734-1.722-.734H54.23v8.874h3.782a2.37 2.37 0 001.756-.767c.473-.5.743-1.101.743-1.802a2.45 2.45 0 00-1.114-2.068zm-3.918.734h2.533c.338 0 .608.133.878.4.236.267.372.567.372.934 0 .4-.136.7-.372.967s-.506.367-.878.367h-2.532V9.942zm0-1.235V6.205h2.263c.304 0 .574.1.81.367.237.267.338.534.338.9 0 .368-.101.635-.338.902-.236.233-.506.367-.81.367H55.48v-.034z" fill="#000"/><path d="M0 37.765l1.587-.9c.372.933 1.08 1.4 2.161 1.4 1.013 0 1.486-.4 1.486-.967 0-.334-.135-.567-.439-.734-.304-.2-.81-.367-1.587-.6-.844-.234-1.35-.434-1.925-.868-.574-.434-.878-1.068-.878-1.902 0-.834.304-1.5.878-2.001.608-.5 1.317-.734 2.161-.734 1.52 0 2.702.767 3.343 2.068l-1.553.867c-.371-.8-.98-1.167-1.79-1.167-.743 0-1.215.367-1.215.934 0 .3.135.534.371.7.236.167.71.367 1.418.568l.642.2c.135.033.338.133.608.233.236.1.439.2.574.267.27.167.709.5.878.801.202.3.337.767.337 1.301 0 .867-.303 1.535-.945 2.035-.642.5-1.452.734-2.431.734-1.858.033-3.174-.834-3.681-2.235zm12.19-7.14c.878 0 1.655.3 2.263.901.607.6.911 1.335.911 2.202s-.304 1.602-.911 2.202c-.608.6-1.385.9-2.263.9h-1.654v3.037H8.712v-9.208h3.478v-.034zm0 4.504c.777 0 1.35-.6 1.35-1.4 0-.801-.573-1.402-1.35-1.402h-1.654v2.802h1.654zm6.754 2.969h3.917v1.735h-5.774v-9.207h5.706v1.734h-3.85v1.969h3.546v1.701h-3.545v2.068zm11.92-7.473v1.735H28.33v7.473h-1.823V32.36h-2.5v-1.735h6.856zm.81 7.14l1.587-.9c.372.933 1.08 1.4 2.161 1.4 1.014 0 1.486-.4 1.486-.967 0-.334-.135-.567-.439-.734-.304-.2-.81-.367-1.587-.6-.844-.234-1.35-.434-1.925-.868-.574-.434-.878-1.068-.878-1.902 0-.834.304-1.5.878-2.001.608-.5 1.317-.734 2.161-.734 1.52 0 2.702.767 3.343 2.068l-1.553.867c-.371-.8-.98-1.167-1.79-1.167-.742 0-1.215.367-1.215.934 0 .3.135.534.371.7.237.167.71.367 1.419.568l.641.2c.135.033.338.133.608.233.236.1.439.2.574.267.27.167.71.5.878.801.203.3.338.767.338 1.301 0 .867-.304 1.535-.946 2.035-.641.5-1.452.734-2.431.734-1.857.033-3.14-.834-3.68-2.235zm15.567-.601c0 .768-.27 1.435-.844 1.935s-1.25.734-2.06.734h-3.95v-9.207h3.68c.81 0 1.452.233 2.026.733.54.5.81 1.101.81 1.869 0 .767-.303 1.367-.877 1.835.81.467 1.215 1.167 1.215 2.101zm-4.998-4.837v2.035h1.824a.989.989 0 001.013-1c0-.568-.405-1.002-1.013-1.002h-1.824v-.033zm2.094 5.838c.642 0 1.08-.467 1.08-1.1 0-.635-.438-1.068-1.08-1.068H42.21v2.168h2.127zm5.504 1.001c-.675-.567-1.013-1.368-1.013-2.335v-6.206h1.824v6.072c0 .968.54 1.568 1.722 1.568s1.722-.6 1.722-1.568V30.66h1.824v6.205c0 .968-.338 1.735-1.014 2.335-.675.568-1.52.868-2.566.868-.98-.034-1.823-.334-2.499-.901zm12.021-8.541c1.284 0 2.33.434 3.208 1.335.878.867 1.284 1.968 1.284 3.27 0 1.3-.44 2.401-1.284 3.269-.844.867-1.924 1.334-3.207 1.334h-3.715v-9.207h3.714zm0 7.473c.81 0 1.453-.266 1.959-.8.507-.534.743-1.235.743-2.069 0-.867-.27-1.534-.743-2.068-.506-.534-1.148-.8-1.959-.8h-1.857v5.737h1.857z" fill="#FFBC16"/></svg>