<svg width="16" height="15" fill="none" xmlns="http://www.w3.org/2000/svg"><path d="M3.508 6.484a13.566 13.566 0 002.304 3.204c.938.911 2.006 1.68 3.204 2.304l1.836-1.836c.26-.234.546-.3.859-.195a9.328 9.328 0 002.969.469c.234 0 .43.078.586.234a.795.795 0 01.234.586v2.93c0 .234-.078.43-.234.586a.795.795 0 01-.586.234c-4.01-.104-7.357-1.484-10.04-4.14C1.985 8.176.605 4.83.5.82.5.586.578.39.734.234A.795.795 0 011.32 0h2.93c.234 0 .43.078.586.234A.795.795 0 015.07.82c0 1.042.157 2.032.47 2.97.103.312.038.598-.196.858L3.508 6.484z" fill="#FFBC16"/></svg>