<svg width="142" height="395" fill="none" xmlns="http://www.w3.org/2000/svg"><path d="M2.309 4.386c1.232 0 2.19-.96 2.19-2.193A2.164 2.164 0 002.31 0C1.077 0 .119.96.119 2.193s.958 2.193 2.19 2.193zm19.441 0c1.233 0 2.19-.96 2.19-2.193A2.164 2.164 0 0021.75 0c-1.232 0-2.19.96-2.19 2.193.137 1.233 1.095 2.193 2.19 2.193zm19.579 0c1.232 0 2.19-.96 2.19-2.193A2.164 2.164 0 0041.33 0c-1.233 0-2.191.96-2.191 2.193s.958 2.193 2.19 2.193zm19.441 0c1.232 0 2.19-.96 2.19-2.193A2.164 2.164 0 0060.77 0c-1.232 0-2.19.96-2.19 2.193.136 1.233 1.095 2.193 2.19 2.193zm19.578 0c1.233 0 2.19-.96 2.19-2.193A2.164 2.164 0 0080.349 0c-1.232 0-2.19.96-2.19 2.193s.958 2.193 2.19 2.193zm19.579 0c1.232 0 2.19-.96 2.19-2.193A2.163 2.163 0 0099.927 0c-1.233 0-2.191.96-2.191 2.193s.958 2.193 2.19 2.193zm19.441 0c1.232 0 2.191-.96 2.191-2.193A2.164 2.164 0 00119.368 0c-1.232 0-2.191.96-2.191 2.193s.959 2.193 2.191 2.193zm19.578 0c1.233 0 2.191-.96 2.191-2.193A2.164 2.164 0 00138.946 0c-1.232 0-2.19.96-2.19 2.193s.958 2.193 2.19 2.193zM2.309 43.447c1.232 0 2.19-.96 2.19-2.193a2.164 2.164 0 00-2.19-2.193c-1.232 0-2.19.96-2.19 2.193 0 1.234.958 2.193 2.19 2.193zm19.441 0c1.233 0 2.19-.96 2.19-2.193a2.164 2.164 0 00-2.19-2.193c-1.232 0-2.19.96-2.19 2.193.137 1.234 1.095 2.193 2.19 2.193zm19.579 0c1.232 0 2.19-.96 2.19-2.193a2.164 2.164 0 00-2.19-2.193c-1.233 0-2.191.96-2.191 2.193 0 1.234.958 2.193 2.19 2.193zm19.441 0c1.21 0 2.19-.982 2.19-2.193a2.192 2.192 0 10-2.19 2.193zm19.578 0c1.233 0 2.19-.96 2.19-2.193a2.164 2.164 0 00-2.19-2.193c-1.232 0-2.19.96-2.19 2.193 0 1.234.958 2.193 2.19 2.193zm19.579 0c1.232 0 2.19-.96 2.19-2.193a2.163 2.163 0 00-2.19-2.193c-1.233 0-2.191.96-2.191 2.193 0 1.234.958 2.193 2.19 2.193zm19.441 0c1.232 0 2.191-.96 2.191-2.193a2.164 2.164 0 00-2.191-2.193c-1.232 0-2.191.96-2.191 2.193 0 1.234.959 2.193 2.191 2.193zm19.578 0c1.233 0 2.191-.96 2.191-2.193a2.164 2.164 0 00-2.191-2.193c-1.232 0-2.19.96-2.19 2.193 0 1.234.958 2.193 2.19 2.193zM2.309 82.509c1.232 0 2.19-.96 2.19-2.193a2.164 2.164 0 00-2.19-2.193c-1.232 0-2.19.96-2.19 2.193s.958 2.193 2.19 2.193zm19.441 0c1.233 0 2.19-.96 2.19-2.193a2.164 2.164 0 00-2.19-2.193c-1.232 0-2.19.96-2.19 2.193.137 1.233 1.095 2.193 2.19 2.193zm19.579 0c1.232 0 2.19-.96 2.19-2.193a2.164 2.164 0 00-2.19-2.193c-1.233 0-2.191.96-2.191 2.193s.958 2.193 2.19 2.193zm19.441 0c1.232 0 2.19-.96 2.19-2.193a2.164 2.164 0 00-2.19-2.193c-1.232 0-2.19.96-2.19 2.193.136 1.233 1.095 2.193 2.19 2.193zm19.578 0c1.233 0 2.19-.96 2.19-2.193a2.164 2.164 0 00-2.19-2.193c-1.232 0-2.19.96-2.19 2.193s.958 2.193 2.19 2.193zm19.579 0c1.232 0 2.19-.96 2.19-2.193a2.163 2.163 0 00-2.19-2.193c-1.233 0-2.191.96-2.191 2.193s.958 2.193 2.19 2.193zm19.441 0c1.232 0 2.191-.96 2.191-2.193a2.164 2.164 0 00-2.191-2.193c-1.232 0-2.191.96-2.191 2.193s.959 2.193 2.191 2.193zm19.578 0c1.233 0 2.191-.96 2.191-2.193a2.164 2.164 0 00-2.191-2.193c-1.232 0-2.19.96-2.19 2.193s.958 2.193 2.19 2.193zM2.309 121.57c1.232 0 2.19-.959 2.19-2.193a2.164 2.164 0 00-2.19-2.193c-1.232 0-2.19.96-2.19 2.193 0 1.234.958 2.193 2.19 2.193zm19.441 0c1.233 0 2.19-.959 2.19-2.193a2.164 2.164 0 00-2.19-2.193c-1.232 0-2.19.96-2.19 2.193.137 1.234 1.095 2.193 2.19 2.193zm19.579 0c1.232 0 2.19-.959 2.19-2.193a2.164 2.164 0 00-2.19-2.193c-1.233 0-2.191.96-2.191 2.193 0 1.234.958 2.193 2.19 2.193zm19.441 0c1.232 0 2.19-.959 2.19-2.193a2.164 2.164 0 00-2.19-2.193c-1.232 0-2.19.96-2.19 2.193.136 1.234 1.095 2.193 2.19 2.193zm19.578 0c1.233 0 2.19-.959 2.19-2.193a2.164 2.164 0 00-2.19-2.193c-1.232 0-2.19.96-2.19 2.193 0 1.234.958 2.193 2.19 2.193zm19.579 0c1.232 0 2.19-.959 2.19-2.193a2.164 2.164 0 00-2.19-2.193c-1.233 0-2.191.96-2.191 2.193 0 1.234.958 2.193 2.19 2.193zm19.441 0a2.164 2.164 0 002.191-2.193 2.165 2.165 0 00-2.191-2.193c-1.232 0-2.191.96-2.191 2.193 0 1.234.959 2.193 2.191 2.193zm19.578 0a2.163 2.163 0 002.191-2.193 2.164 2.164 0 00-2.191-2.193c-1.232 0-2.19.96-2.19 2.193 0 1.234.958 2.193 2.19 2.193zM2.309 160.632c1.232 0 2.19-.96 2.19-2.193a2.163 2.163 0 00-2.19-2.193c-1.232 0-2.19.959-2.19 2.193 0 1.233.958 2.193 2.19 2.193zm19.441 0c1.233 0 2.19-.96 2.19-2.193a2.164 2.164 0 00-2.19-2.193c-1.232 0-2.19.959-2.19 2.193.137 1.233 1.095 2.193 2.19 2.193zm19.579 0c1.232 0 2.19-.96 2.19-2.193a2.164 2.164 0 00-2.19-2.193 2.163 2.163 0 00-2.191 2.193c0 1.233.958 2.193 2.19 2.193zm19.441 0c1.21 0 2.19-.982 2.19-2.193a2.191 2.191 0 10-4.38 0c0 1.211.98 2.193 2.19 2.193zm19.578 0c1.233 0 2.19-.96 2.19-2.193a2.164 2.164 0 00-2.19-2.193c-1.232 0-2.19.959-2.19 2.193 0 1.233.958 2.193 2.19 2.193zm19.579 0c1.232 0 2.19-.96 2.19-2.193a2.163 2.163 0 00-2.19-2.193 2.163 2.163 0 00-2.191 2.193c0 1.233.958 2.193 2.19 2.193zm19.441 0c1.232 0 2.191-.96 2.191-2.193a2.164 2.164 0 00-2.191-2.193 2.164 2.164 0 00-2.191 2.193c0 1.233.959 2.193 2.191 2.193zm19.578 0c1.233 0 2.191-.96 2.191-2.193a2.163 2.163 0 00-2.191-2.193c-1.232 0-2.19.959-2.19 2.193 0 1.233.958 2.193 2.19 2.193zM2.309 199.693c1.232 0 2.19-.959 2.19-2.193a2.163 2.163 0 00-2.19-2.193c-1.232 0-2.19.959-2.19 2.193s.958 2.193 2.19 2.193zm19.441 0c1.233 0 2.19-.959 2.19-2.193a2.164 2.164 0 00-2.19-2.193c-1.232 0-2.19.959-2.19 2.193.137 1.234 1.095 2.193 2.19 2.193zm19.579 0c1.232 0 2.19-.959 2.19-2.193a2.164 2.164 0 00-2.19-2.193c-1.233 0-2.191.959-2.191 2.193s.958 2.193 2.19 2.193zm19.441 0c1.232 0 2.19-.959 2.19-2.193a2.164 2.164 0 00-2.19-2.193c-1.232 0-2.19.959-2.19 2.193.136 1.234 1.095 2.193 2.19 2.193zm19.578 0c1.233 0 2.19-.959 2.19-2.193a2.164 2.164 0 00-2.19-2.193c-1.232 0-2.19.959-2.19 2.193s.958 2.193 2.19 2.193zm19.579 0c1.232 0 2.19-.959 2.19-2.193a2.163 2.163 0 00-2.19-2.193c-1.233 0-2.191.959-2.191 2.193s.958 2.193 2.19 2.193zm19.441 0a2.164 2.164 0 002.191-2.193 2.164 2.164 0 00-2.191-2.193 2.164 2.164 0 00-2.191 2.193c0 1.234.959 2.193 2.191 2.193zm19.578 0a2.163 2.163 0 002.191-2.193 2.163 2.163 0 00-2.191-2.193c-1.232 0-2.19.959-2.19 2.193s.958 2.193 2.19 2.193zM2.309 238.754c1.232 0 2.19-.959 2.19-2.193a2.163 2.163 0 00-2.19-2.192c-1.232 0-2.19.959-2.19 2.192 0 1.234.958 2.193 2.19 2.193zm19.441 0c1.233 0 2.19-.959 2.19-2.193a2.163 2.163 0 00-2.19-2.192c-1.232 0-2.19.959-2.19 2.192.137 1.234 1.095 2.193 2.19 2.193zm19.579 0c1.232 0 2.19-.959 2.19-2.193a2.163 2.163 0 00-2.19-2.192 2.163 2.163 0 00-2.191 2.192c0 1.234.958 2.193 2.19 2.193zm19.441 0c1.232 0 2.19-.959 2.19-2.193a2.163 2.163 0 00-2.19-2.192c-1.232 0-2.19.959-2.19 2.192.136 1.234 1.095 2.193 2.19 2.193zm19.578 0c1.233 0 2.19-.959 2.19-2.193a2.163 2.163 0 00-2.19-2.192c-1.232 0-2.19.959-2.19 2.192 0 1.234.958 2.193 2.19 2.193zm19.579 0c1.232 0 2.19-.959 2.19-2.193a2.163 2.163 0 00-2.19-2.192 2.163 2.163 0 00-2.191 2.192c0 1.234.958 2.193 2.19 2.193zm19.441 0a2.164 2.164 0 002.191-2.193 2.164 2.164 0 00-2.191-2.192 2.164 2.164 0 00-2.191 2.192c0 1.234.959 2.193 2.191 2.193zm19.578 0a2.163 2.163 0 002.191-2.193 2.163 2.163 0 00-2.191-2.192c-1.232 0-2.19.959-2.19 2.192 0 1.234.958 2.193 2.19 2.193zM2.309 277.816c1.232 0 2.19-.96 2.19-2.193a2.163 2.163 0 00-2.19-2.193c-1.232 0-2.19.959-2.19 2.193 0 1.233.958 2.193 2.19 2.193zm19.441 0c1.233 0 2.19-.96 2.19-2.193a2.164 2.164 0 00-2.19-2.193c-1.232 0-2.19.959-2.19 2.193.137 1.233 1.095 2.193 2.19 2.193zm19.579 0c1.232 0 2.19-.96 2.19-2.193a2.164 2.164 0 00-2.19-2.193 2.163 2.163 0 00-2.191 2.193c0 1.233.958 2.193 2.19 2.193zm19.441 0c1.232 0 2.19-.96 2.19-2.193a2.164 2.164 0 00-2.19-2.193c-1.232 0-2.19.959-2.19 2.193.136 1.233 1.095 2.193 2.19 2.193zm19.578 0c1.233 0 2.19-.96 2.19-2.193a2.164 2.164 0 00-2.19-2.193c-1.232 0-2.19.959-2.19 2.193 0 1.233.958 2.193 2.19 2.193zm19.579 0c1.232 0 2.19-.96 2.19-2.193a2.163 2.163 0 00-2.19-2.193 2.163 2.163 0 00-2.191 2.193c0 1.233.958 2.193 2.19 2.193zm19.441 0c1.232 0 2.191-.96 2.191-2.193a2.164 2.164 0 00-2.191-2.193 2.164 2.164 0 00-2.191 2.193c0 1.233.959 2.193 2.191 2.193zm19.578 0c1.233 0 2.191-.96 2.191-2.193a2.163 2.163 0 00-2.191-2.193c-1.232 0-2.19.959-2.19 2.193 0 1.233.958 2.193 2.19 2.193zM2.309 316.877c1.232 0 2.19-.959 2.19-2.193a2.164 2.164 0 00-2.19-2.193c-1.232 0-2.19.96-2.19 2.193 0 1.234.958 2.193 2.19 2.193zm19.441 0c1.233 0 2.19-.959 2.19-2.193a2.164 2.164 0 00-2.19-2.193c-1.232 0-2.19.96-2.19 2.193.137 1.234 1.095 2.193 2.19 2.193zm19.579 0c1.232 0 2.19-.959 2.19-2.193a2.164 2.164 0 00-2.19-2.193c-1.233 0-2.191.96-2.191 2.193 0 1.234.958 2.193 2.19 2.193zm19.441 0c1.232 0 2.19-.959 2.19-2.193a2.164 2.164 0 00-2.19-2.193c-1.232 0-2.19.96-2.19 2.193.136 1.234 1.095 2.193 2.19 2.193zm19.578 0c1.233 0 2.19-.959 2.19-2.193a2.164 2.164 0 00-2.19-2.193c-1.232 0-2.19.96-2.19 2.193 0 1.234.958 2.193 2.19 2.193zm19.579 0c1.232 0 2.19-.959 2.19-2.193a2.164 2.164 0 00-2.19-2.193c-1.233 0-2.191.96-2.191 2.193 0 1.234.958 2.193 2.19 2.193zm19.441 0a2.164 2.164 0 002.191-2.193 2.165 2.165 0 00-2.191-2.193c-1.232 0-2.191.96-2.191 2.193 0 1.234.959 2.193 2.191 2.193zm19.578 0a2.163 2.163 0 002.191-2.193 2.164 2.164 0 00-2.191-2.193c-1.232 0-2.19.96-2.19 2.193 0 1.234.958 2.193 2.19 2.193zM2.309 355.939c1.232 0 2.19-.96 2.19-2.193a2.163 2.163 0 00-2.19-2.193c-1.232 0-2.19.959-2.19 2.193 0 1.233.958 2.193 2.19 2.193zm19.441 0c1.233 0 2.19-.96 2.19-2.193a2.164 2.164 0 00-2.19-2.193c-1.232 0-2.19.959-2.19 2.193.137 1.233 1.095 2.193 2.19 2.193zm19.579 0c1.232 0 2.19-.96 2.19-2.193a2.164 2.164 0 00-2.19-2.193 2.163 2.163 0 00-2.191 2.193c0 1.233.958 2.193 2.19 2.193zm19.441 0c1.21 0 2.19-.982 2.19-2.193s-.98-2.193-2.19-2.193-2.19.982-2.19 2.193.98 2.193 2.19 2.193zm19.578 0c1.233 0 2.19-.96 2.19-2.193a2.164 2.164 0 00-2.19-2.193c-1.232 0-2.19.959-2.19 2.193 0 1.233.958 2.193 2.19 2.193zm19.579 0c1.232 0 2.19-.96 2.19-2.193a2.163 2.163 0 00-2.19-2.193 2.163 2.163 0 00-2.191 2.193c0 1.233.958 2.193 2.19 2.193zm19.441 0c1.232 0 2.191-.96 2.191-2.193a2.164 2.164 0 00-2.191-2.193 2.164 2.164 0 00-2.191 2.193c0 1.233.959 2.193 2.191 2.193zm19.578 0c1.233 0 2.191-.96 2.191-2.193a2.163 2.163 0 00-2.191-2.193c-1.232 0-2.19.959-2.19 2.193 0 1.233.958 2.193 2.19 2.193zM2.309 23.848c1.232 0 2.19-.96 2.19-2.193a2.164 2.164 0 00-2.19-2.193c-1.232 0-2.19.96-2.19 2.193 0 1.234.958 2.193 2.19 2.193zm19.441 0c1.233 0 2.19-.96 2.19-2.193a2.164 2.164 0 00-2.19-2.193c-1.232 0-2.19.96-2.19 2.193.137 1.234 1.095 2.193 2.19 2.193zm19.579 0c1.232 0 2.19-.96 2.19-2.193a2.164 2.164 0 00-2.19-2.193c-1.233 0-2.191.96-2.191 2.193 0 1.234.958 2.193 2.19 2.193zm19.441 0c1.232 0 2.19-.96 2.19-2.193a2.164 2.164 0 00-2.19-2.193c-1.232 0-2.19.96-2.19 2.193.136 1.234 1.095 2.193 2.19 2.193zm19.578 0c1.233 0 2.19-.96 2.19-2.193a2.164 2.164 0 00-2.19-2.193c-1.232 0-2.19 1.097-2.19 2.193 0 1.234.958 2.193 2.19 2.193zm19.579 0c1.232 0 2.19-.96 2.19-2.193a2.163 2.163 0 00-2.19-2.193c-1.233 0-2.191.96-2.191 2.193 0 1.234.958 2.193 2.19 2.193zm19.441 0c1.232 0 2.191-.96 2.191-2.193a2.164 2.164 0 00-2.191-2.193c-1.232 0-2.191.96-2.191 2.193 0 1.234.959 2.193 2.191 2.193zm19.578 0c1.233 0 2.191-.96 2.191-2.193a2.164 2.164 0 00-2.191-2.193c-1.232 0-2.19.96-2.19 2.193 0 1.234.958 2.193 2.19 2.193zM2.309 62.91c1.232 0 2.19-.96 2.19-2.193a2.164 2.164 0 00-2.19-2.193c-1.232 0-2.19.959-2.19 2.193 0 1.233.958 2.192 2.19 2.192zm19.441 0c1.233 0 2.19-.96 2.19-2.193a2.164 2.164 0 00-2.19-2.193c-1.232 0-2.19.959-2.19 2.193.137 1.233 1.095 2.192 2.19 2.192zm19.579 0c1.232 0 2.19-.96 2.19-2.193a2.164 2.164 0 00-2.19-2.193 2.163 2.163 0 00-2.191 2.193c0 1.233.958 2.192 2.19 2.192zm19.441 0c1.232 0 2.19-.96 2.19-2.193a2.164 2.164 0 00-2.19-2.193c-1.232 0-2.19.959-2.19 2.193.136 1.233 1.095 2.192 2.19 2.192zm19.578 0c1.233 0 2.19-.96 2.19-2.193a2.164 2.164 0 00-2.19-2.193c-1.232 0-2.19.959-2.19 2.193 0 1.233.958 2.192 2.19 2.192zm19.579 0c1.232 0 2.19-.96 2.19-2.193a2.163 2.163 0 00-2.19-2.193 2.163 2.163 0 00-2.191 2.193c0 1.233.958 2.192 2.19 2.192zm19.441 0c1.232 0 2.191-.96 2.191-2.193a2.164 2.164 0 00-2.191-2.193 2.164 2.164 0 00-2.191 2.193c0 1.233.959 2.192 2.191 2.192zm19.578 0c1.233 0 2.191-.96 2.191-2.193a2.164 2.164 0 00-2.191-2.193c-1.232 0-2.19.959-2.19 2.193 0 1.233.958 2.192 2.19 2.192zM2.309 101.971c1.232 0 2.19-.96 2.19-2.193a2.164 2.164 0 00-2.19-2.193c-1.232 0-2.19.96-2.19 2.193s.958 2.193 2.19 2.193zm21.645-2.074a2.192 2.192 0 10-4.383-.013 2.192 2.192 0 004.383.013zm17.375 2.074c1.232 0 2.19-.96 2.19-2.193a2.164 2.164 0 00-2.19-2.193c-1.233 0-2.191.96-2.191 2.193s.958 2.193 2.19 2.193zm19.441 0c1.232 0 2.19-.96 2.19-2.193a2.164 2.164 0 00-2.19-2.193c-1.232 0-2.19.96-2.19 2.193.136 1.233 1.095 2.193 2.19 2.193zm19.578 0c1.233 0 2.19-.96 2.19-2.193a2.164 2.164 0 00-2.19-2.193c-1.232 0-2.19 1.096-2.19 2.193 0 1.233.958 2.193 2.19 2.193zm19.579 0c1.232 0 2.19-.96 2.19-2.193a2.163 2.163 0 00-2.19-2.193c-1.233 0-2.191.96-2.191 2.193s.958 2.193 2.19 2.193zm19.441 0c1.232 0 2.191-.96 2.191-2.193a2.164 2.164 0 00-2.191-2.193c-1.232 0-2.191.96-2.191 2.193s.959 2.193 2.191 2.193zm19.578 0c1.233 0 2.191-.96 2.191-2.193a2.164 2.164 0 00-2.191-2.193c-1.232 0-2.19.96-2.19 2.193s.958 2.193 2.19 2.193zM2.309 141.032c1.232 0 2.19-.959 2.19-2.193a2.164 2.164 0 00-2.19-2.193c-1.232 0-2.19.96-2.19 2.193 0 1.234.958 2.193 2.19 2.193zm19.441 0c1.233 0 2.19-.959 2.19-2.193a2.164 2.164 0 00-2.19-2.193c-1.232 0-2.19.96-2.19 2.193.137 1.234 1.095 2.193 2.19 2.193zm19.579 0c1.232 0 2.19-.959 2.19-2.193a2.164 2.164 0 00-2.19-2.193c-1.233 0-2.191.96-2.191 2.193 0 1.234.958 2.193 2.19 2.193zm19.441 0c1.232 0 2.19-.959 2.19-2.193a2.164 2.164 0 00-2.19-2.193c-1.232 0-2.19.96-2.19 2.193.136 1.234 1.095 2.193 2.19 2.193zm19.578 0c1.233 0 2.19-.959 2.19-2.193a2.164 2.164 0 00-2.19-2.193c-1.232 0-2.19.96-2.19 2.193 0 1.234.958 2.193 2.19 2.193zm19.579 0c1.232 0 2.19-.959 2.19-2.193a2.164 2.164 0 00-2.19-2.193c-1.233 0-2.191.96-2.191 2.193 0 1.234.958 2.193 2.19 2.193zm19.441 0a2.164 2.164 0 002.191-2.193 2.165 2.165 0 00-2.191-2.193c-1.232 0-2.191.96-2.191 2.193 0 1.234.959 2.193 2.191 2.193zm19.578 0a2.163 2.163 0 002.191-2.193 2.164 2.164 0 00-2.191-2.193c-1.232 0-2.19.96-2.19 2.193 0 1.234.958 2.193 2.19 2.193zM2.309 180.094c1.232 0 2.19-.96 2.19-2.193a2.163 2.163 0 00-2.19-2.193c-1.232 0-2.19.959-2.19 2.193 0 1.233.958 2.193 2.19 2.193zm19.441 0c1.233 0 2.19-.96 2.19-2.193a2.164 2.164 0 00-2.19-2.193c-1.232 0-2.19.959-2.19 2.193.137 1.233 1.095 2.193 2.19 2.193zm19.579 0c1.232 0 2.19-.96 2.19-2.193a2.164 2.164 0 00-2.19-2.193 2.163 2.163 0 00-2.191 2.193c0 1.233.958 2.193 2.19 2.193zm19.441 0c1.232 0 2.19-.96 2.19-2.193a2.164 2.164 0 00-2.19-2.193c-1.232 0-2.19.959-2.19 2.193.136 1.233 1.095 2.193 2.19 2.193zm19.578 0c1.233 0 2.19-.96 2.19-2.193a2.164 2.164 0 00-2.19-2.193c-1.232 0-2.19.959-2.19 2.193 0 1.233.958 2.193 2.19 2.193zm19.579 0c1.232 0 2.19-.96 2.19-2.193a2.163 2.163 0 00-2.19-2.193 2.163 2.163 0 00-2.191 2.193c0 1.233.958 2.193 2.19 2.193zm19.441 0c1.232 0 2.191-.96 2.191-2.193a2.164 2.164 0 00-2.191-2.193 2.164 2.164 0 00-2.191 2.193c0 1.233.959 2.193 2.191 2.193zm19.578 0c1.233 0 2.191-.96 2.191-2.193a2.163 2.163 0 00-2.191-2.193c-1.232 0-2.19.959-2.19 2.193 0 1.233.958 2.193 2.19 2.193zM2.309 219.155c1.232 0 2.19-.959 2.19-2.193a2.164 2.164 0 00-2.19-2.193c-1.232 0-2.19.96-2.19 2.193 0 1.234.958 2.193 2.19 2.193zm21.636-2.064a2.192 2.192 0 10-4.381-.011 2.192 2.192 0 002.185 2.199 2.192 2.192 0 002.196-2.188zm17.384 2.064c1.232 0 2.19-.959 2.19-2.193a2.164 2.164 0 00-2.19-2.193c-1.233 0-2.191.96-2.191 2.193 0 1.234.958 2.193 2.19 2.193zm19.441 0c1.232 0 2.19-.959 2.19-2.193a2.164 2.164 0 00-2.19-2.193c-1.232 0-2.19.96-2.19 2.193.136 1.234 1.095 2.193 2.19 2.193zm19.578 0c1.233 0 2.19-.959 2.19-2.193a2.164 2.164 0 00-2.19-2.193c-1.232 0-2.19.96-2.19 2.193 0 1.234.958 2.193 2.19 2.193zm19.579 0c1.232 0 2.19-.959 2.19-2.193a2.164 2.164 0 00-2.19-2.193c-1.233 0-2.191.96-2.191 2.193 0 1.234.958 2.193 2.19 2.193zm19.441 0a2.164 2.164 0 002.191-2.193 2.165 2.165 0 00-2.191-2.193c-1.232 0-2.191.96-2.191 2.193 0 1.234.959 2.193 2.191 2.193zm19.578 0a2.163 2.163 0 002.191-2.193 2.164 2.164 0 00-2.191-2.193c-1.232 0-2.19.96-2.19 2.193 0 1.234.958 2.193 2.19 2.193zM2.309 258.217c1.232 0 2.19-.96 2.19-2.193a2.163 2.163 0 00-2.19-2.193c-1.232 0-2.19.959-2.19 2.193 0 1.233.958 2.193 2.19 2.193zm19.441 0c1.233 0 2.19-.96 2.19-2.193a2.164 2.164 0 00-2.19-2.193c-1.232 0-2.19.959-2.19 2.193.137 1.233 1.095 2.193 2.19 2.193zm19.579 0c1.232 0 2.19-.96 2.19-2.193a2.164 2.164 0 00-2.19-2.193 2.163 2.163 0 00-2.191 2.193c0 1.233.958 2.193 2.19 2.193zm19.441 0c1.232 0 2.19-.96 2.19-2.193a2.164 2.164 0 00-2.19-2.193c-1.232 0-2.19.959-2.19 2.193.136 1.233 1.095 2.193 2.19 2.193zm19.578 0c1.233 0 2.19-.96 2.19-2.193a2.164 2.164 0 00-2.19-2.193c-1.232 0-2.19.959-2.19 2.193 0 1.233.958 2.193 2.19 2.193zm19.579 0c1.232 0 2.19-.96 2.19-2.193a2.163 2.163 0 00-2.19-2.193 2.163 2.163 0 00-2.191 2.193c0 1.233.958 2.193 2.19 2.193zm19.441 0c1.232 0 2.191-.96 2.191-2.193a2.164 2.164 0 00-2.191-2.193 2.164 2.164 0 00-2.191 2.193c0 1.233.959 2.193 2.191 2.193zm19.578 0c1.233 0 2.191-.96 2.191-2.193a2.163 2.163 0 00-2.191-2.193c-1.232 0-2.19.959-2.19 2.193 0 1.233.958 2.193 2.19 2.193zM2.309 297.278c1.232 0 2.19-.959 2.19-2.193a2.164 2.164 0 00-2.19-2.193c-1.232 0-2.19.96-2.19 2.193 0 1.234.958 2.193 2.19 2.193zm19.441 0c1.233 0 2.19-.959 2.19-2.193a2.164 2.164 0 00-2.19-2.193c-1.232 0-2.19.96-2.19 2.193.137 1.234 1.095 2.193 2.19 2.193zm19.579 0c1.232 0 2.19-.959 2.19-2.193a2.164 2.164 0 00-2.19-2.193c-1.233 0-2.191.96-2.191 2.193 0 1.234.958 2.193 2.19 2.193zm19.441 0c1.232 0 2.19-.959 2.19-2.193a2.164 2.164 0 00-2.19-2.193c-1.232 0-2.19.96-2.19 2.193.136 1.234 1.095 2.193 2.19 2.193zm19.578 0c1.233 0 2.19-.959 2.19-2.193a2.164 2.164 0 00-2.19-2.193c-1.232 0-2.19.96-2.19 2.193 0 1.234.958 2.193 2.19 2.193zm19.579 0c1.232 0 2.19-.959 2.19-2.193a2.164 2.164 0 00-2.19-2.193c-1.233 0-2.191.96-2.191 2.193 0 1.234.958 2.193 2.19 2.193zm19.441 0a2.164 2.164 0 002.191-2.193 2.165 2.165 0 00-2.191-2.193c-1.232 0-2.191.96-2.191 2.193 0 1.234.959 2.193 2.191 2.193zm19.578 0a2.163 2.163 0 002.191-2.193 2.164 2.164 0 00-2.191-2.193c-1.232 0-2.19.96-2.19 2.193 0 1.234.958 2.193 2.19 2.193zM2.309 336.339c1.232 0 2.19-.959 2.19-2.193a2.164 2.164 0 00-2.19-2.193c-1.232 0-2.19.96-2.19 2.193 0 1.234.958 2.193 2.19 2.193zm19.441 0c1.233 0 2.19-.959 2.19-2.193a2.164 2.164 0 00-2.19-2.193c-1.232 0-2.19.96-2.19 2.193.137 1.234 1.095 2.193 2.19 2.193zm19.579 0c1.232 0 2.19-.959 2.19-2.193a2.164 2.164 0 00-2.19-2.193c-1.233 0-2.191.96-2.191 2.193 0 1.234.958 2.193 2.19 2.193zm19.441 0c1.232 0 2.19-.959 2.19-2.193a2.164 2.164 0 00-2.19-2.193c-1.232 0-2.19.96-2.19 2.193.136 1.234 1.095 2.193 2.19 2.193zm19.578 0c1.233 0 2.19-.959 2.19-2.193a2.164 2.164 0 00-2.19-2.193c-1.232 0-2.19.96-2.19 2.193 0 1.234.958 2.193 2.19 2.193zm19.579 0c1.232 0 2.19-.959 2.19-2.193a2.164 2.164 0 00-2.19-2.193c-1.233 0-2.191.96-2.191 2.193 0 1.234.958 2.193 2.19 2.193zm19.441 0a2.164 2.164 0 002.191-2.193 2.165 2.165 0 00-2.191-2.193c-1.232 0-2.191.96-2.191 2.193 0 1.234.959 2.193 2.191 2.193zm19.578 0a2.163 2.163 0 002.191-2.193 2.164 2.164 0 00-2.191-2.193c-1.232 0-2.19.96-2.19 2.193 0 1.234.958 2.193 2.19 2.193zM2.309 375.401c1.232 0 2.19-.96 2.19-2.193a2.163 2.163 0 00-2.19-2.193c-1.232 0-2.19.959-2.19 2.193 0 1.233.958 2.193 2.19 2.193zm19.441 0c1.233 0 2.19-.96 2.19-2.193a2.164 2.164 0 00-2.19-2.193c-1.232 0-2.19.959-2.19 2.193.137 1.233 1.095 2.193 2.19 2.193zm19.579 0c1.232 0 2.19-.96 2.19-2.193a2.164 2.164 0 00-2.19-2.193 2.163 2.163 0 00-2.191 2.193c0 1.233.958 2.193 2.19 2.193zm19.441 0c1.232 0 2.19-.96 2.19-2.193a2.164 2.164 0 00-2.19-2.193c-1.232 0-2.19.959-2.19 2.193.136 1.233 1.095 2.193 2.19 2.193zm19.578 0c1.233 0 2.19-.96 2.19-2.193a2.164 2.164 0 00-2.19-2.193c-1.232 0-2.19.959-2.19 2.193 0 1.233.958 2.193 2.19 2.193zm19.579 0c1.232 0 2.19-.96 2.19-2.193a2.163 2.163 0 00-2.19-2.193 2.163 2.163 0 00-2.191 2.193c0 1.233.958 2.193 2.19 2.193zm19.441 0c1.232 0 2.191-.96 2.191-2.193a2.164 2.164 0 00-2.191-2.193 2.164 2.164 0 00-2.191 2.193c0 1.233.959 2.193 2.191 2.193zm19.578 0c1.233 0 2.191-.96 2.191-2.193a2.163 2.163 0 00-2.191-2.193c-1.232 0-2.19.959-2.19 2.193 0 1.233.958 2.193 2.19 2.193zM2.309 395c1.232 0 2.19-.959 2.19-2.193a2.164 2.164 0 00-2.19-2.193c-1.232 0-2.19.96-2.19 2.193 0 1.234.958 2.193 2.19 2.193zm19.441 0c1.233 0 2.19-.959 2.19-2.193a2.164 2.164 0 00-2.19-2.193c-1.232 0-2.19.96-2.19 2.193.137 1.234 1.095 2.193 2.19 2.193zm19.579 0c1.232 0 2.19-.959 2.19-2.193a2.164 2.164 0 00-2.19-2.193c-1.233 0-2.191.96-2.191 2.193 0 1.234.958 2.193 2.19 2.193zm19.441 0c1.232 0 2.19-.959 2.19-2.193a2.164 2.164 0 00-2.19-2.193c-1.232 0-2.19.96-2.19 2.193.136 1.234 1.095 2.193 2.19 2.193zm19.578 0c1.233 0 2.19-.959 2.19-2.193a2.164 2.164 0 00-2.19-2.193c-1.232 0-2.19.96-2.19 2.193 0 1.234.958 2.193 2.19 2.193zm19.579 0c1.232 0 2.19-.959 2.19-2.193a2.164 2.164 0 00-2.19-2.193c-1.233 0-2.191.96-2.191 2.193 0 1.234.958 2.193 2.19 2.193zm19.441 0a2.164 2.164 0 002.191-2.193 2.165 2.165 0 00-2.191-2.193c-1.232 0-2.191.96-2.191 2.193 0 1.234.959 2.193 2.191 2.193zm19.578 0a2.163 2.163 0 002.191-2.193 2.164 2.164 0 00-2.191-2.193c-1.232 0-2.19.96-2.19 2.193 0 1.234.958 2.193 2.19 2.193z" fill="#fff"/></svg>