<svg width="40" height="40" fill="none" xmlns="http://www.w3.org/2000/svg"><rect width="40" height="40" rx="20" fill="#FFBC16"/><path d="M28.794 27.474v-1.166c0-.793-.463-1.256-1.256-1.256h-7.897c-1.066 0-1.615.504-1.615 1.256v1.514c0 .785.527 1.178 1.615 1.178h7.897c.793 0 1.256-.527 1.256-1.526zm-1.435.09H19.46v-1.077h7.898v1.077zm-4.667-10.769v3.436l.457 1.23h-.77L14.872 11l-1.654.998.501.879v4.636h-.53l.356 2.513h.174v.76c-.323.146-.682.461-.682 1.027 0 .38.148.658.365.843l-1.946 1.678h.55l1.724-1.486c.156.06.323.095.488.095.166 0 .33-.045.479-.125l1.87 1.515h.56l.003-.005-2.15-1.742c.146-.176.243-.411.243-.712a.359.359 0 10-.718 0c0 .128-.035.21-.08.261l-.1-.08a.18.18 0 00-.23.004l-.134.116c-.116-.054-.206-.16-.206-.361 0-.325.322-.404.383-.415a.36.36 0 00.3-.354v-1.019h.398l.502-2.513h-.542v-2.605l4.308 8.29v.418h1.435v.718h5.385v-.718h2.153v-6.82h-5.384zm-3.105 1.867l.005.006-1.465.953.753-1.932.707.973zm-5.15-1.149h-.36v-3.959l.36.677v3.282zm.311-3.659l-.62-1.177.967-.635-.347 1.812zm.84-1.079l.689 1.195-1.112.716.423-1.91zm.11 2.597l1.048-.68-.41 1.864-.637-1.184zm1.49-.072l.772 1.126-1.16.743.388-1.87zm-.119 2.727l1.297-.889-.738 1.979-.559-1.09zm1.92 3.413l-.626-1.104 1.554-1.109-.928 2.213zm.488.785l1.061-2.289.864 1.178-1.925 1.11zm7.164-1.84h-2.513v-2.154h2.513v2.154zm-15.077 6.102h-.358v.718h5.743v-.718h-.718V25.41h.718v-.718h-5.744v.718h.718v1.077h-.359z" fill="#000"/></svg>