<svg width="66" height="60" fill="none" xmlns="http://www.w3.org/2000/svg"><circle cx="33" cy="30" r="30" fill="#000"/><g clip-path="url(#clip0)" fill="#fff"><path d="M54.154 23.86V9.707L47.193 5.74v16.17l6.96 1.95zm.038 15.181V24.583l-6.986-1.774v16.536l6.986-.304zm-6.999 1.394v16.08l6.986-2.433V40.004c-2.32.152-4.653.279-6.986.431zM37.164 20.262l-19.98 5.132v13.52l1.417.051c3.094.114 6.2.279 9.294.418l9.256.47 9.371-.47h.116V22.67l-9.474-2.407zm-11.64 15.675l-6.936-.051V28.51l6.935-1.444v8.87zm9.642.076l-8.289-.064v-9.161l8.289-1.736v10.96zm9.874-.038L39.136 36V25.039l5.904 1.166v9.77zM8.662 27.586l-1.843.494v10.454l2.488.076 4.653.165 2.695.114V25.533l-7.993 2.053zm2.011 8.376l-3.196.05v-5.347l3.21-.633-.014 5.93zm4.963-.063l-4.28.063.014-6.044 4.266-.837V35.9zm-1.727 3.674l-4.64-.329-2.45-.19v10.39l9.823 3.422V39.764l-2.733-.19zm-3.236 8.757l-3.196-.9v-5.956l3.21.342-.014 6.514zm4.963 1.393l-4.28-1.203.014-6.615 4.266.469v7.35zM0 38.522v8.566l6.252 2.18V38.75L0 38.522zm65.368.722l-4.692.33-4.692.303c-.464.026-.928.064-1.392.09V53.93l11.382-3.966v-10.77c-.193.024-.4.037-.606.05zM55.74 50.66v-7.97l4.963-.533.013 7.084-4.976 1.419zm9.372-2.7l-3.726 1.065-.013-6.969 3.739-.406v6.31zm-10.52-23.352v14.42c.451-.012.89-.038 1.34-.05l4.706-.19 4.705-.165c.219-.013.425-.013.644-.025l.026-10.923-11.421-3.067zm1.147 11.341v-7.501l4.963 1.026.013 6.475h-4.976zm9.372 0h-3.726l-.013-6.335 3.739.773v5.562z"/><path d="M37.164 0l-19.98 11.43v13.343l19.825-5.639.155-.038.154.038 9.333 2.623V5.423L37.164 0zm-11.64 19.21l-6.936 2.281v-7.894l6.935-3.561v9.174zm9.642-3.18l-8.289 2.724V9.339l8.289-4.27v10.96zm9.874 1.964l-5.904-1.964V5.069L45.04 7.97v10.024zm1.547 22.466l-9.398.52h-.051l-9.294-.52c-3.094-.19-6.188-.367-9.282-.583l-1.366-.088v13.267L37.176 60l1.973-.684V44.35l5.904-.558v13.483l1.611-.558V40.46h-.077zM25.523 52.701l-6.935-2.065V42.74l6.935.723V52.7zm9.643 2.877l-8.29-2.484v-9.491l8.29.874v11.1z"/></g><defs><clipPath id="clip0"><path fill="#fff" d="M0 0h66v60H0z"/></clipPath></defs></svg>