<svg width="66" height="60" fill="none" xmlns="http://www.w3.org/2000/svg"><circle cx="33" cy="30" r="30" fill="#000"/><g clip-path="url(#clip0)" fill="#fff"><path d="M20.973 27.515l-.193-.013-.103-.154-10.52-15.307L0 28.645l2.075-.115v14.085l17.944 6.388 25.769-5.668 7.94 1.092 11.19-3.38-.014-10.975-43.931-2.557zM7.876 39.08L4.1 38.438v-4.896l3.777-.064v5.603zm8.263 1.4l-5.942-1.002v-6.001l5.942-.142v7.146zm7.747 0v-7.145l9.81.052v6.22l-9.81.874zm20.032-1.914l-6.935.63v-5.86l6.935.102v5.128zm15.018.398l-3.042.514v-4.613l3.042-.077v4.176zm1.908-.334v-3.855l2.191-.065v3.56l-2.191.36z"/><path d="M21.218 26.715l43.7 3.2v-.038l.322.051.76.064-7.129-7.44L10.377 12l10.841 14.715z"/></g><defs><clipPath id="clip0"><path fill="#fff" transform="translate(0 12)" d="M0 0h66v37H0z"/></clipPath></defs></svg>