<svg width="66" height="60" fill="none" xmlns="http://www.w3.org/2000/svg"><circle cx="33" cy="30" r="30" fill="#000"/><path d="M7.447 9L0 19.107v15.262l7.447-3.705V9zm49.592 14.9L8.516 9v21.404l19.759 2.311 18.99-3.932c.034-.01.067 0 .1 0 .034 0 .067-.01.1 0l9.963 1.881-.39-6.764zM18.1 15.595l9.585 2.707v1.19l-9.585-2.47v-1.427zm9.573 8.667l-9.584-1.665v-4.453l9.584 2.47v3.648zm-1.725 8.804L8.115 31.163.802 34.55l13.525.952 11.621-2.437z" fill="#fff"/><path d="M47.9 29.962v22.027l14.17-1.734h.724v-.09l3.195-.397V33.372l-8.494-1.597-9.595-1.813zm2.126 5.314v-.136l6.033.838.357.046V49.96l-6.39.793V35.276zm14.905 13.63l-2.126.261V36.92l2.126.294v11.694zm-3.194.397l-4.253.533V36.182l4.252.59v12.531zM11.71 37.248v10.367l10.642 1.326v-8.884l5.322-.634v10.186L46.841 52V29.973l-15.161 3.15-19.97 4.125z" fill="#fff"/></svg>