<svg width="66" height="60" fill="none" xmlns="http://www.w3.org/2000/svg"><circle cx="33" cy="30" r="30" fill="#000"/><path d="M57.814 35.252l-29.52-2.418-1.12-.092v23.245l3.88-.419 27.173-2.941-.039-13.165 5.234.17v12.433l1.289-.144L66 51.777V35.92l-8.186-.667zM43.106 51.66l-10.764.903V38.35l10.764.496V51.66zm1.302-.143v-12.63l12.478.55.052 11.008-12.53 1.072zM58.24 24.519v1.32l6.47.72v1.477l-6.47-.602v1.32l6.47.602v1.883l-6.47-.536v1.32l6.47.536v1.935l1.29.118v-9.23l-7.76-.863zM27.173 5v26.435l29.765 2.432V13.066L27.173 5zm12.942 24.866l-9.062-.89V17.879l9.062 1.581v10.407zm0-11.727l-9.062-1.582v-4.536l9.062 2.104v4.014zm14.232 13.309l-8.753-.968-.013-3.974 8.753 1.164v3.778h.013zm0-5.099l-8.766-1.163-.026-10.054 8.792 1.856v9.361zM0 37.122l25.884-6.106V5.261L0 19.747v17.375zm0 1.346v13.989l25.884 3.517V32.363l-13.187 3.111L0 38.468z" fill="#fff"/></svg>