<svg width="40" height="40" fill="none" xmlns="http://www.w3.org/2000/svg"><circle cx="20" cy="20" r="19.5" stroke="#666"/><path d="M17.188 14.344h5.625c1.083.02 1.99.396 2.718 1.125.73.729 1.104 1.635 1.125 2.719v5.625c-.02 1.083-.396 1.99-1.125 2.718-.729.73-1.635 1.104-2.718 1.125h-5.625c-1.084-.02-1.99-.396-2.72-1.125-.728-.729-1.103-1.635-1.124-2.718v-5.625c.02-1.084.396-1.99 1.125-2.72.729-.728 1.635-1.103 2.719-1.124zm-.125 1.312c-.688.021-1.26.26-1.72.719-.437.438-.666 1-.687 1.688v5.875c.021.687.25 1.26.688 1.718.458.438 1.031.667 1.719.688h5.875c.687-.021 1.25-.25 1.687-.688.458-.458.698-1.031.719-1.718v-5.875c-.021-.688-.26-1.25-.719-1.688-.438-.458-1-.698-1.688-.719h-5.875zm6.437 1c.23.021.417.115.563.282.166.145.25.333.25.562 0 .23-.084.427-.25.594a.761.761 0 01-.563.218.872.872 0 01-.594-.218.872.872 0 01-.218-.594.76.76 0 01.218-.563.938.938 0 01.594-.28zm-3.5 1c.938.021 1.719.354 2.344 1 .646.625.979 1.407 1 2.344-.021.938-.354 1.73-1 2.375-.625.625-1.407.948-2.344.969-.938-.021-1.73-.344-2.375-.969-.625-.646-.948-1.438-.969-2.375.021-.938.344-1.719.969-2.344.646-.646 1.438-.979 2.375-1zM20 19c-.563.02-1.031.219-1.406.594s-.563.843-.563 1.406.188 1.031.563 1.406c.375.375.843.563 1.406.563s1.031-.188 1.406-.563c.375-.375.563-.843.563-1.406s-.188-1.031-.563-1.406c-.375-.375-.843-.573-1.406-.594z" fill="#FFBC16"/></svg>