<svg width="146" height="51" fill="none" xmlns="http://www.w3.org/2000/svg"><path d="M100.548 39.048v2.212h-3.243v9.528h-2.336V41.26h-3.2v-2.212h8.779zm8.52 11.74l-2.422-4.084h-1.773v4.084h-2.336v-11.74h4.757c1.125 0 2.033.383 2.812 1.148.778.766 1.167 1.66 1.167 2.765 0 1.446-.908 2.808-2.292 3.403l2.638 4.424h-2.551zm-4.195-9.57v3.487h2.421c.909 0 1.601-.808 1.601-1.744 0-.936-.736-1.744-1.601-1.744h-2.421zm16.477 9.57l-.736-2.127h-4.757l-.735 2.127h-2.551l4.194-11.74h2.898l4.195 11.74h-2.508zm-4.714-4.254h3.286l-1.643-4.806-1.643 4.806zm13.882-7.486c1.643 0 2.984.553 4.108 1.701 1.125 1.106 1.644 2.51 1.644 4.169 0 1.659-.563 3.062-1.644 4.168-1.081 1.106-2.465 1.702-4.108 1.702h-4.757v-11.74h4.757zm0 9.528c1.038 0 1.859-.34 2.508-1.021.649-.68.952-1.574.952-2.637 0-1.106-.346-1.957-.952-2.637-.649-.681-1.47-1.021-2.508-1.021h-2.379v7.316h2.379zm10.466 0H146v2.212h-7.395v-11.74h7.309v2.212h-4.93v2.51h4.54v2.169h-4.54v2.637zM36.673 27.18c.39 0 .692.17.865.51l.043.085.476-.297-.043-.085a1.532 1.532 0 00-1.341-.766c-.476 0-.865.17-1.168.468-.303.298-.476.68-.476 1.148 0 .468.173.851.476 1.149a1.61 1.61 0 001.168.468c.303 0 .562-.085.778-.213.26-.128.433-.34.563-.553l.043-.085-.476-.255-.043.085a.986.986 0 01-.865.51c-.303 0-.562-.085-.779-.297-.216-.213-.302-.468-.302-.766s.086-.553.303-.766c.216-.212.475-.34.778-.34zm4.281-.511c-.432 0-.821.17-1.124.468-.303.298-.476.68-.476 1.148 0 .426.173.808.476 1.149a1.583 1.583 0 002.249 0c.303-.298.475-.68.475-1.149 0-.468-.172-.85-.475-1.148a1.584 1.584 0 00-1.125-.468zm1.038 1.616c0 .298-.086.553-.302.766a.957.957 0 01-.736.298c-.302 0-.562-.085-.778-.298-.216-.213-.303-.468-.303-.766 0-.297.087-.553.303-.765.216-.213.432-.298.778-.298.303 0 .563.085.736.298.216.212.302.468.302.765zm3.892.469L44.5 26.712h-.432v3.105h.519v-2.042l1.426 2.042h.433v-3.105h-.562v2.042zm4.238-.511c-.13-.085-.173-.085-.303-.128-.043-.042-.086-.042-.13-.042l-.216-.085c-.259-.085-.389-.17-.475-.213-.087-.043-.13-.128-.13-.255 0-.213.173-.383.476-.383.302 0 .475.127.605.425l.043.085.476-.255-.044-.043c-.172-.425-.605-.68-1.08-.68-.26 0-.519.085-.692.255-.216.17-.303.383-.303.68 0 .213.087.384.217.554.043.042.13.127.259.17l.26.127.302.086c.26.085.432.17.519.212.086.043.13.128.13.255 0 .256-.217.383-.563.383-.389 0-.605-.17-.734-.468l-.044-.085-.475.255v.043c.173.468.605.766 1.21.766.303 0 .562-.085.778-.256.217-.17.303-.382.303-.68 0-.213-.043-.383-.173-.51-.043-.086-.13-.128-.216-.213zm1.558-1.021h.864v2.595h.519v-2.595h.864v-.51H51.68v.51zm5.75 1.064a.925.925 0 00.173-.553c0-.255-.086-.51-.302-.68-.173-.213-.432-.298-.692-.298h-1.254v3.105h.563v-1.148h.562l.648 1.148h.605l-.735-1.234c.173-.085.303-.212.433-.34zm-.345-.553a.479.479 0 01-.13.34.395.395 0 01-.303.128h-.691v-.978h.691c.13 0 .217.042.303.127.087.128.13.213.13.383zm3.805 1.021c0 .382-.216.595-.648.595-.433 0-.649-.213-.649-.595v-2.042h-.562v2.042c0 .34.13.638.346.808.216.212.519.297.865.297s.648-.085.864-.297c.216-.213.346-.468.346-.808v-2.042h-.562v2.042zm3.634-1.574c.389 0 .692.17.865.51l.043.085.476-.297-.044-.085a1.532 1.532 0 00-1.34-.766c-.476 0-.865.17-1.168.468-.303.298-.476.68-.476 1.148 0 .468.173.851.476 1.149a1.61 1.61 0 001.168.468c.302 0 .562-.085.778-.213.26-.128.433-.34.562-.553l.044-.085-.476-.255-.043.085a.986.986 0 01-.865.51c-.303 0-.563-.085-.779-.297-.216-.213-.302-.468-.302-.766s.086-.553.302-.766c.217-.212.433-.34.779-.34zm2.551.042h.865v2.595h.519v-2.595h.907v-.51h-2.29v.51zm4.237-.51h-.561v3.105h.561v-3.105zm3.115-.043c-.432 0-.822.17-1.124.468-.303.298-.476.68-.476 1.148 0 .426.173.808.476 1.149a1.583 1.583 0 002.248 0c.303-.298.476-.68.476-1.149 0-.468-.173-.85-.476-1.148a1.583 1.583 0 00-1.124-.468zm1.038 1.616c0 .298-.087.553-.303.766a.956.956 0 01-.735.298c-.303 0-.562-.085-.778-.298-.217-.213-.303-.468-.303-.766 0-.297.086-.553.303-.765.216-.213.432-.298.778-.298.303 0 .562.085.735.298.216.212.303.468.303.765zm3.891.469l-1.383-2.042h-.432v3.105h.519v-2.042l1.426 2.042h.432v-3.105h-.562v2.042zm5.926-1.574c.39 0 .692.17.865.51l.043.085.476-.297-.043-.085a1.532 1.532 0 00-1.341-.766c-.476 0-.865.17-1.168.468a1.56 1.56 0 00-.475 1.148c0 .468.173.851.475 1.149a1.61 1.61 0 001.168.468c.303 0 .562-.085.779-.213.259-.128.432-.34.562-.553l.043-.085-.476-.255-.043.085a.986.986 0 01-.865.51c-.303 0-.562-.085-.778-.297-.217-.213-.303-.468-.303-.766s.086-.553.303-.766c.173-.212.432-.34.778-.34zm4.238-.511c-.432 0-.822.17-1.124.468-.303.298-.476.68-.476 1.148 0 .426.173.808.476 1.149a1.583 1.583 0 002.248 0c.303-.298.476-.68.476-1.149 0-.468-.173-.85-.476-1.148-.259-.298-.648-.468-1.124-.468zm1.081 1.616c0 .298-.086.553-.302.766a.957.957 0 01-.736.298c-.302 0-.562-.085-.778-.298-.216-.213-.303-.468-.303-.766 0-.297.087-.553.303-.765.216-.213.432-.298.778-.298.303 0 .563.085.736.298.172.212.302.468.302.765zm3.503-.085l-.908-1.488h-.562v3.105h.562v-2.084l.822 1.403h.173l.821-1.403v2.084h.563v-3.105h-.563l-.908 1.489zm4.281-1.488h-1.167v3.105h.562v-1.063h.605a.956.956 0 00.735-.298.926.926 0 00.303-.723c0-.298-.087-.553-.303-.723a1.021 1.021 0 00-.735-.298zm.476 1.02a.678.678 0 01-.13.384.495.495 0 01-.346.127h-.605v-1.02h.605c.26 0 .476.212.476.51zm2.552-1.02l-1.168 3.105h.562l.26-.68h1.211l.259.68h.562l-1.167-3.105h-.519zm.692 1.957h-.822l.433-1.149.389 1.149zm4.194.085l-1.383-2.042h-.433v3.105h.562v-2.042l1.384 2.042h.432v-3.105h-.562v2.042zm4.023-2.042l-.779 1.319-.735-1.32h-.605l1.081 1.873v1.233h.562v-1.233l1.081-1.872h-.605z" fill="#fff"/><path d="M82.946 22.161V2.808l16.65 4.04.692 15.313H82.946z" fill="#FFBC16"/><path d="M83.336 3.233l15.915 3.87.692 14.676H83.336V3.233zm-.735-.893v20.162h18.077L99.943 6.55 82.6 2.34z" fill="#000"/><path d="M65.302 22.161V2.211l7.74-1.828 7.698 1.871v19.907H65.302z" fill="#FFBC16"/><path d="M73.043.723l7.352 1.83V21.82H65.692V2.51L73.043.723zm0-.723l-8.087 1.957v20.587h16.131V1.999L73.043 0z" fill="#000"/><path d="M45.71 22.161l.736-15.313 16.607-4.04V22.16H45.71z" fill="#FFBC16"/><path d="M62.707 3.233v18.588H46.101l.692-14.717 15.914-3.87zm.736-.893l-17.3 4.21-.778 15.952h18.078V2.34zm23.958 5.954v1.489h3.244v9.4h1.6v-9.4h3.243V8.294h-8.087z" fill="#000"/><path d="M54.534 17.823c-1.47 0-2.422-.638-2.768-1.872l-.087-.34-1.383.808.086.213c.562 1.701 2.163 2.722 4.195 2.722 1.125 0 2.033-.298 2.768-.85.735-.596 1.081-1.362 1.081-2.34 0-.51-.173-1.064-.39-1.446-.215-.426-.778-.809-1.08-.979-.173-.127-.39-.212-.779-.34-.346-.128-.562-.213-.735-.255l-.822-.298c-.778-.255-1.384-.51-1.73-.766-.302-.212-.432-.51-.432-.935 0-.979.735-1.532 1.903-1.532 1.124 0 1.903.51 2.335 1.574l.13.298 1.384-.766-.087-.212c-.692-1.49-2.076-2.425-3.719-2.425-.995 0-1.816.298-2.465.85-.692.554-1.038 1.32-1.038 2.298s.433 1.786 1.34 2.297c.347.212 1.082.51 2.25.893.908.298 1.556.553 1.902.808.346.213.476.553.476 1.02-.086.98-.908 1.575-2.335 1.575zM76.07 11.74c.65-.553.995-1.319.995-2.254 0-.851-.302-1.617-.908-2.212-.605-.638-1.34-.936-2.206-.936h-4.497v11.314h4.843a3.04 3.04 0 002.25-.978c.605-.638.95-1.404.95-2.297a3.118 3.118 0 00-1.427-2.637zm-5.016.936h3.243c.433 0 .779.17 1.125.51.303.34.476.723.476 1.191 0 .51-.173.893-.476 1.234-.303.34-.649.467-1.125.467h-3.243v-3.402zm0-1.574v-3.19h2.897c.39 0 .736.127 1.038.468.303.34.433.68.433 1.148 0 .468-.13.808-.433 1.149-.302.297-.648.467-1.038.467h-2.897v-.042z" fill="#000"/><path d="M0 48.15l2.033-1.148c.475 1.19 1.383 1.786 2.767 1.786 1.298 0 1.903-.51 1.903-1.233 0-.426-.173-.723-.562-.936-.39-.255-1.038-.468-2.033-.766-1.08-.297-1.73-.553-2.465-1.106C.908 44.194.52 43.387.52 42.323c0-1.063.39-1.914 1.124-2.552.779-.638 1.687-.936 2.768-.936 1.946 0 3.46.978 4.282 2.637l-1.99 1.106c-.476-1.02-1.254-1.489-2.292-1.489-.951 0-1.557.468-1.557 1.191 0 .383.173.68.476.894.303.212.908.468 1.816.723l.822.255c.173.042.432.17.778.298.303.127.563.255.736.34.346.213.908.638 1.124 1.02.26.384.433.98.433 1.66 0 1.106-.39 1.956-1.211 2.594-.822.638-1.86.936-3.114.936-2.38.043-4.066-1.063-4.715-2.85zm15.612-9.102c1.124 0 2.12.383 2.898 1.148.778.766 1.167 1.702 1.167 2.808 0 1.106-.389 2.041-1.167 2.807-.779.766-1.774 1.148-2.898 1.148h-2.119v3.871h-2.335V39.09h4.454v-.042zm0 5.742c.995 0 1.73-.765 1.73-1.786s-.735-1.787-1.73-1.787h-2.119v3.573h2.12zm8.649 3.786h5.017v2.212h-7.395v-11.74h7.309v2.212h-4.93v2.51h4.54v2.169h-4.54v2.637zm15.266-9.528v2.212h-3.243v9.528h-2.335V41.26h-3.2v-2.212h8.778zm1.038 9.102l2.033-1.148c.476 1.19 1.384 1.786 2.767 1.786 1.298 0 1.903-.51 1.903-1.233 0-.426-.173-.723-.562-.936-.389-.255-1.038-.468-2.032-.766-1.082-.297-1.73-.553-2.465-1.106-.736-.553-1.125-1.36-1.125-2.424 0-1.063.39-1.914 1.124-2.552.779-.638 1.687-.936 2.768-.936 1.946 0 3.46.978 4.282 2.637l-1.99 1.106c-.475-1.02-1.254-1.489-2.292-1.489-.951 0-1.556.468-1.556 1.191 0 .383.172.68.475.894.303.212.908.468 1.816.723l.822.255c.173.042.433.17.779.298.302.127.562.255.735.34.346.213.908.638 1.124 1.02.26.384.433.98.433 1.66 0 1.106-.39 1.956-1.211 2.594-.822.638-1.86.936-3.114.936-2.379.043-4.022-1.063-4.714-2.85zm19.937-.765c0 .978-.346 1.829-1.082 2.467-.735.638-1.6.936-2.638.936h-5.06v-11.74h4.715c1.037 0 1.86.298 2.594.936.692.638 1.038 1.403 1.038 2.382 0 .978-.389 1.744-1.124 2.34 1.038.595 1.557 1.488 1.557 2.679zm-6.4-6.168v2.595h2.335c.735 0 1.297-.553 1.297-1.276s-.519-1.276-1.297-1.276H54.1v-.043zm2.68 7.444c.822 0 1.384-.596 1.384-1.404 0-.808-.562-1.361-1.383-1.361h-2.725v2.765h2.724zm7.05 1.276c-.865-.723-1.298-1.744-1.298-2.978v-7.911h2.336v7.741c0 1.234.692 2 2.205 2 1.514 0 2.206-.766 2.206-2V39.09h2.335v7.912c0 1.233-.432 2.212-1.297 2.977-.865.724-1.946 1.106-3.287 1.106-1.254-.042-2.335-.425-3.2-1.148zm15.396-10.889c1.643 0 2.984.553 4.108 1.701 1.124 1.106 1.643 2.51 1.643 4.169 0 1.659-.562 3.062-1.643 4.168-1.081 1.106-2.465 1.702-4.108 1.702H74.47v-11.74h4.757zm0 9.528c1.038 0 1.86-.34 2.508-1.021.648-.68.951-1.574.951-2.637 0-1.106-.346-1.957-.951-2.637-.649-.681-1.47-1.021-2.508-1.021h-2.379v7.316h2.379z" fill="#FFBC16"/></svg>