<svg width="220" height="77" fill="none" xmlns="http://www.w3.org/2000/svg"><path d="M151.511 58.688v3.324h-4.888v14.32h-3.519v-14.32h-4.822v-3.325h13.229zm12.837 17.644l-3.649-6.137h-2.672v6.137h-3.519V58.688h7.169c1.694 0 3.062.575 4.235 1.726 1.173 1.15 1.76 2.493 1.76 4.155 0 2.174-1.369 4.22-3.454 5.114l3.975 6.65h-3.845zm-6.321-14.384v5.242h3.65c1.368 0 2.411-1.215 2.411-2.621s-1.108-2.621-2.411-2.621h-3.65zm24.828 14.384l-1.107-3.196h-7.169l-1.107 3.196h-3.845l6.321-17.644h4.366l6.321 17.644h-3.78zm-7.103-6.393h4.953l-2.476-7.224-2.477 7.224zm20.919-11.251c2.476 0 4.496.83 6.19 2.557 1.695 1.662 2.477 3.771 2.477 6.265 0 2.493-.847 4.603-2.477 6.265-1.629 1.662-3.714 2.557-6.19 2.557h-7.169V58.688h7.169zm0 14.32c1.564 0 2.802-.512 3.779-1.535.978-1.022 1.434-2.365 1.434-3.963 0-1.662-.521-2.941-1.434-3.964-.977-1.023-2.215-1.534-3.779-1.534h-3.585v10.996h3.585zm15.77 0H220v3.324h-11.143V58.688h11.013v3.324h-7.429v3.772h6.842v3.26h-6.842v3.964zM55.26 40.85c.587 0 1.043.256 1.304.768l.065.128.717-.448-.065-.128c-.391-.703-1.173-1.15-2.02-1.15-.717 0-1.304.255-1.76.703a2.338 2.338 0 00-.717 1.726c0 .703.261 1.278.717 1.726.456.448 1.043.703 1.76.703.456 0 .847-.128 1.173-.32.39-.191.651-.51.847-.83l.065-.128-.717-.384-.065.128c-.26.447-.717.767-1.303.767-.457 0-.848-.128-1.173-.447-.326-.32-.456-.704-.456-1.151 0-.448.13-.831.456-1.15.325-.32.716-.512 1.173-.512zm6.452-.766a2.39 2.39 0 00-1.694.703 2.338 2.338 0 00-.717 1.726c0 .64.26 1.215.717 1.726a2.389 2.389 0 003.388 0 2.338 2.338 0 00.717-1.726c0-.703-.26-1.278-.717-1.726a2.39 2.39 0 00-1.694-.703zm1.564 2.43c0 .447-.13.83-.456 1.15-.326.32-.652.447-1.108.447-.456 0-.847-.127-1.173-.447-.326-.32-.456-.703-.456-1.15 0-.448.13-.832.456-1.151.326-.32.652-.448 1.173-.448.456 0 .847.128 1.108.448.326.32.456.703.456 1.15zm5.864.702l-2.085-3.069h-.65v4.667h.78v-3.068l2.15 3.068h.652v-4.666h-.847v3.068zm6.386-.766c-.195-.129-.26-.129-.456-.192-.065-.064-.13-.064-.195-.064l-.326-.128c-.39-.128-.586-.256-.717-.32-.13-.064-.195-.192-.195-.383 0-.32.26-.576.717-.576.456 0 .716.192.912.64l.065.127.716-.383-.065-.064c-.26-.64-.912-1.023-1.628-1.023-.391 0-.782.128-1.043.384-.325.255-.456.575-.456 1.022 0 .32.13.576.326.831a1 1 0 00.39.256l.392.192.456.128c.39.128.651.256.782.32.13.064.195.191.195.383 0 .384-.326.575-.847.575-.586 0-.912-.255-1.107-.703l-.066-.128-.716.384v.064c.26.703.912 1.15 1.824 1.15.456 0 .847-.127 1.172-.383.326-.256.456-.575.456-1.023 0-.32-.065-.575-.26-.767-.065-.128-.196-.192-.326-.32zm2.347-1.535h1.303v3.9h.782v-3.9h1.303v-.767h-3.388v.767zm8.667 1.597c.195-.255.26-.575.26-.83 0-.384-.13-.768-.456-1.024-.26-.32-.652-.447-1.042-.447h-1.89v4.667h.847v-1.726h.847l.977 1.726h.912l-1.107-1.854c.26-.128.456-.32.651-.512zm-.522-.83a.718.718 0 01-.195.51.597.597 0 01-.456.193h-1.043v-1.47h1.043c.195 0 .325.063.456.191.13.192.195.32.195.575zm5.735 1.534c0 .575-.326.895-.978.895-.651 0-.977-.32-.977-.895v-3.069h-.847v3.07c0 .51.196.958.522 1.214.325.32.781.447 1.302.447.522 0 .978-.128 1.303-.447.326-.32.522-.703.522-1.215v-3.069h-.847v3.07zm5.475-2.366c.586 0 1.042.256 1.303.768l.065.128.717-.448-.065-.128c-.391-.703-1.173-1.15-2.02-1.15-.717 0-1.304.255-1.76.703a2.338 2.338 0 00-.717 1.726c0 .703.26 1.278.717 1.726.456.448 1.043.703 1.76.703.456 0 .847-.128 1.172-.32.391-.191.652-.51.848-.83l.065-.128-.717-.384-.065.128c-.26.447-.717.767-1.303.767-.457 0-.848-.128-1.173-.447-.326-.32-.457-.704-.457-1.151 0-.448.13-.831.457-1.15.325-.32.651-.512 1.172-.512zm3.844.065h1.303v3.9h.782v-3.9h1.368v-.767h-3.453v.767zm6.385-.767h-.846v4.666h.846v-4.666zm4.693-.064a2.39 2.39 0 00-1.694.703 2.339 2.339 0 00-.717 1.726c0 .64.261 1.215.717 1.726a2.39 2.39 0 003.389 0 2.339 2.339 0 00.717-1.726 2.34 2.34 0 00-.717-1.726 2.39 2.39 0 00-1.695-.703zm1.564 2.43c0 .447-.13.83-.456 1.15-.326.32-.651.447-1.108.447-.456 0-.847-.127-1.173-.447-.325-.32-.456-.703-.456-1.15 0-.448.131-.832.456-1.151.326-.32.652-.448 1.173-.448.457 0 .848.128 1.108.448.326.32.456.703.456 1.15zm5.864.702l-2.084-3.069h-.652v4.667h.782v-3.068l2.15 3.068h.651v-4.666h-.847v3.068zm8.929-2.366c.587 0 1.043.256 1.303.768l.066.128.716-.448-.065-.128c-.391-.703-1.173-1.15-2.02-1.15-.717 0-1.303.255-1.759.703a2.335 2.335 0 00-.717 1.726c0 .703.26 1.278.717 1.726.456.448 1.042.703 1.759.703.456 0 .847-.128 1.173-.32.391-.191.652-.51.847-.83l.065-.128-.716-.384-.066.128c-.26.447-.716.767-1.303.767-.456 0-.847-.128-1.173-.447-.326-.32-.456-.704-.456-1.151 0-.448.13-.831.456-1.15.261-.32.652-.512 1.173-.512zm6.386-.766a2.39 2.39 0 00-1.694.703 2.339 2.339 0 00-.717 1.726c0 .64.261 1.215.717 1.726a2.39 2.39 0 003.389 0 2.338 2.338 0 00.716-1.726 2.34 2.34 0 00-.716-1.726c-.391-.447-.978-.703-1.695-.703zm1.629 2.43c0 .447-.13.83-.456 1.15-.325.32-.651.447-1.107.447-.457 0-.848-.127-1.173-.447-.326-.32-.457-.703-.457-1.15 0-.448.131-.832.457-1.151.325-.32.651-.448 1.173-.448.456 0 .847.128 1.107.448.261.32.456.703.456 1.15zm5.279-.129l-1.369-2.237h-.847v4.666h.847v-3.132l1.239 2.11h.26l1.238-2.11v3.132h.848v-4.666h-.848l-1.368 2.237zm6.451-2.237h-1.759v4.666h.847v-1.598h.912c.456 0 .781-.128 1.107-.447.326-.32.456-.64.456-1.087 0-.448-.13-.831-.456-1.087a1.54 1.54 0 00-1.107-.447zm.716 1.534c0 .192-.065.383-.195.575a.747.747 0 01-.521.192h-.912v-1.534h.912c.391 0 .716.32.716.767zm3.846-1.534l-1.759 4.666h.847l.391-1.023h1.824l.391 1.023h.847l-1.759-4.666h-.782zm1.043 2.94h-1.239l.652-1.726.587 1.726zm6.32.128l-2.085-3.069h-.651v4.667h.847v-3.068l2.084 3.068h.652v-4.666h-.847v3.068zm6.061-3.068l-1.173 1.981-1.108-1.981h-.912l1.629 2.812v1.854h.847V42.96l1.629-2.813h-.912z" fill="#fff"/><path d="M124.987 33.308V4.22l25.089 6.073 1.042 23.015h-26.131z" fill="#FFBC16"/><path d="M125.575 4.86l23.981 5.817 1.042 22.055h-25.023V4.86zm-1.108-1.343v30.302h27.239l-1.108-23.973-26.131-6.33z" fill="#000"/><path d="M98.4 33.307V3.324L110.063.575l11.599 2.813v29.92H98.399z" fill="#FFBC16"/><path d="M110.065 1.087l11.078 2.749v28.96H98.987V3.772l11.078-2.685zm0-1.087L97.879 2.94v30.943h24.307V3.005L110.065 0z" fill="#000"/><path d="M68.88 33.308l1.107-23.015L95.01 4.22v29.088H68.879z" fill="#FFBC16"/><path d="M94.49 4.86v27.936H69.468l1.043-22.12L94.49 4.86zm1.108-1.343L69.532 9.846l-1.173 23.973h27.24V3.517zm36.102 8.95v2.237h4.888v14.129h2.411V14.704h4.887v-2.237H131.7z" fill="#000"/><path d="M82.174 26.786c-2.216 0-3.65-.959-4.17-2.813l-.13-.511-2.086 1.215.13.32c.847 2.556 3.258 4.09 6.321 4.09 1.695 0 3.063-.447 4.17-1.278 1.109-.895 1.63-2.046 1.63-3.516 0-.767-.26-1.598-.586-2.174-.326-.639-1.173-1.214-1.63-1.47-.26-.192-.586-.32-1.172-.511-.522-.192-.848-.32-1.108-.384l-1.239-.447c-1.172-.384-2.085-.768-2.606-1.151-.456-.32-.652-.767-.652-1.407 0-1.47 1.108-2.301 2.867-2.301 1.695 0 2.868.767 3.52 2.365l.195.448 2.085-1.15-.13-.32c-1.043-2.238-3.128-3.645-5.604-3.645-1.5 0-2.737.448-3.715 1.28-1.042.83-1.564 1.98-1.564 3.451 0 1.47.652 2.685 2.02 3.453.522.32 1.63.767 3.389 1.342 1.369.447 2.346.831 2.867 1.215.522.32.717.83.717 1.534-.13 1.47-1.368 2.365-3.519 2.365zm32.453-9.142c.977-.83 1.499-1.981 1.499-3.388 0-1.278-.457-2.43-1.369-3.324-.912-.96-2.02-1.407-3.323-1.407h-6.778v17.006h7.299c1.303 0 2.476-.512 3.389-1.47.912-.96 1.433-2.11 1.433-3.453a4.684 4.684 0 00-2.15-3.964zm-7.559 1.407h4.887c.652 0 1.173.256 1.694.767.456.511.717 1.087.717 1.79 0 .767-.261 1.343-.717 1.854-.456.512-.977.703-1.694.703h-4.887v-5.114zm0-2.365V11.89h4.366c.586 0 1.107.192 1.564.703.456.511.651 1.023.651 1.726 0 .703-.195 1.215-.651 1.726-.457.448-.978.703-1.564.703h-4.366v-.063z" fill="#000"/><path d="M0 72.369l3.063-1.726c.717 1.79 2.085 2.685 4.17 2.685 1.955 0 2.868-.767 2.868-1.854 0-.64-.261-1.087-.847-1.407-.587-.383-1.564-.703-3.063-1.15-1.63-.448-2.607-.832-3.715-1.663C1.368 66.424.782 65.21.782 63.61c0-1.598.586-2.876 1.694-3.835 1.173-.96 2.542-1.407 4.17-1.407 2.933 0 5.214 1.47 6.452 3.964l-2.997 1.662c-.717-1.534-1.89-2.238-3.454-2.238-1.434 0-2.346.704-2.346 1.79 0 .576.26 1.023.717 1.343.456.32 1.368.703 2.737 1.087l1.238.383c.26.064.652.256 1.173.448.456.192.847.383 1.108.511.521.32 1.368.96 1.694 1.535.391.575.652 1.47.652 2.493 0 1.662-.587 2.94-1.825 3.9-1.238.959-2.802 1.406-4.692 1.406C3.52 76.716.977 75.054 0 72.369zm23.525-13.681c1.694 0 3.193.575 4.366 1.726 1.173 1.15 1.76 2.557 1.76 4.219 0 1.662-.587 3.069-1.76 4.22-1.173 1.15-2.672 1.725-4.366 1.725h-3.193v5.818h-3.52V58.751h6.713v-.063zm0 8.63c1.499 0 2.607-1.15 2.607-2.685 0-1.534-1.108-2.685-2.607-2.685h-3.193v5.37h3.193zm13.033 5.69h7.56v3.324H32.973V58.688h11.013v3.324h-7.429v3.772H43.4v3.26h-6.843v3.964zm23.004-14.32v3.324h-4.888v14.32h-3.519v-14.32h-4.822v-3.325h13.229zm1.564 13.681l3.062-1.726c.717 1.79 2.086 2.685 4.171 2.685 1.955 0 2.867-.767 2.867-1.854 0-.64-.26-1.087-.847-1.407-.586-.383-1.564-.703-3.063-1.15-1.629-.448-2.606-.832-3.714-1.663-1.108-.83-1.694-2.045-1.694-3.644 0-1.598.586-2.876 1.694-3.835 1.173-.96 2.541-1.407 4.17-1.407 2.933 0 5.214 1.47 6.452 3.964l-2.998 1.662c-.716-1.534-1.89-2.238-3.454-2.238-1.433 0-2.346.704-2.346 1.79 0 .576.261 1.023.717 1.343.457.32 1.369.703 2.737 1.087l1.239.383c.26.064.651.256 1.172.448.457.192.848.383 1.108.511.522.32 1.369.96 1.695 1.535.39.575.651 1.47.651 2.493 0 1.662-.586 2.94-1.824 3.9-1.239.959-2.803 1.406-4.692 1.406-3.585.064-6.06-1.598-7.103-4.283zm30.041-1.151c0 1.47-.521 2.749-1.63 3.708-1.107.959-2.41 1.406-3.974 1.406h-7.625V58.688h7.103c1.564 0 2.803.447 3.91 1.406 1.043.959 1.564 2.11 1.564 3.58 0 1.47-.586 2.621-1.694 3.516 1.564.895 2.346 2.238 2.346 4.028zm-9.645-9.27v3.9h3.52c1.107 0 1.954-.832 1.954-1.918 0-1.087-.781-1.918-1.954-1.918h-3.52v-.064zm4.04 11.188c1.239 0 2.086-.895 2.086-2.11 0-1.215-.847-2.046-2.085-2.046h-4.106v4.156h4.106zm10.623 1.917c-1.303-1.086-1.955-2.62-1.955-4.475v-11.89h3.519v11.635c0 1.854 1.043 3.004 3.323 3.004 2.281 0 3.324-1.15 3.324-3.004V58.75h3.519v11.891c0 1.854-.652 3.325-1.955 4.475-1.304 1.087-2.933 1.663-4.953 1.663-1.89-.064-3.519-.64-4.822-1.727zm23.199-16.365c2.476 0 4.496.83 6.191 2.557 1.694 1.662 2.476 3.771 2.476 6.265 0 2.493-.847 4.603-2.476 6.265-1.63 1.662-3.715 2.557-6.191 2.557h-7.168V58.688h7.168zm0 14.32c1.564 0 2.802-.512 3.779-1.535.978-1.022 1.434-2.365 1.434-3.963 0-1.662-.521-2.941-1.434-3.964-.977-1.023-2.215-1.534-3.779-1.534H115.8v10.996h3.584z" fill="#FFBC16"/></svg>