<svg width="9" height="12" fill="none" xmlns="http://www.w3.org/2000/svg"><path d="M4.5 5.846c-.39 0-.71-.127-.965-.381-.254-.254-.38-.576-.38-.965 0-.39.126-.71.38-.965.254-.254.576-.38.965-.38.39 0 .71.126.965.38.254.254.38.576.38.965 0 .39-.126.71-.38.965-.254.254-.576.38-.965.38zm0-5.13c-1.083.018-1.98.382-2.691 1.093C1.098 2.519.734 3.417.717 4.5c.152 1.54.778 3.072 1.879 4.596 1.117 1.506 1.752 2.319 1.904 2.437.152-.118.779-.93 1.879-2.437C7.496 7.572 8.13 6.04 8.283 4.5c-.017-1.083-.38-1.98-1.092-2.691C6.481 1.098 5.583.734 4.5.717z" fill="#FFBC16"/></svg>