<svg width="24" height="24" fill="none" xmlns="http://www.w3.org/2000/svg"><path d="M4.813 10.375C5.813 12.292 7.042 14 8.5 15.5a21.707 21.707 0 005.125 3.688l2.938-2.938c.416-.375.875-.48 1.375-.313 1.5.5 3.083.75 4.75.75.375 0 .687.125.937.375S24 17.625 24 18v4.688c0 .375-.125.687-.375.937s-.563.375-.938.375c-6.416-.167-11.77-2.375-16.062-6.625C2.375 13.083.167 7.729 0 1.312 0 .938.125.625.375.375S.938 0 1.313 0H6c.375 0 .688.125.938.375s.375.563.375.938c0 1.666.25 3.25.75 4.75.166.5.062.958-.313 1.375l-2.938 2.937z" fill="#FFBC16"/></svg>