<svg width="40" height="40" fill="none" xmlns="http://www.w3.org/2000/svg"><circle cx="20" cy="20" r="19.5" stroke="#666"/><path d="M18.656 24v-6l4 3-4 3zm6.688-8.063c-.25-.062-.886-.124-1.907-.187A56.729 56.729 0 0020 15.656c-1.27 0-2.417.031-3.438.094-1.02.042-1.656.094-1.906.156-.5.23-.854.823-1.062 1.781-.188.959-.281 2.063-.281 3.313 0 1.23.093 2.333.28 3.313.21.958.563 1.541 1.063 1.75.25.083.886.156 1.906.218 1.021.042 2.167.063 3.438.063 1.27 0 2.417-.021 3.438-.063 1.02-.062 1.656-.135 1.906-.218.5-.209.843-.792 1.031-1.75.208-.98.313-2.084.313-3.313 0-1.25-.105-2.354-.313-3.313-.188-.958-.531-1.541-1.031-1.75z" fill="#FFBC16"/></svg>