<svg width="65" height="65" fill="none" xmlns="http://www.w3.org/2000/svg"><circle cx="35" cy="30" r="30" fill="#FFBC16"/><circle cx="30" cy="35" r="29.5" stroke="#000"/><g clip-path="url(#clip0)" fill="#000"><path d="M44 31.706v-9.059h-8.235v9.059h3.294v14h-1.647v1.647h4.94v-1.647h-1.646v-14H44zm-12.353 7.412v4.117h-11.53v-4.117A4.118 4.118 0 0016 35v10.706h1.647v1.647h1.647v-1.647h13.177v1.647h1.647v-1.647h1.647V35a4.118 4.118 0 00-4.118 4.118z"/><path d="M30 41.588c.004-2.473-.01-2.507.012-2.845a3.278 3.278 0 00-1.66-.45h-4.94c-.605 0-1.172.165-1.66.45.022.338.009.314.013 2.845H30zm-6.588-4.941h4.941c.72 0 1.403.155 2.02.433a5.78 5.78 0 011.274-1.992v-5.03h-11.53v5.03c.553.564.99 1.24 1.275 1.992a4.91 4.91 0 012.02-.433zm3.294-4.118h1.647v1.647h-1.647V32.53zm-3.294 0h1.647v1.647h-1.647V32.53z"/></g><defs><clipPath id="clip0"><path fill="#fff" transform="translate(16 21)" d="M0 0h28v28H0z"/></clipPath></defs></svg>