<svg width="65" height="65" fill="none" xmlns="http://www.w3.org/2000/svg"><circle cx="35" cy="30" r="30" fill="#FFBC16"/><circle cx="30" cy="35" r="29.5" stroke="#000"/><path d="M43.582 34.082L24.626 24.63a.755.755 0 00-1.013.339l-4.043 8.11a.755.755 0 00.338 1.012l5.66 2.822-.502 1.007a.755.755 0 00.339 1.013l.178.089-.975 1.737h-5.75A3.215 3.215 0 0016 39.017v6.432a3.215 3.215 0 002.82-1.67h6.672a1.51 1.51 0 001.317-.77l1.48-2.637.258.128a.755.755 0 001.013-.339l.502-1.007 4.229 2.109a.755.755 0 00.76-.05l1.167-.79 2.084 1.04a.754.754 0 001.012-.34l2.134-4.278 2.212-1.456a.755.755 0 00-.078-1.307z" fill="#000"/></svg>