<svg width="65" height="65" fill="none" xmlns="http://www.w3.org/2000/svg"><circle cx="35" cy="30" r="30" fill="#FFBC16"/><circle cx="30" cy="35" r="29.5" stroke="#000"/><g clip-path="url(#clip0)" fill="#000"><path d="M20.73 30.898h-3.216v1.641h3.216V30.9zm0 6.562h-3.216v1.642h3.216V37.46zm0-3.28H16v1.64h4.73v-1.64zm12.455-9.995c-5.973 0-10.815 4.842-10.815 10.815s4.842 10.815 10.815 10.815S44 40.973 44 35s-4.842-10.815-10.815-10.815zm3.41 15.256l-4.544-3.097v-6.637h1.64v5.77l3.829 2.609-.924 1.355z"/></g><defs><clipPath id="clip0"><path fill="#fff" transform="translate(16 21)" d="M0 0h28v28H0z"/></clipPath></defs></svg>