<svg width="65" height="65" fill="none" xmlns="http://www.w3.org/2000/svg"><circle cx="35" cy="30" r="30" fill="#FFBC16"/><circle cx="30" cy="35" r="29.5" stroke="#000"/><g clip-path="url(#clip0)"><path d="M42.925 42.491l-.002-.001-7.001-6.196a.82.82 0 00-1.124.035l-1.154 1.154-1.432-1.431 2.55-3.105a6.33 6.33 0 009.102-6.927.767.767 0 00-1.294-.384l-2.686 2.686a1.249 1.249 0 01-1.766 0l-1.44-1.44a1.248 1.248 0 010-1.765l2.687-2.687a.767.767 0 00-.386-1.294 6.33 6.33 0 00-6.927 9.101l-3.104 2.55-6.33-6.33.7-.701a.68.68 0 00-.058-1.014l-3.629-2.987a.68.68 0 00-.902.053l-1.921 1.921a.68.68 0 00-.053.903l2.987 3.627a.68.68 0 001.014.06l.701-.702 6.217 6.217-10.842 8.907a2.175 2.175 0 00-.195 3.248l2.373 2.373a2.175 2.175 0 003.249-.194l8.907-10.843 1.317 1.318-1.199 1.199a.821.821 0 00-.03 1.128l6.251 6.97a3.205 3.205 0 004.65.12l.905-.905a3.21 3.21 0 00-.135-4.664zm-22.21 2.614a.82.82 0 110-1.64.82.82 0 010 1.64z" fill="#000"/></g><defs><clipPath id="clip0"><path fill="#fff" transform="translate(16 21)" d="M0 0h28v28H0z"/></clipPath></defs></svg>