<svg width="65" height="65" fill="none" xmlns="http://www.w3.org/2000/svg"><circle cx="35" cy="30" r="30" fill="#FFBC16"/><circle cx="30" cy="35" r="29.5" stroke="#000"/><g clip-path="url(#clip0)"><path d="M38.034 34.589V23.95H21.966v10.64H16l14 15.46 14-15.46h-5.966zm-6.023 4.625a2.378 2.378 0 01-1.208.723v.998h-1.429v-.99c-1.041-.264-1.816-1.096-2.048-2.22l-.039-.188 1.31-.793.098.344c.3 1.057.69 1.469 1.393 1.469.373 0 .64-.11.841-.346.154-.187.233-.437.233-.74 0-.474-.328-.79-1.301-1.254-.647-.294-.954-.482-1.364-.835-.457-.406-.669-.902-.669-1.564 0-1.01.626-1.86 1.546-2.144v-1h1.429v1.008c.621.182 1.108.613 1.45 1.284l.11.219-1.233.799-.142-.254c-.324-.576-.607-.688-.988-.688-.36 0-.654.313-.654.698 0 .258.055.452.34.674l.016.011c.162.111.29.2.393.256l.594.308c.436.218.665.337 1.054.632.621.462.901 1.006.936 1.817v.012c0 .69-.224 1.283-.668 1.764z" fill="#000"/></g><defs><clipPath id="clip0"><path fill="#fff" transform="translate(16 23)" d="M0 0h28v28H0z"/></clipPath></defs></svg>