<svg width="65" height="65" fill="none" xmlns="http://www.w3.org/2000/svg"><circle cx="35" cy="30" r="30" fill="#FFBC16"/><circle cx="30" cy="35" r="29.5" stroke="#000"/><g clip-path="url(#clip0)" fill="#000"><path d="M42.747 22.748H22.401c-.692 0-1.253.562-1.253 1.253v2.325h15.79a3.56 3.56 0 013.556 3.556v8.422h2.253c.69 0 1.253-.562 1.253-1.253V24c0-.691-.562-1.253-1.253-1.253zm-13.279 9.754c-.535 0-1.04.262-1.352.699l-.246.345h-.888l-.245-.345a1.664 1.664 0 00-1.352-.699 1.66 1.66 0 00-1.158 2.847l3.2 3.101 3.2-3.103c.322-.314.5-.735.5-1.186a1.66 1.66 0 00-1.66-1.659z"/><path d="M36.937 27.967H17.915c-1.056 0-1.915.86-1.915 1.915v11.726c0 1.056.86 1.915 1.915 1.915h2.725v3.73l5.57-3.73h10.727a1.918 1.918 0 001.916-1.915V29.882c0-1.056-.86-1.915-1.916-1.915zm-5.166 8.556l-4.345 4.213-4.343-4.211a3.276 3.276 0 01-.998-2.364c0-1.82 1.48-3.3 3.3-3.3.747 0 1.466.256 2.041.709a3.304 3.304 0 012.042-.709c1.82 0 3.3 1.48 3.3 3.3a3.27 3.27 0 01-.997 2.362z"/></g><defs><clipPath id="clip0"><path fill="#fff" transform="translate(16 21)" d="M0 0h28v28H0z"/></clipPath></defs></svg>